{"glyphs":{"0":{"ha":514,"x_min":52,"x_max":461,"o":"m 257 10 l 257 10 q 189 10 144 -30 q 98 -70 75 -151 q 52 -233 52 -358 l 52 -358 q 52 -475 73 -557 q 94 -639 139 -682 q 184 -725 257 -725 l 257 -725 q 331 -725 376 -681 q 420 -638 441 -556 q 461 -474 461 -359 l 461 -359 q 461 -268 449 -199 q 437 -130 412 -83 q 387 -37 349 -13 q 310 10 257 10 z m 257 -40 l 257 -40 q 300 -40 329 -63 q 357 -86 374 -128 q 391 -170 398 -228 q 405 -287 405 -358 l 405 -358 q 405 -425 399 -482 q 392 -540 376 -583 q 359 -626 331 -650 q 302 -674 257 -674 l 257 -674 q 212 -674 184 -650 q 155 -626 139 -583 q 122 -540 116 -482 q 109 -425 109 -358 l 109 -358 q 109 -285 117 -226 q 124 -168 142 -126 q 159 -84 187 -62 q 215 -40 257 -40 z"},"1":{"ha":514,"x_min":86,"x_max":315,"o":"m 315 -714 l 315 0 l 259 0 l 259 -529 q 259 -567 260 -597 q 260 -627 261 -652 l 261 -652 q 252 -643 242 -632 q 232 -622 217 -610 l 217 -610 l 117 -525 l 86 -563 l 267 -714 l 315 -714 z"},"2":{"ha":514,"x_min":47,"x_max":454,"o":"m 454 0 l 47 0 l 47 -46 l 231 -261 q 277 -316 308 -359 q 339 -402 356 -444 q 372 -486 372 -537 l 372 -537 q 372 -581 356 -611 q 339 -642 309 -658 q 278 -674 238 -674 l 238 -674 q 195 -674 159 -659 q 122 -644 87 -617 l 87 -617 l 57 -658 q 85 -680 115 -694 q 144 -709 176 -717 q 207 -725 240 -725 l 240 -725 q 297 -725 339 -703 q 381 -681 405 -639 q 429 -598 429 -540 l 429 -540 q 429 -482 410 -433 q 391 -384 358 -337 q 324 -291 278 -240 l 278 -240 l 119 -55 l 119 -52 l 454 -52 l 454 0 z"},"3":{"ha":514,"x_min":39,"x_max":449,"o":"m 217 11 l 217 11 q 165 11 120 2 q 75 -7 39 -23 l 39 -23 l 39 -78 q 77 -60 122 -49 q 167 -39 215 -39 l 215 -39 q 302 -39 347 -80 q 391 -122 391 -197 l 391 -197 q 391 -249 368 -281 q 344 -314 301 -329 q 257 -345 197 -345 l 197 -345 l 135 -345 l 135 -395 l 199 -395 q 250 -395 290 -413 q 329 -431 352 -465 q 374 -499 374 -546 l 374 -546 q 374 -609 337 -642 q 299 -675 235 -675 l 235 -675 q 187 -675 148 -659 q 109 -644 70 -616 l 70 -616 l 42 -657 q 85 -689 133 -707 q 181 -725 237 -725 l 237 -725 q 294 -725 338 -705 q 382 -685 407 -646 q 431 -608 431 -550 l 431 -550 q 431 -504 414 -468 q 396 -432 365 -408 q 334 -385 292 -375 l 292 -375 l 292 -372 q 367 -361 408 -316 q 449 -272 449 -196 l 449 -196 q 449 -130 421 -83 q 392 -37 340 -13 q 288 11 217 11 z"},"4":{"ha":514,"x_min":21,"x_max":495,"o":"m 392 0 l 337 0 l 337 -173 l 21 -173 l 21 -222 l 333 -718 l 392 -718 l 392 -224 l 495 -224 l 495 -173 l 392 -173 l 392 0 z m 290 -561 l 77 -224 l 337 -224 l 337 -517 q 337 -542 338 -563 q 338 -585 339 -606 q 339 -627 340 -649 l 340 -649 l 337 -649 q 327 -626 316 -605 q 304 -585 290 -561 l 290 -561 z"},"5":{"ha":514,"x_min":60,"x_max":458,"o":"m 221 11 l 221 11 q 170 11 130 2 q 89 -8 60 -23 l 60 -23 l 60 -79 q 93 -61 134 -50 q 175 -39 220 -39 l 220 -39 q 278 -39 318 -61 q 358 -84 379 -124 q 400 -165 400 -220 l 400 -220 q 400 -298 358 -340 q 315 -383 230 -383 l 230 -383 q 198 -383 167 -378 q 135 -373 105 -364 l 105 -364 l 76 -386 l 102 -714 l 414 -714 l 414 -662 l 151 -662 l 131 -418 q 156 -425 185 -428 q 214 -432 245 -432 l 245 -432 q 311 -432 359 -407 q 406 -383 432 -336 q 458 -290 458 -223 l 458 -223 q 458 -151 430 -98 q 401 -46 348 -17 q 295 11 221 11 z"},"6":{"ha":514,"x_min":58,"x_max":466,"o":"m 269 11 l 269 11 q 213 11 173 -13 q 132 -37 107 -80 q 82 -123 70 -180 q 58 -238 58 -305 l 58 -305 q 58 -393 70 -461 q 82 -529 106 -579 q 129 -629 163 -661 q 197 -693 241 -709 q 285 -725 338 -725 l 338 -725 q 362 -725 383 -722 q 404 -720 422 -715 l 422 -715 l 422 -664 q 404 -670 383 -673 q 362 -676 339 -676 l 339 -676 q 271 -676 222 -641 q 172 -607 144 -534 q 116 -462 114 -348 l 114 -348 l 117 -348 q 130 -374 153 -396 q 175 -418 207 -431 q 239 -444 281 -444 l 281 -444 q 341 -444 383 -417 q 424 -390 445 -340 q 466 -291 466 -226 l 466 -226 q 466 -156 443 -102 q 420 -49 376 -19 q 332 11 269 11 z m 268 -39 l 268 -39 q 336 -39 373 -87 q 409 -136 409 -225 l 409 -225 q 409 -305 375 -350 q 340 -396 271 -396 l 271 -396 q 224 -396 189 -375 q 154 -354 136 -321 q 117 -288 117 -252 l 117 -252 q 117 -220 125 -183 q 132 -146 150 -113 q 167 -81 196 -60 q 225 -39 268 -39 z"},"7":{"ha":514,"x_min":42,"x_max":465,"o":"m 196 0 l 135 0 l 404 -662 l 42 -662 l 42 -714 l 465 -714 l 465 -671 l 196 0 z"},"8":{"ha":514,"x_min":50,"x_max":464,"o":"m 258 11 l 258 11 q 196 11 150 -10 q 103 -32 77 -74 q 50 -116 50 -176 l 50 -176 q 50 -224 69 -260 q 87 -297 121 -326 q 155 -355 203 -376 l 203 -376 q 163 -399 133 -425 q 103 -451 87 -484 q 71 -517 71 -558 l 71 -558 q 71 -611 96 -648 q 120 -685 163 -704 q 205 -724 258 -724 l 258 -724 q 313 -724 355 -705 q 396 -686 420 -649 q 444 -613 444 -559 l 444 -559 q 444 -517 428 -485 q 411 -453 381 -427 q 350 -401 305 -378 l 305 -378 q 352 -356 388 -328 q 423 -300 444 -264 q 464 -229 464 -180 l 464 -180 q 464 -120 437 -77 q 410 -35 364 -12 q 317 11 258 11 z m 256 -37 l 256 -37 q 323 -37 366 -74 q 408 -111 408 -179 l 408 -179 q 408 -214 394 -242 q 379 -271 349 -295 q 319 -320 271 -341 l 271 -341 l 250 -351 q 205 -331 173 -306 q 140 -282 123 -250 q 106 -219 106 -175 l 106 -175 q 106 -112 147 -74 q 187 -37 256 -37 z m 259 -403 l 259 -403 q 300 -423 329 -444 q 358 -466 373 -493 q 388 -521 388 -557 l 388 -557 q 388 -617 353 -646 q 317 -676 257 -676 l 257 -676 q 198 -676 163 -644 q 127 -613 127 -556 l 127 -556 q 127 -518 143 -491 q 159 -464 189 -443 q 219 -422 259 -403 z"},"9":{"ha":514,"x_min":49,"x_max":457,"o":"m 176 11 l 176 11 q 155 11 130 8 q 105 5 88 1 l 88 1 l 88 -51 q 106 -45 129 -41 q 151 -38 175 -38 l 175 -38 q 228 -38 269 -58 q 310 -79 339 -119 q 367 -160 383 -221 q 399 -283 400 -367 l 400 -367 l 397 -367 q 384 -341 362 -319 q 339 -297 307 -283 q 275 -270 233 -270 l 233 -270 q 173 -270 132 -297 q 91 -325 70 -374 q 49 -423 49 -488 l 49 -488 q 49 -559 72 -612 q 95 -666 140 -695 q 184 -725 247 -725 l 247 -725 q 303 -725 343 -701 q 382 -678 408 -635 q 433 -592 445 -535 q 457 -479 457 -413 l 457 -413 q 457 -324 445 -255 q 432 -186 409 -136 q 385 -86 351 -53 q 317 -21 273 -5 q 229 11 176 11 z m 243 -319 l 243 -319 q 291 -319 326 -340 q 360 -361 379 -394 q 398 -427 398 -464 l 398 -464 q 398 -495 391 -531 q 383 -568 366 -600 q 348 -633 319 -654 q 290 -675 247 -675 l 247 -675 q 178 -675 142 -626 q 105 -578 105 -489 l 105 -489 q 105 -409 140 -364 q 174 -319 243 -319 z"},"\r":{"ha":277,"x_min":0,"x_max":0,"o":""}," ":{"ha":277,"x_min":0,"x_max":0,"o":""},"ഀ":{"ha":0,"x_min":-409,"x_max":-147,"o":"m -409 -724 l -409 -724 q -409 -786 -373 -825 q -338 -864 -279 -864 l -279 -864 q -219 -864 -183 -825 q -147 -787 -147 -725 l -147 -725 q -147 -662 -183 -623 q -219 -585 -278 -585 l -278 -585 q -338 -585 -373 -624 q -409 -663 -409 -724 z m -360 -725 l -360 -725 q -360 -684 -340 -657 q -320 -630 -279 -630 l -279 -630 q -237 -630 -216 -657 q -196 -684 -196 -725 l -196 -725 q -196 -766 -216 -792 q -237 -819 -279 -819 l -279 -819 q -318 -819 -339 -792 q -360 -766 -360 -725 z"},"ഁ":{"ha":0,"x_min":-426,"x_max":-129,"o":"m -278 -663 l -278 -663 q -348 -663 -387 -699 q -426 -735 -426 -808 l -426 -808 q -426 -819 -424 -833 q -423 -847 -420 -859 l -420 -859 l -374 -851 q -377 -841 -378 -829 q -379 -817 -379 -808 l -379 -808 q -379 -771 -366 -749 q -354 -727 -331 -717 q -308 -708 -278 -708 l -278 -708 q -246 -708 -223 -718 q -201 -729 -189 -751 q -177 -774 -177 -809 l -177 -809 q -177 -818 -178 -829 q -179 -841 -182 -851 l -182 -851 l -136 -859 q -133 -847 -131 -833 q -129 -819 -129 -808 l -129 -808 q -129 -736 -170 -699 q -211 -663 -278 -663 z m -278 -769 l -278 -769 q -297 -769 -306 -780 q -315 -792 -315 -810 l -315 -810 q -315 -827 -306 -838 q -297 -850 -278 -850 l -278 -850 q -260 -850 -251 -838 q -242 -827 -242 -810 l -242 -810 q -242 -792 -251 -780 q -260 -769 -278 -769 z"},"ം":{"ha":399,"x_min":35,"x_max":364,"o":"m 199 12 l 199 12 q 149 12 112 -10 q 75 -33 55 -74 q 35 -115 35 -171 l 35 -171 q 35 -228 56 -268 q 76 -309 113 -331 q 150 -354 200 -354 l 200 -354 q 249 -354 286 -332 q 323 -310 344 -269 q 364 -229 364 -172 l 364 -172 q 364 -114 344 -73 q 323 -32 286 -10 q 249 12 199 12 z m 200 -307 l 200 -307 q 150 -307 120 -273 q 89 -240 89 -171 l 89 -171 q 89 -102 120 -68 q 150 -34 199 -34 l 199 -34 q 249 -34 280 -68 q 310 -102 310 -172 l 310 -172 q 310 -240 280 -273 q 249 -307 200 -307 z"},"ഃ":{"ha":302,"x_min":34,"x_max":268,"o":"m 34 -435 l 34 -435 q 34 -491 66 -526 q 98 -562 150 -562 l 150 -562 q 204 -562 236 -527 q 268 -492 268 -435 l 268 -435 q 268 -378 236 -343 q 204 -308 150 -308 l 150 -308 q 97 -308 66 -343 q 34 -379 34 -435 z m 82 -436 l 82 -436 q 82 -398 100 -375 q 117 -353 150 -353 l 150 -353 q 185 -353 203 -375 q 220 -398 220 -436 l 220 -436 q 220 -473 202 -495 q 184 -517 150 -517 l 150 -517 q 118 -517 100 -495 q 82 -473 82 -436 z m 34 -115 l 34 -115 q 34 -171 66 -206 q 98 -242 150 -242 l 150 -242 q 204 -242 236 -207 q 268 -172 268 -115 l 268 -115 q 268 -58 236 -23 q 204 12 150 12 l 150 12 q 97 12 66 -23 q 34 -59 34 -115 z m 82 -116 l 82 -116 q 82 -78 100 -55 q 117 -32 150 -32 l 150 -32 q 185 -32 203 -55 q 220 -78 220 -116 l 220 -116 q 220 -152 202 -174 q 184 -197 150 -197 l 150 -197 q 118 -197 100 -174 q 82 -152 82 -116 z"},"ഄ":{"ha":522,"x_min":38,"x_max":484,"o":"m 52 -311 l 52 -311 l 105 -301 q 99 -277 96 -253 q 93 -230 93 -206 l 93 -206 q 93 -130 130 -85 q 167 -40 260 -40 l 260 -40 q 354 -40 392 -85 q 429 -130 429 -206 l 429 -206 q 429 -230 426 -253 q 423 -277 416 -301 l 416 -301 l 469 -311 q 475 -290 480 -262 q 484 -234 484 -204 l 484 -204 q 484 -142 462 -93 q 439 -45 390 -18 q 341 9 260 9 l 260 9 q 181 9 132 -18 q 82 -45 60 -93 q 38 -142 38 -204 l 38 -204 q 38 -234 43 -262 q 47 -290 52 -311 z m 236 -165 l 236 -397 l 287 -397 l 287 -165 l 236 -165 z"},"അ":{"ha":1314,"x_min":41,"x_max":1273,"o":"m 332 -562 l 332 -562 q 369 -562 409 -555 q 449 -549 485 -534 l 485 -534 q 489 -532 493 -528 q 497 -525 501 -523 l 501 -523 q 540 -509 566 -487 q 592 -465 605 -436 q 618 -407 618 -371 l 618 -371 q 618 -341 608 -316 q 598 -291 574 -274 q 550 -257 509 -249 l 509 -249 l 510 -256 q 567 -248 598 -215 q 628 -182 628 -129 l 628 -129 q 628 -89 611 -57 q 594 -25 560 -6 q 526 12 472 12 l 472 12 q 407 12 364 -18 q 321 -48 299 -103 q 277 -158 277 -233 l 277 -233 q 277 -291 294 -344 q 310 -398 344 -442 q 377 -486 427 -516 l 427 -516 q 431 -518 435 -521 q 439 -525 443 -527 l 443 -527 q 473 -544 509 -553 q 545 -562 588 -562 l 588 -562 q 655 -562 697 -541 q 739 -521 763 -486 q 787 -451 799 -406 l 799 -406 l 814 -269 l 814 0 l 759 0 l 759 -298 q 759 -369 749 -408 q 738 -448 712 -473 l 712 -473 q 692 -494 661 -505 q 630 -516 581 -516 l 581 -516 q 556 -516 533 -511 q 509 -507 489 -499 l 489 -499 q 449 -484 419 -456 q 389 -429 370 -392 q 350 -356 341 -315 q 331 -275 331 -233 l 331 -233 q 331 -137 367 -85 q 402 -34 472 -34 l 472 -34 q 522 -34 548 -57 q 574 -81 574 -129 l 574 -129 q 574 -172 546 -200 q 517 -228 455 -228 l 455 -228 l 439 -228 l 439 -275 l 450 -275 q 512 -275 538 -301 q 564 -328 564 -371 l 564 -371 q 564 -424 533 -455 q 501 -486 448 -500 l 448 -500 q 417 -510 389 -512 q 360 -515 335 -515 l 335 -515 q 252 -515 200 -483 q 148 -452 123 -398 q 98 -344 98 -279 l 98 -279 q 98 -220 112 -174 q 126 -128 153 -93 q 179 -59 214 -32 l 214 -32 l 180 8 q 144 -19 113 -58 q 81 -97 61 -152 q 41 -207 41 -281 l 41 -281 q 41 -340 59 -391 q 76 -442 113 -480 q 149 -519 204 -540 q 258 -562 332 -562 z m 1096 12 l 1096 12 q 1040 12 1004 -15 q 968 -42 951 -88 q 933 -135 933 -192 l 933 -192 q 933 -289 978 -340 q 1022 -392 1096 -392 l 1096 -392 q 1139 -392 1171 -372 q 1203 -353 1225 -321 q 1246 -289 1256 -249 l 1256 -249 l 1239 -238 q 1229 -264 1211 -288 q 1193 -312 1167 -328 q 1140 -345 1105 -345 l 1105 -345 q 1045 -345 1016 -304 q 987 -264 987 -193 l 987 -193 q 987 -147 998 -111 q 1009 -75 1033 -55 q 1057 -35 1097 -35 l 1097 -35 q 1136 -35 1163 -56 q 1190 -77 1205 -123 q 1220 -169 1220 -245 l 1220 -245 q 1220 -255 1219 -268 q 1218 -282 1216 -293 l 1216 -293 q 1216 -299 1216 -305 q 1216 -312 1215 -317 l 1215 -317 q 1207 -367 1182 -412 q 1156 -457 1109 -485 q 1062 -514 990 -514 l 990 -514 q 951 -514 921 -504 q 891 -494 868 -474 l 868 -474 q 851 -458 839 -435 q 826 -413 820 -381 q 814 -349 814 -303 l 814 -303 l 814 -233 l 778 -409 q 791 -455 818 -489 q 845 -524 888 -543 q 930 -562 989 -562 l 989 -562 q 1059 -562 1113 -538 q 1166 -515 1202 -472 q 1237 -429 1255 -370 q 1273 -312 1273 -241 l 1273 -241 q 1273 -149 1250 -93 q 1227 -37 1188 -12 q 1148 12 1096 12 z"},"ആ":{"ha":1443,"x_min":41,"x_max":1415,"o":"m 332 -562 l 332 -562 q 369 -562 409 -555 q 449 -549 485 -534 l 485 -534 q 489 -532 493 -528 q 497 -525 501 -523 l 501 -523 q 540 -509 566 -487 q 592 -465 605 -436 q 618 -407 618 -371 l 618 -371 q 618 -341 608 -316 q 598 -291 574 -274 q 550 -257 509 -249 l 509 -249 l 510 -256 q 567 -248 598 -215 q 628 -182 628 -129 l 628 -129 q 628 -89 611 -57 q 594 -25 560 -6 q 526 12 472 12 l 472 12 q 407 12 364 -18 q 321 -48 299 -103 q 277 -158 277 -233 l 277 -233 q 277 -291 294 -344 q 310 -398 344 -442 q 377 -486 427 -516 l 427 -516 q 431 -518 435 -521 q 439 -525 443 -527 l 443 -527 q 473 -544 509 -553 q 545 -562 588 -562 l 588 -562 q 655 -562 697 -541 q 739 -521 763 -486 q 787 -451 799 -406 l 799 -406 l 814 -269 l 814 0 l 759 0 l 759 -298 q 759 -369 749 -408 q 738 -448 712 -473 l 712 -473 q 692 -494 661 -505 q 630 -516 581 -516 l 581 -516 q 556 -516 533 -511 q 509 -507 489 -499 l 489 -499 q 449 -484 419 -456 q 389 -429 370 -392 q 350 -356 341 -315 q 331 -275 331 -233 l 331 -233 q 331 -137 367 -85 q 402 -34 472 -34 l 472 -34 q 522 -34 548 -57 q 574 -81 574 -129 l 574 -129 q 574 -172 546 -200 q 517 -228 455 -228 l 455 -228 l 439 -228 l 439 -275 l 450 -275 q 512 -275 538 -301 q 564 -328 564 -371 l 564 -371 q 564 -424 533 -455 q 501 -486 448 -500 l 448 -500 q 417 -510 389 -512 q 360 -515 335 -515 l 335 -515 q 252 -515 200 -483 q 148 -452 123 -398 q 98 -344 98 -279 l 98 -279 q 98 -220 112 -174 q 126 -128 153 -93 q 179 -59 214 -32 l 214 -32 l 180 8 q 144 -19 113 -58 q 81 -97 61 -152 q 41 -207 41 -281 l 41 -281 q 41 -340 59 -391 q 76 -442 113 -480 q 149 -519 204 -540 q 258 -562 332 -562 z m 983 -562 l 983 -562 q 1060 -562 1114 -532 q 1167 -502 1200 -450 q 1232 -398 1245 -331 l 1245 -331 q 1250 -306 1253 -279 q 1255 -252 1255 -224 l 1255 -224 q 1255 -140 1232 -88 q 1209 -36 1170 -12 q 1130 12 1078 12 l 1078 12 q 1021 12 986 -13 q 951 -39 936 -80 q 920 -121 920 -165 l 920 -165 q 920 -264 982 -316 q 1043 -369 1149 -369 l 1149 -369 q 1161 -369 1174 -368 q 1186 -367 1199 -365 l 1199 -365 l 1218 -363 q 1283 -349 1327 -309 q 1371 -269 1393 -211 q 1415 -153 1415 -86 l 1415 -86 q 1415 -18 1397 36 q 1379 89 1344 126 q 1309 162 1258 182 q 1207 201 1142 201 l 1142 201 q 1099 201 1063 194 q 1027 187 999 177 l 999 177 l 1017 131 q 1042 141 1074 147 q 1106 152 1143 152 l 1143 152 q 1200 152 1242 135 q 1283 117 1309 86 q 1335 54 1348 10 q 1360 -34 1360 -87 l 1360 -87 q 1360 -142 1346 -186 q 1332 -230 1304 -261 q 1276 -293 1235 -309 l 1235 -309 l 1212 -313 q 1197 -318 1181 -320 q 1165 -322 1149 -322 l 1149 -322 q 1097 -322 1058 -306 q 1018 -290 997 -255 q 975 -221 975 -166 l 975 -166 q 975 -133 984 -103 q 993 -74 1016 -54 q 1039 -35 1079 -35 l 1079 -35 q 1140 -35 1171 -83 q 1201 -131 1201 -226 l 1201 -226 q 1201 -252 1199 -280 q 1196 -308 1190 -335 l 1190 -335 l 1187 -352 q 1175 -396 1151 -432 q 1126 -469 1086 -491 q 1045 -514 984 -514 l 984 -514 q 950 -514 920 -504 q 890 -494 867 -474 l 867 -474 q 850 -458 838 -435 q 826 -413 820 -381 q 814 -349 814 -303 l 814 -303 l 814 -213 l 777 -408 q 790 -456 818 -490 q 846 -525 888 -543 q 929 -562 983 -562 z"},"ഇ":{"ha":863,"x_min":41,"x_max":822,"o":"m 287 -562 l 287 -562 q 342 -562 380 -547 q 418 -532 442 -504 q 466 -477 481 -437 l 481 -437 l 467 -439 q 489 -506 529 -534 q 568 -562 623 -562 l 623 -562 q 675 -562 712 -541 q 749 -521 774 -485 q 798 -449 810 -402 q 822 -355 822 -304 l 822 -304 q 822 -218 800 -158 q 778 -99 733 -62 l 733 -62 q 706 -40 673 -26 q 640 -13 593 -6 q 546 0 478 0 l 478 0 l 244 0 q 197 0 172 4 q 146 8 131 21 l 131 21 q 119 30 113 44 q 106 57 106 74 l 106 74 q 106 93 113 107 q 119 121 132 131 l 132 131 q 147 142 173 148 q 198 153 241 153 l 241 153 l 805 153 l 805 201 l 235 201 q 187 201 155 194 q 122 186 98 170 l 98 170 q 75 155 63 132 q 51 108 51 77 l 51 77 q 51 48 61 25 q 70 2 91 -13 l 91 -13 q 105 -25 123 -32 q 141 -40 168 -43 q 194 -47 232 -47 l 232 -47 l 472 -47 q 540 -47 583 -54 q 626 -61 654 -73 q 681 -86 701 -105 l 701 -105 q 738 -137 752 -187 q 766 -238 766 -302 l 766 -302 q 766 -358 751 -406 q 736 -454 705 -484 q 673 -514 622 -514 l 622 -514 q 594 -514 575 -506 q 555 -498 540 -482 l 540 -482 q 518 -458 510 -419 q 501 -380 501 -319 l 501 -319 l 501 -117 l 446 -117 l 446 -321 q 446 -384 434 -421 q 422 -458 395 -481 l 395 -481 q 376 -498 351 -506 q 325 -515 286 -515 l 286 -515 q 242 -515 209 -501 q 175 -487 152 -463 q 128 -440 114 -410 q 99 -381 93 -350 l 93 -350 q 92 -347 93 -343 q 94 -340 94 -337 l 94 -337 q 92 -330 92 -322 q 91 -314 91 -305 l 91 -305 q 91 -234 113 -194 q 135 -155 185 -155 l 185 -155 q 228 -155 249 -184 q 269 -214 269 -258 l 269 -258 q 269 -285 261 -306 q 253 -328 235 -341 q 217 -355 186 -355 l 186 -355 q 148 -355 120 -335 q 92 -315 70 -288 l 70 -288 l 54 -326 q 70 -345 90 -362 q 110 -379 137 -390 q 163 -401 194 -401 l 194 -401 q 239 -401 268 -381 q 296 -361 310 -329 q 323 -297 323 -259 l 323 -259 q 323 -217 308 -183 q 293 -149 263 -129 q 232 -109 185 -109 l 185 -109 q 140 -109 108 -131 q 75 -154 58 -198 q 41 -243 41 -308 l 41 -308 q 41 -377 70 -435 q 98 -493 154 -527 q 209 -562 287 -562 z"},"ഈ":{"ha":1531,"x_min":41,"x_max":1488,"o":"m 287 -562 l 287 -562 q 342 -562 380 -547 q 418 -532 442 -504 q 466 -477 481 -437 l 481 -437 l 467 -439 q 489 -506 529 -534 q 568 -562 623 -562 l 623 -562 q 675 -562 712 -541 q 749 -521 774 -485 q 798 -449 810 -402 q 822 -355 822 -304 l 822 -304 q 822 -218 800 -158 q 778 -99 733 -62 l 733 -62 q 706 -40 673 -26 q 640 -13 593 -6 q 546 0 478 0 l 478 0 l 244 0 q 197 0 172 4 q 146 8 131 21 l 131 21 q 119 30 113 44 q 106 57 106 74 l 106 74 q 106 93 113 107 q 119 121 132 131 l 132 131 q 147 142 173 148 q 198 153 241 153 l 241 153 l 805 153 l 805 201 l 235 201 q 187 201 155 194 q 122 186 98 170 l 98 170 q 75 155 63 132 q 51 108 51 77 l 51 77 q 51 48 61 25 q 70 2 91 -13 l 91 -13 q 105 -25 123 -32 q 141 -40 168 -43 q 194 -47 232 -47 l 232 -47 l 472 -47 q 540 -47 583 -54 q 626 -61 654 -73 q 681 -86 701 -105 l 701 -105 q 738 -137 752 -187 q 766 -238 766 -302 l 766 -302 q 766 -358 751 -406 q 736 -454 705 -484 q 673 -514 622 -514 l 622 -514 q 594 -514 575 -506 q 555 -498 540 -482 l 540 -482 q 518 -458 510 -419 q 501 -380 501 -319 l 501 -319 l 501 -117 l 446 -117 l 446 -321 q 446 -384 434 -421 q 422 -458 395 -481 l 395 -481 q 376 -498 351 -506 q 325 -515 286 -515 l 286 -515 q 242 -515 209 -501 q 175 -487 152 -463 q 128 -440 114 -410 q 99 -381 93 -350 l 93 -350 q 92 -347 93 -343 q 94 -340 94 -337 l 94 -337 q 92 -330 92 -322 q 91 -314 91 -305 l 91 -305 q 91 -234 113 -194 q 135 -155 185 -155 l 185 -155 q 228 -155 249 -184 q 269 -214 269 -258 l 269 -258 q 269 -285 261 -306 q 253 -328 235 -341 q 217 -355 186 -355 l 186 -355 q 148 -355 120 -335 q 92 -315 70 -288 l 70 -288 l 54 -326 q 70 -345 90 -362 q 110 -379 137 -390 q 163 -401 194 -401 l 194 -401 q 239 -401 268 -381 q 296 -361 310 -329 q 323 -297 323 -259 l 323 -259 q 323 -217 308 -183 q 293 -149 263 -129 q 232 -109 185 -109 l 185 -109 q 140 -109 108 -131 q 75 -154 58 -198 q 41 -243 41 -308 l 41 -308 q 41 -377 70 -435 q 98 -493 154 -527 q 209 -562 287 -562 z m 1316 -562 l 1316 -562 q 1371 -562 1410 -531 q 1448 -500 1469 -442 q 1489 -384 1489 -303 l 1489 -303 q 1489 -198 1462 -128 q 1435 -58 1381 -23 q 1327 12 1245 12 l 1245 12 q 1191 12 1148 2 q 1104 -9 1061 -31 l 1061 -31 l 1088 -76 q 1125 -57 1161 -47 q 1196 -37 1243 -37 l 1243 -37 q 1315 -37 1357 -69 q 1398 -101 1415 -160 q 1432 -220 1432 -303 l 1432 -303 q 1432 -410 1400 -462 q 1368 -514 1314 -514 l 1314 -514 q 1288 -514 1271 -504 q 1253 -495 1242 -479 l 1242 -479 q 1226 -457 1221 -424 q 1216 -392 1216 -344 l 1216 -344 l 1216 -257 l 1161 -257 l 1161 -343 q 1161 -393 1155 -426 q 1148 -460 1133 -479 l 1133 -479 q 1121 -497 1103 -505 q 1085 -514 1061 -514 l 1061 -514 q 1009 -514 983 -476 q 956 -438 956 -381 l 956 -381 q 956 -348 961 -320 q 965 -292 973 -264 l 973 -264 l 921 -253 q 912 -283 907 -317 q 901 -351 901 -384 l 901 -384 q 901 -434 919 -474 q 937 -514 972 -538 q 1007 -562 1059 -562 l 1059 -562 q 1109 -562 1143 -536 q 1176 -511 1192 -454 l 1192 -454 l 1182 -453 q 1199 -511 1234 -536 q 1269 -562 1316 -562 z"},"ഉ":{"ha":607,"x_min":41,"x_max":567,"o":"m 304 -562 l 304 -562 q 372 -562 421 -540 q 470 -518 503 -480 q 535 -443 551 -393 q 567 -344 567 -288 l 567 -288 q 567 -208 547 -152 q 526 -96 481 -62 l 481 -62 q 453 -39 419 -25 q 385 -12 342 -6 q 299 0 242 0 l 242 0 l 234 0 q 196 0 171 4 q 146 8 131 21 l 131 21 q 119 30 113 44 q 106 57 106 74 l 106 74 q 106 93 113 107 q 119 121 132 131 l 132 131 q 147 142 173 148 q 198 153 241 153 l 241 153 l 549 153 l 549 201 l 235 201 q 187 201 155 194 q 122 186 98 170 l 98 170 q 75 155 63 132 q 51 108 51 77 l 51 77 q 51 48 61 25 q 70 2 91 -13 l 91 -13 q 112 -31 143 -39 q 174 -47 226 -47 l 226 -47 l 234 -47 q 293 -47 333 -53 q 373 -59 400 -71 q 427 -84 447 -102 l 447 -102 q 484 -131 497 -178 q 510 -226 510 -287 l 510 -287 q 510 -334 498 -375 q 485 -416 460 -447 q 434 -479 395 -497 q 356 -515 302 -515 l 302 -515 q 251 -515 215 -500 q 178 -486 153 -462 q 128 -439 114 -409 q 99 -380 93 -350 l 93 -350 q 92 -347 93 -343 q 94 -340 94 -337 l 94 -337 q 92 -330 92 -322 q 91 -314 91 -305 l 91 -305 q 91 -234 113 -194 q 135 -155 185 -155 l 185 -155 q 228 -155 249 -184 q 269 -214 269 -258 l 269 -258 q 269 -285 261 -306 q 253 -328 235 -341 q 217 -355 186 -355 l 186 -355 q 148 -355 120 -335 q 92 -315 70 -288 l 70 -288 l 54 -326 q 70 -345 90 -362 q 110 -379 137 -390 q 163 -401 194 -401 l 194 -401 q 239 -401 268 -381 q 296 -361 310 -329 q 323 -297 323 -259 l 323 -259 q 323 -217 308 -183 q 293 -149 263 -129 q 232 -109 185 -109 l 185 -109 q 140 -109 108 -131 q 75 -154 58 -198 q 41 -243 41 -308 l 41 -308 q 41 -360 58 -405 q 74 -451 108 -486 q 141 -522 190 -542 q 239 -562 304 -562 z"},"ഊ":{"ha":1274,"x_min":41,"x_max":1232,"o":"m 304 -562 l 304 -562 q 372 -562 421 -540 q 470 -518 503 -480 q 535 -443 551 -393 q 567 -344 567 -288 l 567 -288 q 567 -208 547 -152 q 526 -96 481 -62 l 481 -62 q 453 -39 419 -25 q 385 -12 342 -6 q 299 0 242 0 l 242 0 l 234 0 q 196 0 171 4 q 146 8 131 21 l 131 21 q 119 30 113 44 q 106 57 106 74 l 106 74 q 106 93 113 107 q 119 121 132 131 l 132 131 q 147 142 173 148 q 198 153 241 153 l 241 153 l 549 153 l 549 201 l 235 201 q 187 201 155 194 q 122 186 98 170 l 98 170 q 75 155 63 132 q 51 108 51 77 l 51 77 q 51 48 61 25 q 70 2 91 -13 l 91 -13 q 112 -31 143 -39 q 174 -47 226 -47 l 226 -47 l 234 -47 q 293 -47 333 -53 q 373 -59 400 -71 q 427 -84 447 -102 l 447 -102 q 484 -131 497 -178 q 510 -226 510 -287 l 510 -287 q 510 -334 498 -375 q 485 -416 460 -447 q 434 -479 395 -497 q 356 -515 302 -515 l 302 -515 q 251 -515 215 -500 q 178 -486 153 -462 q 128 -439 114 -409 q 99 -380 93 -350 l 93 -350 q 92 -347 93 -343 q 94 -340 94 -337 l 94 -337 q 92 -330 92 -322 q 91 -314 91 -305 l 91 -305 q 91 -234 113 -194 q 135 -155 185 -155 l 185 -155 q 228 -155 249 -184 q 269 -214 269 -258 l 269 -258 q 269 -285 261 -306 q 253 -328 235 -341 q 217 -355 186 -355 l 186 -355 q 148 -355 120 -335 q 92 -315 70 -288 l 70 -288 l 54 -326 q 70 -345 90 -362 q 110 -379 137 -390 q 163 -401 194 -401 l 194 -401 q 239 -401 268 -381 q 296 -361 310 -329 q 323 -297 323 -259 l 323 -259 q 323 -217 308 -183 q 293 -149 263 -129 q 232 -109 185 -109 l 185 -109 q 140 -109 108 -131 q 75 -154 58 -198 q 41 -243 41 -308 l 41 -308 q 41 -360 58 -405 q 74 -451 108 -486 q 141 -522 190 -542 q 239 -562 304 -562 z m 1059 -562 l 1059 -562 q 1114 -562 1153 -531 q 1191 -500 1212 -442 q 1232 -384 1232 -303 l 1232 -303 q 1232 -198 1205 -128 q 1178 -58 1124 -23 q 1070 12 988 12 l 988 12 q 934 12 891 2 q 847 -9 804 -31 l 804 -31 l 831 -76 q 868 -57 904 -47 q 939 -37 986 -37 l 986 -37 q 1058 -37 1100 -69 q 1141 -101 1158 -160 q 1175 -220 1175 -303 l 1175 -303 q 1175 -410 1143 -462 q 1111 -514 1057 -514 l 1057 -514 q 1031 -514 1014 -504 q 996 -495 985 -479 l 985 -479 q 969 -457 964 -424 q 959 -392 959 -344 l 959 -344 l 959 -257 l 904 -257 l 904 -343 q 904 -393 898 -426 q 891 -460 876 -479 l 876 -479 q 864 -497 846 -505 q 828 -514 804 -514 l 804 -514 q 752 -514 726 -476 q 699 -438 699 -381 l 699 -381 q 699 -348 704 -320 q 708 -292 716 -264 l 716 -264 l 664 -253 q 655 -283 650 -317 q 644 -351 644 -384 l 644 -384 q 644 -434 662 -474 q 680 -514 715 -538 q 750 -562 802 -562 l 802 -562 q 852 -562 886 -536 q 919 -511 935 -454 l 935 -454 l 925 -453 q 942 -511 977 -536 q 1012 -562 1059 -562 z"},"ഋ":{"ha":767,"x_min":38,"x_max":729,"o":"m 574 -562 l 574 -562 q 647 -562 688 -509 q 729 -456 729 -364 l 729 -364 q 729 -298 710 -251 q 691 -204 655 -171 l 655 -171 q 615 -133 556 -116 q 496 -100 410 -100 l 410 -100 l 357 -100 q 301 -100 257 -106 q 213 -113 180 -127 q 146 -142 119 -165 l 119 -165 q 81 -198 60 -247 q 38 -296 38 -362 l 38 -362 q 38 -422 58 -467 q 77 -512 114 -537 q 150 -562 200 -562 l 200 -562 q 246 -562 277 -541 q 308 -521 324 -487 q 339 -453 339 -411 l 339 -411 q 339 -368 324 -335 q 308 -302 277 -283 q 246 -264 200 -264 l 200 -264 q 166 -264 140 -274 q 113 -284 93 -300 q 72 -317 55 -335 l 55 -335 l 71 -376 q 85 -360 101 -345 q 117 -330 140 -320 q 162 -311 192 -311 l 192 -311 q 240 -311 263 -338 q 286 -365 286 -412 l 286 -412 q 286 -456 265 -485 q 243 -515 198 -515 l 198 -515 q 161 -515 137 -495 q 112 -476 101 -442 q 89 -408 89 -363 l 89 -363 q 89 -354 90 -344 q 91 -334 93 -324 l 93 -324 l 90 -312 q 100 -265 123 -231 q 146 -198 181 -178 q 216 -158 264 -148 q 312 -139 373 -139 l 373 -139 l 391 -139 q 454 -139 503 -148 q 552 -158 588 -178 q 623 -199 646 -232 q 668 -265 677 -312 l 677 -312 l 675 -325 q 676 -334 677 -344 q 678 -354 678 -361 l 678 -361 q 678 -409 667 -443 q 656 -477 633 -496 q 610 -515 573 -515 l 573 -515 q 527 -515 505 -485 q 482 -455 482 -409 l 482 -409 q 482 -364 505 -337 q 527 -311 574 -311 l 574 -311 q 605 -311 627 -320 q 649 -329 666 -343 q 683 -358 696 -374 l 696 -374 l 712 -334 q 696 -317 675 -300 q 654 -284 628 -274 q 601 -264 567 -264 l 567 -264 q 521 -264 490 -283 q 459 -302 444 -335 q 429 -369 429 -410 l 429 -410 q 429 -452 445 -486 q 461 -521 494 -541 q 526 -562 574 -562 z m 384 208 l 384 208 q 276 208 206 190 q 135 171 102 132 q 68 93 68 34 l 68 34 q 68 -10 89 -40 q 110 -71 147 -89 q 184 -108 233 -116 q 282 -124 337 -124 l 337 -124 l 429 -124 q 485 -124 534 -116 q 583 -108 620 -89 q 657 -71 679 -40 q 700 -10 700 35 l 700 35 q 700 91 668 130 q 635 168 566 188 q 496 208 384 208 z m 384 160 l 384 160 q 480 160 537 146 q 593 132 619 104 q 644 75 644 34 l 644 34 q 644 -1 627 -24 q 609 -48 576 -63 q 543 -78 496 -84 q 448 -91 387 -91 l 387 -91 l 378 -91 q 297 -91 241 -78 q 184 -66 154 -38 q 124 -11 124 34 l 124 34 q 124 76 149 104 q 174 132 232 146 q 289 160 384 160 z"},"ഌ":{"ha":1024,"x_min":44,"x_max":983,"o":"m 314 -562 l 314 -562 q 392 -562 438 -528 q 483 -494 506 -431 l 506 -431 l 514 -386 l 524 -263 l 524 0 l 469 0 l 469 -315 q 469 -381 457 -419 q 444 -457 419 -480 l 419 -480 q 399 -497 375 -505 q 350 -514 313 -514 l 313 -514 q 247 -514 198 -478 q 149 -442 123 -380 q 96 -318 96 -239 l 96 -239 l 96 -225 q 96 -159 110 -117 q 124 -75 150 -55 q 176 -35 211 -35 l 211 -35 q 235 -35 255 -47 q 275 -59 287 -85 q 298 -111 298 -153 l 298 -153 q 298 -207 274 -237 q 249 -267 203 -267 l 203 -267 q 165 -267 133 -248 q 100 -229 75 -199 l 75 -199 l 63 -241 q 93 -276 132 -295 q 171 -315 211 -315 l 211 -315 q 252 -315 284 -297 q 315 -280 334 -244 q 352 -209 352 -156 l 352 -156 q 352 -100 334 -62 q 316 -25 284 -6 q 252 12 210 12 l 210 12 q 165 12 127 -12 q 89 -36 67 -89 q 44 -143 44 -233 l 44 -233 q 44 -338 79 -411 q 113 -485 174 -523 q 235 -562 314 -562 z m 806 12 l 806 12 q 750 12 714 -15 q 678 -42 661 -88 q 643 -135 643 -192 l 643 -192 q 643 -289 688 -340 q 733 -392 806 -392 l 806 -392 q 849 -392 881 -372 q 913 -353 935 -321 q 956 -289 966 -249 l 966 -249 l 949 -238 q 939 -264 921 -288 q 903 -312 877 -328 q 850 -345 815 -345 l 815 -345 q 755 -345 726 -304 q 697 -264 697 -193 l 697 -193 q 697 -147 708 -111 q 719 -75 744 -55 q 768 -35 807 -35 l 807 -35 q 846 -35 873 -56 q 900 -77 915 -123 q 930 -169 930 -245 l 930 -245 q 930 -255 929 -268 q 928 -282 927 -293 l 927 -293 q 926 -299 926 -305 q 926 -312 925 -317 l 925 -317 q 917 -367 892 -412 q 866 -457 820 -485 q 773 -514 700 -514 l 700 -514 q 661 -514 631 -504 q 601 -494 578 -474 l 578 -474 q 561 -458 549 -435 q 536 -413 530 -381 q 524 -349 524 -303 l 524 -303 l 524 -233 l 488 -409 q 501 -455 528 -489 q 555 -524 598 -543 q 640 -562 699 -562 l 699 -562 q 769 -562 823 -538 q 876 -515 912 -472 q 947 -429 965 -370 q 983 -312 983 -241 l 983 -241 q 983 -149 960 -93 q 937 -37 898 -12 q 858 12 806 12 z"},"എ":{"ha":1105,"x_min":34,"x_max":1060,"o":"m 199 -337 l 199 -337 q 252 -337 289 -314 q 326 -292 345 -254 q 364 -216 364 -169 l 364 -169 q 364 -125 349 -90 q 334 -55 311 -34 l 311 -34 l 303 -47 l 758 -47 l 758 0 l 282 0 l 261 -36 q 285 -62 298 -92 q 310 -123 310 -162 l 310 -162 q 310 -222 281 -255 q 251 -289 199 -289 l 199 -289 q 164 -289 140 -272 q 115 -256 102 -228 q 88 -201 88 -166 l 88 -166 q 88 -122 105 -89 q 121 -56 151 -29 l 151 -29 l 117 7 q 81 -26 58 -67 q 34 -109 34 -167 l 34 -167 q 34 -216 55 -254 q 75 -293 113 -315 q 150 -337 199 -337 z m 785 -562 l 785 -562 q 854 -562 906 -535 q 957 -509 992 -459 q 1026 -409 1043 -339 q 1060 -269 1060 -181 l 1060 -181 q 1060 -105 1045 -31 q 1029 42 998 108 q 967 174 920 228 l 920 228 l 878 196 q 920 147 948 88 q 975 29 990 -38 q 1004 -106 1004 -181 l 1004 -181 q 1004 -248 993 -308 q 981 -368 955 -414 q 929 -461 887 -487 q 845 -514 783 -514 l 783 -514 q 711 -514 661 -469 q 610 -424 584 -340 q 558 -257 558 -140 l 558 -140 q 558 -111 559 -85 q 560 -59 562 -35 l 562 -35 q 562 -32 563 -28 q 563 -24 563 -20 l 563 -20 q 569 53 586 97 q 603 141 629 161 q 654 181 684 181 l 684 181 q 710 181 724 167 l 724 167 q 736 156 741 136 q 746 115 746 81 l 746 81 l 746 -411 l 801 -411 l 801 71 q 801 119 793 150 q 784 180 764 199 l 764 199 q 751 212 732 220 q 713 228 686 228 l 686 228 q 632 228 591 192 q 549 155 526 73 q 502 -9 502 -143 l 502 -143 q 502 -242 521 -320 q 540 -398 577 -452 q 614 -506 667 -534 q 719 -562 785 -562 z"},"ഏ":{"ha":1105,"x_min":34,"x_max":1073,"o":"m 199 -337 l 199 -337 q 252 -337 289 -314 q 326 -292 345 -254 q 364 -216 364 -169 l 364 -169 q 364 -125 349 -90 q 334 -55 311 -34 l 311 -34 l 303 -47 l 758 -47 l 758 0 l 282 0 l 261 -36 q 285 -62 298 -92 q 310 -123 310 -162 l 310 -162 q 310 -222 281 -255 q 251 -289 199 -289 l 199 -289 q 164 -289 140 -272 q 115 -256 102 -228 q 88 -201 88 -166 l 88 -166 q 88 -122 105 -89 q 121 -57 151 -29 l 151 -29 l 117 7 q 81 -26 58 -67 q 34 -109 34 -167 l 34 -167 q 34 -216 55 -254 q 75 -293 113 -315 q 150 -337 199 -337 z m 824 -562 l 824 -562 q 887 -562 933 -543 q 978 -525 1007 -493 q 1036 -462 1050 -421 q 1064 -381 1064 -336 l 1064 -336 q 1064 -284 1047 -244 q 1030 -205 999 -178 q 968 -151 923 -136 l 923 -136 l 924 -144 q 990 -131 1032 -85 q 1073 -39 1073 40 l 1073 40 q 1073 105 1052 147 q 1030 189 993 209 q 955 228 905 228 l 905 228 q 887 228 868 226 q 849 224 835 220 l 835 220 l 846 174 q 858 177 873 179 q 888 180 902 180 l 902 180 q 937 180 963 166 q 989 151 1003 121 q 1016 90 1016 40 l 1016 40 q 1016 -27 979 -69 q 942 -111 870 -113 l 870 -113 l 870 -160 q 912 -171 943 -192 q 974 -213 991 -248 q 1007 -284 1007 -336 l 1007 -336 q 1007 -383 989 -423 q 970 -464 930 -489 q 889 -514 823 -514 l 823 -514 q 732 -514 673 -467 q 614 -420 586 -336 q 558 -252 558 -140 l 558 -140 q 558 -111 559 -84 q 560 -58 562 -35 l 562 -35 q 562 -32 563 -28 q 563 -24 563 -20 l 563 -20 q 569 53 586 97 q 603 141 629 161 q 654 181 684 181 l 684 181 q 710 181 724 167 l 724 167 q 736 156 741 136 q 746 115 746 81 l 746 81 l 746 -411 l 801 -411 l 801 71 q 801 119 793 150 q 784 180 764 199 l 764 199 q 751 212 732 220 q 713 228 686 228 l 686 228 q 632 228 591 192 q 549 155 526 73 q 502 -9 502 -143 l 502 -143 q 502 -239 523 -316 q 543 -393 584 -448 q 624 -503 685 -532 q 745 -562 824 -562 z"},"ഐ":{"ha":1732,"x_min":40,"x_max":1687,"o":"m 207 12 l 207 12 q 162 12 124 -11 q 85 -35 63 -88 q 40 -142 40 -230 l 40 -230 q 40 -309 62 -370 q 84 -432 124 -475 q 163 -518 215 -540 q 267 -562 326 -562 l 326 -562 q 391 -562 440 -541 q 488 -520 521 -482 q 553 -445 569 -394 q 585 -343 585 -283 l 585 -283 q 585 -210 566 -155 q 547 -101 515 -61 q 483 -22 445 8 l 445 8 l 411 -32 q 442 -56 469 -89 q 495 -122 512 -168 q 528 -215 528 -278 l 528 -278 q 528 -348 506 -401 q 483 -454 438 -484 q 392 -514 324 -514 l 324 -514 q 259 -514 207 -478 q 154 -443 123 -379 q 92 -315 92 -228 l 92 -228 q 92 -160 107 -117 q 121 -75 147 -55 q 172 -35 207 -35 l 207 -35 q 232 -35 252 -47 q 272 -59 284 -85 q 295 -111 295 -154 l 295 -154 q 295 -207 271 -237 q 246 -267 200 -267 l 200 -267 q 161 -267 129 -248 q 96 -229 72 -200 l 72 -200 l 59 -241 q 90 -276 129 -295 q 167 -315 208 -315 l 208 -315 q 249 -315 281 -297 q 312 -280 331 -244 q 349 -209 349 -156 l 349 -156 q 349 -100 331 -62 q 312 -25 281 -6 q 249 12 207 12 z m 826 -337 l 826 -337 q 879 -337 916 -314 q 953 -292 972 -254 q 991 -216 991 -169 l 991 -169 q 991 -125 976 -90 q 961 -55 938 -34 l 938 -34 l 930 -47 l 1385 -47 l 1385 0 l 909 0 l 888 -36 q 912 -62 925 -92 q 937 -123 937 -162 l 937 -162 q 937 -222 908 -255 q 878 -289 826 -289 l 826 -289 q 791 -289 767 -272 q 742 -256 729 -228 q 715 -201 715 -166 l 715 -166 q 715 -122 732 -89 q 748 -56 778 -29 l 778 -29 l 744 7 q 708 -26 685 -67 q 661 -109 661 -167 l 661 -167 q 661 -216 682 -254 q 702 -293 740 -315 q 777 -337 826 -337 z m 1412 -562 l 1412 -562 q 1481 -562 1533 -535 q 1584 -509 1619 -459 q 1653 -409 1670 -339 q 1687 -269 1687 -181 l 1687 -181 q 1687 -105 1672 -31 q 1656 42 1625 108 q 1594 174 1547 228 l 1547 228 l 1505 196 q 1547 147 1575 88 q 1602 29 1617 -38 q 1631 -106 1631 -181 l 1631 -181 q 1631 -248 1620 -308 q 1608 -368 1582 -414 q 1556 -461 1514 -487 q 1472 -514 1410 -514 l 1410 -514 q 1338 -514 1288 -469 q 1237 -424 1211 -340 q 1185 -257 1185 -140 l 1185 -140 q 1185 -111 1186 -85 q 1187 -59 1189 -35 l 1189 -35 q 1189 -32 1190 -28 q 1190 -24 1190 -20 l 1190 -20 q 1196 53 1213 97 q 1230 141 1256 161 q 1281 181 1311 181 l 1311 181 q 1337 181 1351 167 l 1351 167 q 1363 156 1368 136 q 1373 115 1373 81 l 1373 81 l 1373 -411 l 1428 -411 l 1428 71 q 1428 119 1420 150 q 1411 180 1391 199 l 1391 199 q 1378 212 1359 220 q 1340 228 1313 228 l 1313 228 q 1259 228 1218 192 q 1176 155 1153 73 q 1129 -9 1129 -143 l 1129 -143 q 1129 -242 1148 -320 q 1167 -398 1204 -452 q 1241 -506 1294 -534 q 1346 -562 1412 -562 z"},"ഒ":{"ha":664,"x_min":41,"x_max":626,"o":"m 396 -562 l 396 -562 q 476 -562 524 -540 q 572 -518 594 -481 q 616 -445 616 -401 l 616 -401 q 616 -370 605 -343 q 593 -316 567 -297 q 540 -278 495 -270 l 495 -270 l 493 -277 q 557 -268 592 -230 q 626 -192 626 -136 l 626 -136 q 626 -67 586 -28 q 546 11 473 11 l 473 11 q 449 11 426 8 q 403 4 386 0 l 386 0 l 398 -46 q 415 -41 432 -38 q 449 -36 466 -36 l 466 -36 q 518 -36 544 -60 q 570 -85 570 -136 l 570 -136 q 570 -164 561 -184 q 551 -205 532 -219 l 532 -219 q 514 -234 489 -241 q 463 -249 424 -249 l 424 -249 l 412 -249 l 412 -297 l 426 -297 q 464 -297 491 -305 q 518 -313 535 -329 l 535 -329 q 548 -342 555 -359 q 561 -377 561 -399 l 561 -399 q 561 -451 521 -482 q 480 -514 395 -514 l 395 -514 q 323 -514 267 -491 q 210 -469 172 -430 q 133 -392 113 -341 q 93 -290 93 -231 l 93 -231 l 93 -221 q 93 -157 107 -116 q 121 -75 147 -55 q 173 -35 208 -35 l 208 -35 q 233 -35 253 -47 q 272 -59 284 -85 q 296 -111 296 -153 l 296 -153 q 296 -207 272 -237 q 247 -267 201 -267 l 201 -267 q 164 -267 133 -249 q 102 -231 78 -204 l 78 -204 l 72 -252 q 102 -282 137 -298 q 172 -315 209 -315 l 209 -315 q 250 -315 282 -297 q 313 -280 332 -244 q 350 -209 350 -156 l 350 -156 q 350 -100 332 -62 q 313 -25 282 -6 q 250 12 208 12 l 208 12 q 162 12 124 -11 q 86 -35 64 -87 q 41 -140 41 -225 l 41 -225 q 41 -297 65 -358 q 88 -420 133 -466 q 178 -512 245 -537 q 311 -562 396 -562 z"},"ഓ":{"ha":1105,"x_min":41,"x_max":1062,"o":"m 396 -562 l 396 -562 q 476 -562 524 -540 q 572 -518 594 -481 q 616 -445 616 -401 l 616 -401 q 616 -370 605 -343 q 593 -316 567 -297 q 540 -278 495 -270 l 495 -270 l 493 -277 q 557 -268 592 -230 q 626 -192 626 -136 l 626 -136 q 626 -67 586 -28 q 546 11 473 11 l 473 11 q 449 11 426 8 q 403 4 386 0 l 386 0 l 398 -46 q 415 -41 432 -38 q 449 -36 466 -36 l 466 -36 q 518 -36 544 -60 q 570 -85 570 -136 l 570 -136 q 570 -164 561 -184 q 551 -205 532 -219 l 532 -219 q 514 -234 489 -241 q 463 -249 424 -249 l 424 -249 l 412 -249 l 412 -297 l 426 -297 q 464 -297 491 -305 q 518 -313 535 -329 l 535 -329 q 548 -342 555 -359 q 561 -377 561 -399 l 561 -399 q 561 -451 521 -482 q 480 -514 395 -514 l 395 -514 q 323 -514 267 -491 q 210 -469 172 -430 q 133 -392 113 -341 q 93 -290 93 -231 l 93 -231 l 93 -221 q 93 -157 107 -116 q 121 -75 147 -55 q 173 -35 208 -35 l 208 -35 q 233 -35 253 -47 q 272 -59 284 -85 q 296 -111 296 -153 l 296 -153 q 296 -207 272 -237 q 247 -267 201 -267 l 201 -267 q 164 -267 133 -249 q 102 -231 78 -204 l 78 -204 l 72 -252 q 102 -282 137 -298 q 172 -315 209 -315 l 209 -315 q 250 -315 282 -297 q 313 -280 332 -244 q 350 -209 350 -156 l 350 -156 q 350 -100 332 -62 q 313 -25 282 -6 q 250 12 208 12 l 208 12 q 162 12 124 -11 q 86 -35 64 -87 q 41 -140 41 -225 l 41 -225 q 41 -297 65 -358 q 88 -420 133 -466 q 178 -512 245 -537 q 311 -562 396 -562 z m 1062 -277 l 1062 -277 q 1062 -214 1052 -161 q 1041 -108 1019 -69 q 996 -31 959 -9 q 922 12 869 12 l 869 12 q 826 12 795 -2 q 763 -17 742 -42 q 720 -67 707 -99 q 693 -131 685 -165 l 685 -165 l 741 -176 q 749 -140 764 -108 q 778 -76 803 -55 q 828 -35 867 -35 l 867 -35 q 918 -35 948 -64 q 978 -94 992 -148 q 1006 -202 1006 -277 l 1006 -277 q 1006 -350 992 -403 q 978 -457 948 -486 q 918 -515 871 -515 l 871 -515 q 834 -515 809 -495 q 783 -475 768 -443 q 752 -412 743 -376 l 743 -376 l 688 -387 q 697 -421 712 -452 q 726 -484 749 -508 q 771 -533 802 -547 q 833 -562 875 -562 l 875 -562 q 926 -562 962 -540 q 997 -518 1020 -479 q 1042 -440 1052 -388 q 1062 -337 1062 -277 z"},"ഔ":{"ha":1328,"x_min":41,"x_max":1285,"o":"m 396 -562 l 396 -562 q 476 -562 524 -540 q 572 -518 594 -481 q 616 -445 616 -401 l 616 -401 q 616 -370 605 -343 q 593 -316 567 -297 q 540 -278 495 -270 l 495 -270 l 493 -277 q 557 -268 592 -230 q 626 -192 626 -136 l 626 -136 q 626 -67 586 -28 q 546 11 473 11 l 473 11 q 449 11 426 8 q 403 4 386 0 l 386 0 l 398 -46 q 415 -41 432 -38 q 449 -36 466 -36 l 466 -36 q 518 -36 544 -60 q 570 -85 570 -136 l 570 -136 q 570 -164 561 -184 q 551 -205 532 -219 l 532 -219 q 514 -234 489 -241 q 463 -249 424 -249 l 424 -249 l 412 -249 l 412 -297 l 426 -297 q 464 -297 491 -305 q 518 -313 535 -329 l 535 -329 q 548 -342 555 -359 q 561 -377 561 -399 l 561 -399 q 561 -451 521 -482 q 480 -514 395 -514 l 395 -514 q 323 -514 267 -491 q 210 -469 172 -430 q 133 -392 113 -341 q 93 -290 93 -231 l 93 -231 l 93 -221 q 93 -157 107 -116 q 121 -75 147 -55 q 173 -35 208 -35 l 208 -35 q 233 -35 253 -47 q 272 -59 284 -85 q 296 -111 296 -153 l 296 -153 q 296 -207 272 -237 q 247 -267 201 -267 l 201 -267 q 164 -267 133 -249 q 102 -231 78 -204 l 78 -204 l 72 -252 q 102 -282 137 -298 q 172 -315 209 -315 l 209 -315 q 250 -315 282 -297 q 313 -280 332 -244 q 350 -209 350 -156 l 350 -156 q 350 -100 332 -62 q 313 -25 282 -6 q 250 12 208 12 l 208 12 q 162 12 124 -11 q 86 -35 64 -87 q 41 -140 41 -225 l 41 -225 q 41 -297 65 -358 q 88 -420 133 -466 q 178 -512 245 -537 q 311 -562 396 -562 z m 1113 -562 l 1113 -562 q 1168 -562 1207 -531 q 1245 -500 1266 -442 q 1286 -384 1286 -303 l 1286 -303 q 1286 -198 1259 -128 q 1232 -58 1178 -23 q 1124 12 1042 12 l 1042 12 q 988 12 945 2 q 901 -9 858 -31 l 858 -31 l 885 -76 q 922 -57 958 -47 q 993 -37 1040 -37 l 1040 -37 q 1112 -37 1154 -69 q 1195 -101 1212 -160 q 1229 -220 1229 -303 l 1229 -303 q 1229 -410 1197 -462 q 1165 -514 1111 -514 l 1111 -514 q 1085 -514 1068 -504 q 1050 -495 1039 -479 l 1039 -479 q 1023 -457 1018 -424 q 1013 -392 1013 -344 l 1013 -344 l 1013 -257 l 958 -257 l 958 -343 q 958 -393 952 -426 q 945 -460 930 -479 l 930 -479 q 918 -497 900 -505 q 882 -514 858 -514 l 858 -514 q 806 -514 780 -476 q 753 -438 753 -381 l 753 -381 q 753 -348 758 -320 q 762 -292 770 -264 l 770 -264 l 718 -253 q 709 -283 704 -317 q 698 -351 698 -384 l 698 -384 q 698 -434 716 -474 q 734 -514 769 -538 q 804 -562 856 -562 l 856 -562 q 906 -562 940 -536 q 973 -511 989 -454 l 989 -454 l 979 -453 q 996 -511 1031 -536 q 1066 -562 1113 -562 z"},"ക":{"ha":918,"x_min":34,"x_max":884,"o":"m 192 12 l 192 12 q 117 12 76 -29 q 34 -71 34 -147 l 34 -147 q 34 -190 52 -221 q 69 -252 98 -272 l 98 -272 q 122 -288 151 -297 q 180 -307 219 -311 q 257 -315 310 -315 l 310 -315 l 617 -315 q 696 -315 744 -305 q 791 -295 825 -270 l 825 -270 q 852 -251 868 -220 q 884 -189 884 -145 l 884 -145 q 884 -73 844 -30 q 804 12 729 12 l 729 12 q 709 12 688 10 q 667 7 645 1 l 645 1 l 657 -45 q 674 -40 691 -38 q 707 -36 724 -36 l 724 -36 q 779 -36 804 -64 q 829 -93 829 -144 l 829 -144 q 829 -176 818 -198 q 807 -220 788 -234 l 788 -234 q 759 -254 719 -260 q 679 -267 615 -267 l 615 -267 l 304 -267 q 239 -267 199 -260 q 158 -254 129 -233 l 129 -233 q 110 -219 100 -197 q 89 -176 89 -146 l 89 -146 q 89 -106 103 -81 q 117 -57 142 -46 q 166 -36 195 -36 l 195 -36 q 231 -36 261 -47 q 290 -58 326 -85 l 326 -85 l 357 -48 q 331 -28 306 -14 q 280 -1 253 6 q 225 12 192 12 z m 462 -562 l 462 -562 q 529 -562 573 -527 q 616 -493 637 -429 q 658 -365 658 -277 l 658 -277 q 658 -177 634 -113 q 609 -49 565 -18 q 521 12 461 12 l 461 12 q 414 12 379 -5 q 344 -23 320 -55 l 320 -55 q 290 -94 277 -151 q 264 -209 264 -277 l 264 -277 q 264 -415 316 -488 q 368 -562 462 -562 z m 462 -515 l 462 -515 q 390 -515 354 -455 q 318 -396 318 -276 l 318 -276 q 318 -192 335 -139 q 351 -86 383 -60 q 415 -35 459 -35 l 459 -35 q 505 -35 537 -59 q 569 -84 586 -137 q 603 -191 603 -277 l 603 -277 q 603 -361 587 -413 q 571 -466 540 -490 q 508 -515 462 -515 z"},"ഖ":{"ha":884,"x_min":41,"x_max":814,"o":"m 331 -562 l 331 -562 q 395 -562 444 -541 q 492 -520 524 -482 q 556 -445 573 -394 q 589 -343 589 -283 l 589 -283 q 589 -220 574 -173 q 559 -127 537 -93 q 514 -60 490 -37 l 490 -37 l 493 0 l 448 0 l 424 -38 q 450 -61 475 -93 q 500 -126 516 -171 q 532 -216 532 -278 l 532 -278 q 532 -348 509 -401 q 486 -454 441 -484 q 396 -514 329 -514 l 329 -514 q 259 -514 206 -477 q 153 -440 124 -377 q 94 -314 94 -234 l 94 -234 l 94 -220 q 94 -157 108 -115 q 122 -74 148 -54 q 174 -35 209 -35 l 209 -35 q 234 -35 254 -47 q 273 -59 285 -85 q 296 -111 296 -154 l 296 -154 q 296 -207 272 -237 q 247 -267 201 -267 l 201 -267 q 165 -267 134 -249 q 102 -231 78 -204 l 78 -204 l 72 -252 q 102 -282 138 -298 q 173 -315 209 -315 l 209 -315 q 250 -315 282 -297 q 314 -280 332 -244 q 350 -209 350 -156 l 350 -156 q 350 -100 332 -62 q 314 -25 282 -6 q 250 12 208 12 l 208 12 q 163 12 125 -12 q 87 -36 64 -88 q 41 -141 41 -227 l 41 -227 q 41 -332 79 -407 q 117 -482 183 -522 q 248 -562 331 -562 z m 759 -550 l 814 -550 l 814 0 l 468 0 l 474 -47 l 759 -47 l 759 -550 z"},"ഗ":{"ha":782,"x_min":41,"x_max":741,"o":"m 541 -562 l 541 -562 q 603 -562 648 -529 q 693 -497 717 -437 q 741 -378 741 -295 l 741 -295 q 741 -223 724 -168 q 707 -113 677 -70 q 646 -28 607 8 l 607 8 l 570 -30 q 603 -60 629 -96 q 655 -133 670 -181 q 685 -229 685 -294 l 685 -294 q 685 -362 668 -411 q 650 -461 618 -487 q 586 -514 541 -514 l 541 -514 q 507 -514 486 -503 q 465 -493 452 -475 l 452 -475 q 432 -448 426 -405 q 419 -362 419 -289 l 419 -289 l 419 -230 q 419 -184 415 -148 q 410 -113 400 -86 q 389 -60 370 -38 l 370 -38 q 349 -15 318 -1 q 286 12 242 12 l 242 12 q 180 12 135 -20 q 89 -52 65 -112 q 41 -172 41 -255 l 41 -255 q 41 -329 58 -384 q 75 -439 106 -481 q 136 -524 175 -560 l 175 -560 l 212 -521 q 180 -492 154 -455 q 127 -418 112 -369 q 97 -321 97 -256 l 97 -256 q 97 -188 115 -138 q 132 -89 165 -62 q 197 -36 240 -36 l 240 -36 q 276 -36 297 -46 q 317 -57 331 -75 l 331 -75 q 351 -102 357 -145 q 363 -189 363 -263 l 363 -263 l 363 -320 q 363 -389 374 -434 q 384 -479 411 -510 l 411 -510 q 433 -535 465 -548 q 496 -562 541 -562 z"},"ഘ":{"ha":1158,"x_min":34,"x_max":1088,"o":"m 198 -562 l 198 -562 q 252 -562 289 -539 q 325 -517 345 -479 q 364 -442 364 -396 l 364 -396 q 364 -353 350 -318 q 335 -284 312 -263 l 312 -263 l 305 -277 l 486 -277 l 494 -229 l 283 -229 l 262 -266 q 285 -290 298 -320 q 310 -351 310 -390 l 310 -390 q 310 -449 281 -482 q 251 -515 199 -515 l 199 -515 q 164 -515 139 -498 q 114 -482 101 -454 q 88 -427 88 -393 l 88 -393 q 88 -349 104 -317 q 119 -285 148 -258 l 148 -258 l 115 -222 q 78 -255 56 -296 q 34 -337 34 -394 l 34 -394 q 34 -443 55 -481 q 75 -519 112 -540 q 149 -562 198 -562 z m 1033 -550 l 1088 -550 l 1088 0 l 465 0 l 465 -323 q 465 -395 480 -438 q 495 -481 523 -509 l 523 -509 q 549 -535 586 -548 q 623 -562 671 -562 l 671 -562 q 719 -562 755 -549 q 791 -537 815 -513 l 815 -513 q 845 -485 859 -440 q 873 -395 873 -331 l 873 -331 l 873 -229 l 520 -229 l 520 -47 l 1033 -47 l 1033 -550 z m 670 -515 l 670 -515 q 594 -515 557 -470 q 520 -426 520 -325 l 520 -325 l 520 -277 l 818 -277 l 818 -324 q 818 -427 783 -471 q 747 -515 670 -515 z"},"ങ":{"ha":933,"x_min":44,"x_max":895,"o":"m 314 -562 l 314 -562 q 392 -562 439 -526 q 485 -491 507 -424 l 507 -424 l 513 -368 l 524 -238 l 524 0 l 469 0 l 469 -315 q 469 -381 457 -419 q 444 -457 419 -480 l 419 -480 q 399 -497 375 -505 q 350 -514 313 -514 l 313 -514 q 247 -514 198 -478 q 149 -442 123 -380 q 96 -318 96 -239 l 96 -239 l 96 -225 q 96 -159 110 -117 q 124 -75 150 -55 q 176 -35 211 -35 l 211 -35 q 235 -35 255 -47 q 275 -59 287 -85 q 298 -111 298 -153 l 298 -153 q 298 -207 274 -237 q 249 -267 203 -267 l 203 -267 q 165 -267 133 -248 q 100 -229 75 -199 l 75 -199 l 63 -241 q 93 -276 132 -295 q 171 -315 211 -315 l 211 -315 q 252 -315 284 -297 q 315 -280 334 -244 q 352 -209 352 -156 l 352 -156 q 352 -100 334 -62 q 316 -25 284 -6 q 252 12 210 12 l 210 12 q 165 12 127 -12 q 89 -36 67 -89 q 44 -143 44 -233 l 44 -233 q 44 -338 79 -411 q 113 -485 174 -523 q 235 -562 314 -562 z m 707 -562 l 707 -562 q 764 -562 804 -542 q 844 -522 865 -488 q 885 -454 885 -411 l 885 -411 q 885 -376 874 -347 q 862 -318 836 -298 q 809 -279 764 -270 l 764 -270 l 762 -277 q 826 -268 861 -230 q 895 -192 895 -136 l 895 -136 q 895 -67 855 -28 q 815 11 742 11 l 742 11 q 717 11 695 8 q 673 4 656 0 l 656 0 l 667 -46 q 685 -41 702 -38 q 718 -36 735 -36 l 735 -36 q 786 -36 813 -59 q 839 -83 839 -136 l 839 -136 q 839 -164 830 -184 q 820 -205 801 -219 l 801 -219 q 783 -234 757 -241 q 731 -249 688 -249 l 688 -249 l 672 -249 l 672 -297 l 690 -297 q 731 -297 759 -304 q 786 -312 803 -330 l 803 -330 q 816 -343 823 -361 q 830 -380 830 -407 l 830 -407 q 830 -458 797 -486 q 763 -514 706 -514 l 706 -514 q 665 -514 634 -501 q 603 -489 580 -465 l 580 -465 q 562 -447 550 -422 q 537 -398 531 -362 q 524 -326 524 -274 l 524 -274 l 524 -157 l 483 -158 l 480 -283 l 492 -394 q 503 -445 532 -482 q 560 -520 605 -541 q 650 -562 707 -562 z"},"ച":{"ha":820,"x_min":16,"x_max":750,"o":"m 695 -550 l 750 -550 l 750 0 l 16 0 l 16 -47 l 375 -47 l 341 -35 q 367 -59 388 -95 q 409 -131 409 -184 l 409 -184 q 409 -242 382 -274 q 355 -307 306 -307 l 306 -307 q 256 -307 229 -276 q 202 -245 202 -189 l 202 -189 q 202 -176 204 -164 q 205 -152 207 -142 l 207 -142 l 154 -134 q 151 -146 149 -161 q 147 -177 147 -194 l 147 -194 q 147 -269 192 -312 q 237 -355 307 -355 l 307 -355 q 347 -355 376 -342 q 405 -329 425 -306 q 444 -283 454 -252 q 464 -222 464 -187 l 464 -187 q 464 -151 455 -122 q 446 -94 432 -72 q 417 -50 402 -33 l 402 -33 l 385 -47 l 695 -47 l 695 -550 z"},"ഛ":{"ha":1187,"x_min":16,"x_max":1146,"o":"m 307 -355 l 307 -355 q 347 -355 376 -342 q 405 -329 425 -306 q 444 -283 454 -252 q 464 -222 464 -187 l 464 -187 q 464 -151 455 -122 q 446 -94 432 -72 q 417 -50 402 -33 l 402 -33 l 385 -47 l 699 -47 l 708 0 l 16 0 l 16 -47 l 375 -47 l 341 -35 q 367 -59 388 -95 q 409 -131 409 -184 l 409 -184 q 409 -242 382 -274 q 355 -307 306 -307 l 306 -307 q 256 -307 229 -276 q 202 -245 202 -189 l 202 -189 q 202 -176 204 -164 q 205 -152 207 -142 l 207 -142 l 154 -134 q 151 -146 149 -161 q 147 -177 147 -194 l 147 -194 q 147 -269 192 -312 q 237 -355 307 -355 z m 861 -562 l 861 -562 q 932 -562 986 -538 q 1039 -515 1075 -472 q 1110 -429 1128 -370 q 1146 -312 1146 -241 l 1146 -241 q 1146 -149 1124 -93 q 1101 -37 1061 -12 q 1021 12 970 12 l 970 12 q 913 12 877 -15 q 841 -42 824 -88 q 806 -135 806 -192 l 806 -192 q 806 -289 851 -340 q 896 -392 969 -392 l 969 -392 q 1012 -392 1044 -372 q 1076 -353 1098 -321 q 1119 -289 1130 -249 l 1130 -249 l 1112 -238 q 1103 -264 1085 -288 q 1066 -312 1040 -328 q 1013 -345 978 -345 l 978 -345 q 918 -345 889 -304 q 860 -264 860 -193 l 860 -193 q 860 -147 871 -111 q 882 -75 907 -55 q 931 -35 971 -35 l 971 -35 q 1009 -35 1037 -56 q 1064 -77 1079 -123 q 1093 -169 1093 -245 l 1093 -245 q 1093 -252 1092 -268 q 1091 -284 1089 -297 l 1089 -297 q 1089 -301 1090 -307 q 1090 -313 1088 -317 l 1088 -317 q 1080 -369 1054 -413 q 1027 -458 980 -486 q 933 -514 862 -514 l 862 -514 q 796 -514 746 -485 q 696 -457 668 -404 q 640 -352 640 -279 l 640 -279 q 640 -221 654 -177 q 668 -133 693 -99 q 717 -65 748 -38 l 748 -38 l 723 0 l 694 0 l 684 -34 q 661 -57 638 -90 q 615 -124 600 -171 q 584 -219 584 -282 l 584 -282 q 584 -338 601 -388 q 618 -438 652 -477 q 686 -517 738 -539 q 790 -562 861 -562 z"},"ജ":{"ha":826,"x_min":36,"x_max":785,"o":"m 262 -562 l 262 -562 q 313 -562 351 -548 q 388 -535 415 -508 q 441 -481 459 -437 l 459 -437 l 438 -432 q 458 -500 500 -531 q 542 -562 604 -562 l 604 -562 q 666 -562 707 -536 q 747 -510 766 -468 q 785 -426 785 -380 l 785 -380 q 785 -340 774 -307 q 763 -275 741 -251 q 718 -228 681 -212 l 681 -212 l 601 -198 l 555 -188 q 532 -183 500 -180 q 467 -177 427 -177 l 427 -177 l 223 -177 q 179 -177 155 -172 q 130 -168 115 -157 l 115 -157 q 102 -149 96 -137 q 90 -125 90 -108 l 90 -108 q 90 -81 102 -65 q 114 -49 134 -41 q 154 -34 177 -34 l 177 -34 q 214 -34 247 -42 q 280 -51 314 -67 q 348 -83 388 -107 l 388 -107 q 420 -127 444 -141 q 467 -155 485 -164 q 503 -174 520 -181 q 536 -189 553 -195 l 553 -195 q 567 -201 579 -206 q 591 -212 603 -216 q 614 -220 625 -222 q 636 -225 646 -225 l 646 -225 q 678 -225 705 -213 q 731 -202 747 -177 q 763 -152 763 -111 l 763 -111 q 763 -50 728 -19 q 693 12 639 12 l 639 12 q 592 12 565 -6 q 538 -25 526 -53 q 514 -82 514 -113 l 514 -113 q 514 -145 527 -166 q 539 -188 565 -208 l 565 -208 l 601 -213 q 591 -204 582 -190 q 572 -177 566 -159 q 560 -141 560 -117 l 560 -117 q 560 -75 581 -53 q 601 -31 638 -31 l 638 -31 q 675 -31 694 -52 q 712 -74 712 -112 l 712 -112 q 712 -142 702 -159 q 691 -176 674 -183 q 656 -191 636 -191 l 636 -191 q 615 -191 595 -183 q 575 -175 557 -160 l 557 -160 l 550 -165 q 537 -153 521 -140 q 505 -127 483 -112 q 461 -97 430 -77 l 430 -77 q 381 -47 340 -27 q 299 -7 260 3 q 221 12 176 12 l 176 12 q 142 12 110 1 q 77 -11 57 -37 q 36 -63 36 -108 l 36 -108 q 36 -134 46 -155 q 56 -177 77 -191 l 77 -191 q 98 -208 129 -215 q 159 -223 214 -223 l 214 -223 l 496 -223 q 545 -223 581 -227 q 616 -231 641 -240 q 666 -250 684 -264 l 684 -264 q 708 -283 719 -311 q 730 -339 730 -377 l 730 -377 q 730 -410 718 -441 q 705 -473 677 -494 q 648 -515 600 -515 l 600 -515 q 571 -515 550 -507 q 529 -499 515 -484 l 515 -484 q 491 -460 483 -422 q 474 -384 474 -329 l 474 -329 l 474 -259 l 421 -259 l 421 -331 q 421 -382 410 -421 q 399 -460 369 -485 l 369 -485 q 350 -500 325 -508 q 299 -516 260 -516 l 260 -516 q 205 -516 166 -499 q 127 -483 104 -449 l 104 -449 q 102 -446 101 -441 q 100 -436 98 -431 l 98 -431 q 94 -419 92 -407 q 90 -395 90 -381 l 90 -381 q 90 -328 112 -306 q 134 -285 168 -285 l 168 -285 q 197 -285 213 -297 q 228 -309 235 -327 q 241 -346 241 -365 l 241 -365 q 241 -401 223 -420 q 205 -440 167 -440 l 167 -440 q 136 -440 110 -426 q 84 -413 63 -391 l 63 -391 l 64 -425 q 86 -447 115 -462 q 144 -477 178 -477 l 178 -477 q 218 -477 243 -461 q 268 -446 280 -420 q 292 -395 292 -366 l 292 -366 q 292 -332 279 -304 q 266 -276 239 -259 q 211 -243 169 -243 l 169 -243 q 108 -243 75 -279 q 42 -316 42 -383 l 42 -383 q 42 -433 67 -473 q 92 -514 142 -538 q 191 -562 262 -562 z"},"ഝ":{"ha":1458,"x_min":41,"x_max":1417,"o":"m 581 -562 l 581 -562 q 629 -562 665 -550 q 700 -538 726 -516 l 726 -516 q 765 -483 782 -432 q 799 -381 799 -297 l 799 -297 l 799 -237 q 799 -169 807 -131 q 815 -94 833 -70 l 833 -70 q 847 -54 867 -45 q 887 -36 916 -36 l 916 -36 q 941 -36 960 -44 q 979 -53 993 -68 l 993 -68 q 1013 -91 1022 -128 q 1030 -166 1030 -228 l 1030 -228 l 1030 -550 l 1085 -550 l 1085 -237 q 1085 -176 1093 -137 q 1101 -99 1122 -75 l 1122 -75 q 1137 -56 1159 -46 q 1180 -36 1211 -36 l 1211 -36 q 1259 -36 1292 -66 q 1325 -96 1343 -146 q 1360 -196 1360 -255 l 1360 -255 q 1360 -321 1345 -369 q 1330 -418 1304 -454 q 1278 -490 1245 -518 l 1245 -518 l 1284 -557 q 1321 -522 1351 -481 q 1381 -441 1399 -386 q 1417 -331 1417 -255 l 1417 -255 q 1417 -180 1393 -119 q 1369 -59 1323 -23 q 1276 12 1209 12 l 1209 12 q 1147 12 1110 -19 q 1073 -50 1054 -108 l 1054 -108 l 1061 -109 q 1050 -70 1030 -42 q 1009 -15 980 -1 q 950 12 911 12 l 911 12 q 872 12 843 0 q 813 -13 793 -36 l 793 -36 q 777 -55 766 -77 q 755 -100 750 -135 q 744 -171 744 -225 l 744 -225 l 744 -281 q 744 -335 739 -372 q 733 -410 720 -436 q 707 -462 687 -479 l 687 -479 q 667 -496 640 -506 q 613 -516 577 -516 l 577 -516 q 552 -516 527 -509 q 501 -503 476 -490 l 476 -490 l 458 -479 q 419 -454 391 -412 q 363 -370 348 -318 q 332 -267 332 -211 l 332 -211 q 332 -144 347 -105 q 362 -67 388 -51 q 414 -35 446 -35 l 446 -35 q 478 -35 504 -51 q 529 -68 544 -107 q 559 -146 559 -212 l 559 -212 q 559 -267 543 -319 q 527 -372 498 -414 q 468 -457 427 -482 l 427 -482 l 414 -490 q 391 -503 366 -509 q 340 -515 311 -515 l 311 -515 q 240 -515 193 -483 q 145 -452 122 -398 q 98 -345 98 -279 l 98 -279 q 98 -220 112 -174 q 126 -128 153 -93 q 179 -59 214 -32 l 214 -32 l 180 8 q 144 -19 113 -58 q 81 -97 61 -152 q 41 -207 41 -281 l 41 -281 q 41 -341 59 -392 q 76 -443 110 -481 q 143 -519 193 -540 q 243 -562 307 -562 l 307 -562 q 350 -562 387 -551 q 423 -540 457 -517 l 457 -517 l 473 -504 q 537 -460 576 -383 q 615 -307 615 -212 l 615 -212 q 615 -137 594 -87 q 573 -37 535 -12 q 497 12 446 12 l 446 12 q 394 12 356 -12 q 317 -37 297 -86 q 276 -136 276 -211 l 276 -211 q 276 -273 293 -328 q 310 -383 342 -428 q 373 -473 417 -504 l 417 -504 l 430 -516 q 465 -539 504 -550 q 543 -562 581 -562 z"},"ഞ":{"ha":1270,"x_min":44,"x_max":1229,"o":"m 314 -562 l 314 -562 q 392 -562 439 -526 q 485 -491 507 -424 l 507 -424 l 514 -381 l 524 -240 l 524 0 l 469 0 l 469 -315 q 469 -381 457 -419 q 444 -457 419 -480 l 419 -480 q 399 -497 375 -505 q 351 -514 313 -514 l 313 -514 q 247 -514 198 -478 q 149 -442 123 -380 q 96 -318 96 -239 l 96 -239 l 96 -225 q 96 -159 110 -117 q 124 -75 150 -55 q 176 -35 211 -35 l 211 -35 q 235 -35 255 -47 q 275 -59 287 -85 q 298 -111 298 -153 l 298 -153 q 298 -207 274 -237 q 249 -267 203 -267 l 203 -267 q 165 -267 133 -248 q 100 -229 75 -199 l 75 -199 l 63 -241 q 93 -276 132 -295 q 171 -315 211 -315 l 211 -315 q 252 -315 284 -297 q 315 -280 334 -244 q 352 -209 352 -156 l 352 -156 q 352 -100 334 -62 q 316 -25 284 -6 q 252 12 210 12 l 210 12 q 165 12 127 -12 q 89 -36 67 -89 q 44 -143 44 -233 l 44 -233 q 44 -338 79 -411 q 113 -485 174 -523 q 235 -562 314 -562 z m 687 -562 l 687 -562 q 732 -562 768 -551 q 804 -541 838 -518 l 838 -518 l 854 -505 q 916 -461 955 -384 q 993 -308 993 -212 l 993 -212 q 993 -137 973 -87 q 952 -37 914 -12 q 876 12 824 12 l 824 12 q 772 12 734 -12 q 696 -37 675 -86 q 654 -136 654 -211 l 654 -211 q 654 -273 672 -328 q 690 -383 723 -428 q 756 -473 800 -504 l 800 -504 l 811 -515 q 847 -539 887 -550 q 927 -562 973 -562 l 973 -562 q 1037 -562 1085 -541 q 1132 -520 1165 -482 q 1197 -444 1213 -392 q 1229 -341 1229 -281 l 1229 -281 q 1229 -209 1210 -155 q 1191 -101 1160 -61 q 1128 -22 1089 8 l 1089 8 l 1055 -32 q 1086 -56 1113 -89 q 1139 -122 1156 -168 q 1173 -215 1173 -277 l 1173 -277 q 1173 -345 1150 -398 q 1127 -452 1082 -483 q 1036 -515 968 -515 l 968 -515 q 936 -515 909 -508 q 882 -502 857 -489 l 857 -489 l 840 -478 q 801 -453 772 -411 q 742 -370 727 -318 q 711 -267 711 -211 l 711 -211 q 711 -144 726 -105 q 741 -67 767 -51 q 792 -35 824 -35 l 824 -35 q 856 -35 882 -51 q 907 -68 922 -107 q 937 -146 937 -212 l 937 -212 q 937 -268 922 -320 q 907 -372 879 -414 q 850 -457 810 -482 l 810 -482 l 795 -490 q 781 -499 765 -504 q 748 -510 730 -512 q 712 -515 691 -515 l 691 -515 q 651 -515 624 -505 q 596 -495 577 -476 l 577 -476 q 549 -450 537 -410 q 524 -370 524 -303 l 524 -303 l 524 -40 l 474 -40 l 476 -230 l 488 -418 q 503 -465 530 -497 q 557 -529 596 -545 q 635 -562 687 -562 z"},"ട":{"ha":487,"x_min":19,"x_max":459,"o":"m 239 -562 l 239 -562 q 308 -562 360 -548 q 412 -534 459 -511 l 459 -511 l 429 -467 q 387 -489 342 -501 q 296 -514 239 -514 l 239 -514 q 185 -514 152 -499 q 119 -484 104 -459 q 89 -434 89 -406 l 89 -406 q 89 -380 96 -363 q 103 -346 116 -334 l 116 -334 q 136 -315 170 -309 q 203 -304 249 -304 l 249 -304 l 254 -304 q 315 -304 353 -292 q 390 -280 415 -255 l 415 -255 q 433 -237 443 -211 q 452 -185 452 -151 l 452 -151 q 452 -104 430 -67 q 407 -30 361 -9 q 314 12 243 12 l 243 12 q 178 12 124 -2 q 70 -17 19 -44 l 19 -44 l 48 -87 q 76 -72 106 -60 q 135 -49 169 -42 q 203 -36 244 -36 l 244 -36 q 301 -36 334 -51 q 367 -67 382 -92 q 396 -118 396 -149 l 396 -149 q 396 -175 390 -194 q 383 -214 367 -226 l 367 -226 q 349 -241 321 -248 q 293 -255 245 -255 l 245 -255 l 239 -255 q 179 -256 137 -267 q 95 -278 70 -304 l 70 -304 q 52 -322 43 -347 q 33 -372 33 -405 l 33 -405 q 33 -449 56 -484 q 78 -520 124 -541 q 170 -562 239 -562 z"},"ഠ":{"ha":579,"x_min":41,"x_max":538,"o":"m 290 -562 l 290 -562 q 368 -562 424 -527 q 479 -493 509 -429 q 538 -365 538 -274 l 538 -274 q 538 -186 508 -122 q 478 -58 422 -23 q 366 12 288 12 l 288 12 q 206 12 152 -25 q 97 -62 69 -127 q 41 -192 41 -277 l 41 -277 q 41 -365 71 -429 q 101 -493 157 -527 q 213 -562 290 -562 z m 288 -36 l 288 -36 q 352 -36 395 -66 q 437 -97 459 -151 q 481 -205 481 -276 l 481 -276 q 481 -350 459 -403 q 437 -456 395 -485 q 353 -514 290 -514 l 290 -514 q 199 -514 149 -450 q 98 -387 98 -276 l 98 -276 q 98 -163 147 -99 q 196 -36 288 -36 z"},"ഡ":{"ha":1077,"x_min":41,"x_max":1036,"o":"m 530 12 l 530 12 q 491 12 462 0 q 433 -13 412 -36 l 412 -36 q 396 -55 385 -77 q 374 -100 369 -135 q 363 -171 363 -225 l 363 -225 l 363 -296 q 363 -363 357 -406 q 351 -449 331 -475 l 331 -475 q 317 -493 297 -503 q 276 -514 240 -514 l 240 -514 q 197 -514 165 -487 q 132 -461 115 -411 q 97 -362 97 -294 l 97 -294 q 97 -229 112 -180 q 127 -132 154 -95 q 180 -59 212 -29 l 212 -29 l 175 9 q 136 -27 106 -69 q 75 -112 58 -167 q 41 -222 41 -295 l 41 -295 q 41 -378 65 -438 q 89 -498 135 -530 q 180 -562 243 -562 l 243 -562 q 286 -562 318 -549 q 349 -536 369 -512 l 369 -512 q 389 -490 400 -463 q 410 -437 414 -402 q 418 -367 418 -319 l 418 -319 l 418 -237 q 418 -170 426 -132 q 433 -94 453 -70 l 453 -70 q 466 -54 486 -45 q 506 -36 535 -36 l 535 -36 q 561 -36 580 -44 q 599 -53 612 -68 l 612 -68 q 632 -91 641 -128 q 649 -166 649 -227 l 649 -227 l 649 -550 l 704 -550 l 704 -237 q 704 -176 712 -137 q 720 -99 741 -75 l 741 -75 q 757 -56 778 -46 q 799 -36 830 -36 l 830 -36 q 878 -36 912 -66 q 945 -96 962 -146 q 979 -196 979 -255 l 979 -255 q 979 -321 964 -369 q 949 -418 923 -454 q 897 -490 865 -518 l 865 -518 l 903 -557 q 940 -522 970 -481 q 1000 -441 1018 -386 q 1036 -331 1036 -254 l 1036 -254 q 1036 -180 1012 -119 q 988 -59 942 -23 q 895 12 828 12 l 828 12 q 766 12 730 -19 q 693 -50 673 -108 l 673 -108 l 680 -109 q 664 -49 626 -18 q 588 12 530 12 z"},"ഢ":{"ha":1174,"x_min":41,"x_max":1130,"o":"m 530 12 l 530 12 q 491 12 462 0 q 433 -13 412 -36 l 412 -36 q 396 -55 385 -77 q 374 -100 369 -135 q 363 -171 363 -225 l 363 -225 l 363 -297 q 363 -363 357 -406 q 351 -449 331 -475 l 331 -475 q 317 -493 297 -503 q 276 -514 240 -514 l 240 -514 q 197 -514 165 -487 q 132 -461 115 -411 q 97 -362 97 -294 l 97 -294 q 97 -229 112 -180 q 127 -132 154 -95 q 180 -59 212 -29 l 212 -29 l 175 10 q 136 -27 106 -69 q 75 -112 58 -167 q 41 -222 41 -295 l 41 -295 q 41 -378 65 -438 q 89 -498 135 -530 q 180 -562 243 -562 l 243 -562 q 286 -562 318 -549 q 349 -536 369 -512 l 369 -512 q 389 -490 400 -463 q 410 -437 414 -402 q 418 -367 418 -319 l 418 -319 l 418 -237 q 418 -170 426 -132 q 433 -94 453 -70 l 453 -70 q 466 -54 486 -45 q 506 -36 535 -36 l 535 -36 q 561 -36 580 -44 q 599 -53 612 -68 l 612 -68 q 632 -91 641 -128 q 649 -166 649 -227 l 649 -227 l 649 -550 l 704 -550 l 704 -250 l 680 -109 q 664 -49 626 -18 q 588 12 530 12 z m 965 -562 l 965 -562 q 1010 -562 1048 -538 q 1085 -514 1108 -460 q 1130 -407 1130 -317 l 1130 -317 q 1130 -213 1095 -139 q 1060 -65 999 -26 q 938 12 860 12 l 860 12 q 783 12 737 -22 q 691 -57 669 -121 l 669 -121 l 660 -292 l 660 -529 l 704 -529 l 704 -236 q 704 -169 717 -131 q 729 -93 755 -70 l 755 -70 q 774 -53 799 -44 q 823 -36 860 -36 l 860 -36 q 927 -36 976 -72 q 1025 -108 1052 -170 q 1078 -233 1078 -311 l 1078 -311 l 1078 -325 q 1078 -393 1064 -435 q 1049 -477 1023 -496 q 997 -515 963 -515 l 963 -515 q 938 -515 919 -503 q 899 -491 888 -465 q 876 -440 876 -397 l 876 -397 q 876 -343 900 -313 q 924 -283 971 -283 l 971 -283 q 1010 -283 1042 -302 q 1074 -322 1099 -351 l 1099 -351 l 1111 -309 q 1081 -274 1043 -254 q 1004 -235 963 -235 l 963 -235 q 922 -235 890 -253 q 858 -271 840 -306 q 821 -342 821 -395 l 821 -395 q 821 -450 839 -487 q 857 -525 890 -543 q 922 -562 965 -562 z"},"ണ":{"ha":1203,"x_min":44,"x_max":1162,"o":"m 314 -562 l 314 -562 q 392 -562 436 -529 q 480 -496 503 -438 l 503 -438 l 491 -439 q 511 -498 551 -530 q 590 -562 651 -562 l 651 -562 q 715 -562 754 -531 q 792 -500 807 -441 l 807 -441 l 797 -440 q 820 -502 858 -532 q 896 -562 957 -562 l 957 -562 q 1023 -562 1069 -526 q 1115 -491 1139 -431 q 1162 -371 1162 -296 l 1162 -296 q 1162 -222 1145 -167 q 1128 -112 1098 -70 q 1067 -29 1028 7 l 1028 7 l 991 -31 q 1024 -61 1050 -97 q 1076 -134 1091 -182 q 1106 -230 1106 -295 l 1106 -295 q 1106 -355 1089 -404 q 1071 -454 1038 -484 q 1005 -514 957 -514 l 957 -514 q 926 -514 904 -504 q 882 -495 867 -475 l 867 -475 q 846 -452 838 -413 q 830 -375 830 -312 l 830 -312 l 830 0 l 775 0 l 775 -322 q 775 -383 768 -418 q 760 -453 740 -477 l 740 -477 q 726 -494 704 -504 q 682 -514 650 -514 l 650 -514 q 619 -514 598 -503 q 576 -493 561 -476 l 561 -476 q 540 -451 532 -415 q 524 -379 524 -319 l 524 -319 l 524 0 l 469 0 l 469 -313 q 469 -381 457 -419 q 444 -457 419 -480 l 419 -480 q 399 -497 374 -505 q 349 -514 313 -514 l 313 -514 q 247 -514 198 -478 q 149 -442 123 -380 q 96 -318 96 -239 l 96 -239 l 96 -225 q 96 -159 110 -117 q 124 -75 150 -55 q 176 -35 211 -35 l 211 -35 q 235 -35 255 -47 q 275 -59 287 -85 q 298 -111 298 -153 l 298 -153 q 298 -207 274 -237 q 249 -267 203 -267 l 203 -267 q 165 -267 133 -248 q 100 -229 75 -199 l 75 -199 l 63 -241 q 93 -276 132 -295 q 171 -315 211 -315 l 211 -315 q 252 -315 284 -297 q 315 -280 334 -244 q 352 -209 352 -156 l 352 -156 q 352 -100 334 -62 q 316 -25 284 -6 q 252 12 210 12 l 210 12 q 165 12 127 -12 q 89 -36 67 -89 q 44 -143 44 -233 l 44 -233 q 44 -338 79 -411 q 113 -485 174 -523 q 235 -562 314 -562 z"},"ത":{"ha":892,"x_min":41,"x_max":851,"o":"m 446 12 l 446 12 q 394 12 356 -12 q 317 -37 297 -86 q 276 -136 276 -211 l 276 -211 q 276 -273 294 -328 q 312 -383 345 -428 q 377 -473 421 -504 l 421 -504 l 433 -515 q 469 -539 509 -550 q 549 -562 595 -562 l 595 -562 q 658 -562 706 -541 q 754 -520 786 -482 q 818 -444 835 -392 q 851 -341 851 -281 l 851 -281 q 851 -209 832 -155 q 813 -101 781 -61 q 749 -22 711 8 l 711 8 l 677 -32 q 708 -56 735 -89 q 761 -122 778 -168 q 794 -215 794 -277 l 794 -277 q 794 -346 771 -399 q 748 -453 703 -484 q 658 -515 590 -515 l 590 -515 q 558 -515 531 -508 q 503 -502 479 -489 l 479 -489 l 461 -478 q 422 -453 393 -411 q 364 -370 348 -318 q 332 -267 332 -211 l 332 -211 q 332 -144 347 -105 q 362 -67 388 -51 q 414 -35 446 -35 l 446 -35 q 478 -35 504 -51 q 529 -68 544 -106 q 559 -145 559 -212 l 559 -212 q 559 -267 543 -319 q 527 -372 498 -414 q 468 -457 427 -482 l 427 -482 l 414 -490 q 391 -503 366 -509 q 340 -515 311 -515 l 311 -515 q 240 -515 193 -484 q 145 -453 122 -399 q 98 -345 98 -279 l 98 -279 q 98 -220 112 -174 q 126 -128 153 -93 q 179 -59 214 -32 l 214 -32 l 180 8 q 144 -19 113 -58 q 81 -97 61 -152 q 41 -207 41 -281 l 41 -281 q 41 -341 59 -392 q 76 -443 110 -481 q 143 -519 193 -540 q 243 -562 307 -562 l 307 -562 q 350 -562 387 -551 q 423 -540 457 -517 l 457 -517 l 473 -504 q 537 -460 576 -383 q 615 -307 615 -212 l 615 -212 q 615 -137 594 -87 q 573 -37 535 -12 q 497 12 446 12 z"},"ഥ":{"ha":791,"x_min":70,"x_max":728,"o":"m 70 -550 l 125 -550 l 125 -47 l 342 -47 l 342 0 l 70 0 l 70 -550 z m 518 -562 l 518 -562 q 569 -562 607 -547 q 644 -532 669 -505 l 669 -505 q 702 -472 715 -424 q 728 -376 728 -305 l 728 -305 l 728 0 l 310 0 l 310 -310 q 310 -356 316 -392 q 322 -428 335 -456 q 348 -484 370 -506 l 370 -506 q 395 -532 432 -547 q 469 -562 518 -562 z m 519 -514 l 519 -514 q 483 -514 456 -502 q 428 -491 409 -471 l 409 -471 q 386 -445 376 -404 q 365 -364 365 -294 l 365 -294 l 365 -47 l 674 -47 l 674 -292 q 674 -359 664 -401 q 653 -444 629 -470 l 629 -470 q 610 -491 583 -502 q 556 -514 519 -514 z"},"ദ":{"ha":560,"x_min":51,"x_max":522,"o":"m 331 -562 l 331 -562 q 389 -562 430 -542 q 471 -523 492 -489 q 513 -455 513 -411 l 513 -411 q 513 -353 484 -319 q 455 -285 397 -271 l 397 -271 l 395 -277 q 456 -267 489 -229 q 522 -191 522 -135 l 522 -135 q 522 -65 479 -27 q 436 11 359 11 l 359 11 q 329 11 306 8 q 283 4 265 0 l 265 0 l 277 -46 q 296 -42 315 -39 q 333 -36 355 -36 l 355 -36 q 409 -36 438 -60 q 466 -84 466 -136 l 466 -136 q 466 -162 458 -182 q 449 -203 432 -217 l 432 -217 q 414 -233 388 -241 q 361 -249 313 -249 l 313 -249 l 282 -249 l 282 -297 l 312 -297 q 355 -297 383 -304 q 410 -311 428 -328 l 428 -328 q 442 -341 450 -360 q 457 -379 457 -407 l 457 -407 q 457 -459 423 -486 q 389 -514 329 -514 l 329 -514 q 255 -514 206 -476 q 156 -438 132 -371 q 107 -305 107 -220 l 107 -220 q 107 -163 114 -109 q 120 -55 132 -5 l 132 -5 l 79 4 q 66 -45 59 -105 q 51 -165 51 -219 l 51 -219 q 51 -322 84 -399 q 116 -476 179 -519 q 241 -562 331 -562 z"},"ധ":{"ha":800,"x_min":41,"x_max":760,"o":"m 550 12 l 550 12 q 508 12 478 -3 q 447 -18 428 -45 q 408 -73 396 -111 l 396 -111 l 405 -110 q 385 -49 347 -18 q 308 12 247 12 l 247 12 q 181 12 135 -23 q 89 -59 65 -119 q 41 -180 41 -254 l 41 -254 q 41 -329 59 -383 q 76 -437 106 -479 q 136 -521 175 -557 l 175 -557 l 212 -519 q 180 -489 154 -453 q 127 -417 112 -368 q 97 -320 97 -255 l 97 -255 q 97 -196 115 -146 q 132 -96 165 -66 q 198 -36 246 -36 l 246 -36 q 279 -36 300 -46 q 321 -57 336 -75 l 336 -75 q 357 -99 365 -137 q 373 -175 373 -237 l 373 -237 l 373 -550 l 428 -550 l 428 -238 q 428 -176 436 -138 q 444 -100 465 -76 l 465 -76 q 480 -57 501 -46 q 521 -36 551 -36 l 551 -36 q 599 -36 633 -65 q 667 -94 685 -144 q 703 -195 703 -256 l 703 -256 q 703 -322 688 -370 q 673 -418 647 -453 q 621 -489 589 -518 l 589 -518 l 627 -557 q 664 -522 694 -481 q 724 -440 742 -385 q 760 -331 760 -256 l 760 -256 q 760 -176 735 -116 q 709 -56 662 -22 q 615 12 550 12 z"},"ന":{"ha":800,"x_min":41,"x_max":760,"o":"m 250 -562 l 250 -562 q 292 -562 323 -547 q 353 -532 374 -505 q 394 -478 405 -439 l 405 -439 l 395 -440 q 416 -501 454 -531 q 492 -562 554 -562 l 554 -562 q 620 -562 666 -526 q 712 -491 736 -431 q 760 -371 760 -296 l 760 -296 q 760 -222 743 -167 q 725 -113 695 -71 q 664 -29 625 7 l 625 7 l 588 -31 q 621 -61 647 -97 q 673 -134 688 -182 q 703 -230 703 -295 l 703 -295 q 703 -355 686 -404 q 669 -454 636 -484 q 602 -514 554 -514 l 554 -514 q 522 -514 501 -504 q 479 -494 464 -475 l 464 -475 q 443 -452 435 -413 q 427 -375 427 -313 l 427 -313 l 427 0 l 373 0 l 373 -312 q 373 -374 365 -412 q 357 -451 336 -474 l 336 -474 q 321 -494 300 -504 q 279 -514 250 -514 l 250 -514 q 202 -514 168 -485 q 133 -456 115 -406 q 97 -356 97 -294 l 97 -294 q 97 -229 113 -180 q 128 -132 154 -96 q 180 -61 212 -32 l 212 -32 l 173 7 q 137 -28 107 -69 q 76 -110 59 -164 q 41 -219 41 -294 l 41 -294 q 41 -374 67 -434 q 92 -495 139 -528 q 186 -562 250 -562 z"},"ഩ":{"ha":897,"x_min":44,"x_max":856,"o":"m 314 -562 l 314 -562 q 392 -562 436 -529 q 480 -496 503 -439 l 503 -439 l 493 -444 q 514 -503 552 -532 q 590 -562 650 -562 l 650 -562 q 717 -562 763 -526 q 808 -491 832 -431 q 856 -371 856 -296 l 856 -296 q 856 -222 839 -167 q 822 -113 792 -71 q 761 -29 722 7 l 722 7 l 685 -31 q 718 -61 744 -97 q 769 -134 785 -182 q 800 -230 800 -295 l 800 -295 q 800 -355 783 -404 q 765 -454 732 -484 q 699 -514 651 -514 l 651 -514 q 619 -514 598 -504 q 576 -494 561 -475 l 561 -475 q 541 -452 533 -413 q 524 -375 524 -311 l 524 -311 l 524 0 l 469 0 l 469 -315 q 469 -381 457 -419 q 444 -457 419 -480 l 419 -480 q 399 -497 375 -505 q 350 -514 313 -514 l 313 -514 q 247 -514 198 -478 q 149 -442 123 -380 q 96 -318 96 -239 l 96 -239 l 96 -225 q 96 -159 110 -117 q 124 -75 150 -55 q 176 -35 211 -35 l 211 -35 q 235 -35 255 -47 q 275 -59 287 -85 q 298 -111 298 -153 l 298 -153 q 298 -207 274 -237 q 249 -267 203 -267 l 203 -267 q 165 -267 133 -248 q 100 -229 75 -199 l 75 -199 l 63 -241 q 93 -276 132 -295 q 171 -315 211 -315 l 211 -315 q 252 -315 284 -297 q 315 -280 334 -244 q 352 -209 352 -156 l 352 -156 q 352 -100 334 -62 q 316 -25 284 -6 q 252 12 210 12 l 210 12 q 165 12 127 -12 q 89 -36 67 -89 q 44 -143 44 -233 l 44 -233 q 44 -338 79 -411 q 113 -485 174 -523 q 235 -562 314 -562 z"},"പ":{"ha":786,"x_min":34,"x_max":716,"o":"m 199 -337 l 199 -337 q 252 -337 289 -314 q 326 -292 345 -254 q 364 -216 364 -169 l 364 -169 q 364 -125 349 -90 q 334 -55 311 -34 l 311 -34 l 304 -47 l 661 -47 l 661 -550 l 716 -550 l 716 0 l 282 0 l 261 -36 q 284 -62 297 -92 q 310 -123 310 -162 l 310 -162 q 310 -222 281 -255 q 251 -289 199 -289 l 199 -289 q 164 -289 140 -272 q 115 -256 102 -228 q 88 -201 88 -166 l 88 -166 q 88 -122 105 -89 q 121 -57 151 -29 l 151 -29 l 117 7 q 81 -26 58 -67 q 34 -109 34 -166 l 34 -166 q 34 -216 55 -254 q 75 -293 113 -315 q 150 -337 199 -337 z"},"ഫ":{"ha":995,"x_min":34,"x_max":932,"o":"m 199 -337 l 199 -337 q 252 -337 289 -314 q 326 -292 345 -254 q 364 -216 364 -169 l 364 -169 q 364 -125 349 -90 q 334 -55 311 -34 l 311 -34 l 304 -47 l 550 -47 l 550 0 l 282 0 l 261 -36 q 284 -62 297 -92 q 310 -123 310 -162 l 310 -162 q 310 -222 281 -255 q 251 -289 199 -289 l 199 -289 q 164 -289 140 -272 q 115 -256 102 -228 q 88 -201 88 -166 l 88 -166 q 88 -122 105 -89 q 121 -56 151 -29 l 151 -29 l 117 7 q 81 -26 58 -67 q 34 -109 34 -166 l 34 -166 q 34 -216 55 -254 q 75 -293 113 -315 q 150 -337 199 -337 z m 722 -562 l 722 -562 q 773 -562 810 -547 q 847 -532 873 -505 l 873 -505 q 906 -472 919 -424 q 932 -376 932 -305 l 932 -305 l 932 0 l 514 0 l 514 -310 q 514 -356 520 -392 q 525 -428 539 -456 q 552 -484 573 -506 l 573 -506 q 599 -532 636 -547 q 673 -562 722 -562 z m 722 -514 l 722 -514 q 686 -514 659 -502 q 631 -491 612 -471 l 612 -471 q 589 -445 579 -404 q 569 -364 569 -294 l 569 -294 l 569 -47 l 877 -47 l 877 -292 q 877 -359 867 -401 q 856 -444 832 -470 l 832 -470 q 814 -491 787 -502 q 760 -514 722 -514 z"},"ബ":{"ha":1152,"x_min":44,"x_max":1082,"o":"m 314 -562 l 314 -562 q 392 -562 436 -529 q 480 -496 503 -439 l 503 -439 l 514 -396 l 524 -267 l 524 0 l 469 0 l 469 -315 q 469 -381 457 -419 q 444 -457 419 -480 l 419 -480 q 399 -497 375 -505 q 350 -514 313 -514 l 313 -514 q 247 -514 198 -478 q 149 -442 123 -380 q 96 -318 96 -239 l 96 -239 l 96 -225 q 96 -159 110 -117 q 124 -75 150 -55 q 176 -35 211 -35 l 211 -35 q 235 -35 255 -47 q 275 -59 287 -85 q 298 -111 298 -153 l 298 -153 q 298 -207 274 -237 q 249 -267 203 -267 l 203 -267 q 165 -267 133 -248 q 100 -229 75 -199 l 75 -199 l 63 -241 q 93 -276 132 -295 q 171 -315 211 -315 l 211 -315 q 252 -315 284 -297 q 315 -280 334 -244 q 352 -209 352 -156 l 352 -156 q 352 -100 334 -62 q 316 -25 284 -6 q 252 12 210 12 l 210 12 q 165 12 127 -12 q 89 -36 67 -89 q 44 -143 44 -233 l 44 -233 q 44 -338 79 -411 q 113 -485 174 -523 q 235 -562 314 -562 z m 1027 -550 l 1082 -550 l 1082 0 l 718 0 l 695 -36 q 723 -67 747 -102 q 771 -137 786 -183 q 800 -230 800 -295 l 800 -295 q 800 -355 783 -404 q 765 -454 732 -484 q 699 -514 651 -514 l 651 -514 q 619 -514 598 -504 q 576 -494 561 -475 l 561 -475 q 541 -452 533 -413 q 524 -375 524 -311 l 524 -311 l 524 -7 l 472 -7 l 472 -265 l 495 -390 l 493 -443 q 514 -503 552 -532 q 590 -562 650 -562 l 650 -562 q 717 -562 763 -526 q 808 -491 832 -431 q 856 -371 856 -296 l 856 -296 q 856 -232 843 -184 q 830 -137 809 -101 q 787 -66 761 -38 l 761 -38 l 752 -47 l 1027 -47 l 1027 -550 z"},"ഭ":{"ha":572,"x_min":51,"x_max":537,"o":"m 349 -562 l 349 -562 q 405 -562 448 -546 q 490 -530 514 -499 q 537 -469 537 -425 l 537 -425 q 537 -401 531 -382 q 525 -363 512 -351 l 512 -351 q 498 -336 476 -328 q 454 -321 414 -320 l 414 -320 l 393 -320 q 360 -320 342 -317 q 323 -314 312 -307 l 312 -307 q 302 -301 297 -291 q 292 -281 292 -269 l 292 -269 q 292 -239 315 -227 q 338 -216 386 -216 l 386 -216 l 394 -216 q 434 -216 462 -208 q 490 -200 508 -182 l 508 -182 q 522 -170 530 -151 q 537 -132 537 -108 l 537 -108 q 537 -72 521 -45 q 505 -18 471 -3 q 437 12 382 12 l 382 12 q 357 12 329 9 q 300 6 273 -1 q 246 -8 225 -17 l 225 -17 l 245 -63 q 278 -49 312 -42 q 346 -36 382 -36 l 382 -36 q 440 -36 462 -55 q 484 -75 484 -106 l 484 -106 q 484 -140 462 -154 q 439 -168 394 -168 l 394 -168 l 384 -168 q 339 -169 311 -176 q 283 -184 266 -200 l 266 -200 q 254 -212 247 -228 q 239 -245 239 -267 l 239 -267 q 239 -290 247 -308 q 255 -327 272 -339 l 272 -339 q 291 -354 319 -360 q 346 -367 390 -368 l 390 -368 l 416 -368 q 452 -368 468 -380 q 483 -393 483 -425 l 483 -425 q 483 -467 448 -490 q 412 -514 348 -514 l 348 -514 q 265 -514 212 -476 q 158 -438 133 -371 q 107 -305 107 -220 l 107 -220 q 107 -163 114 -109 q 120 -55 132 -5 l 132 -5 l 79 4 q 66 -45 59 -105 q 51 -165 51 -219 l 51 -219 q 51 -322 85 -399 q 118 -476 185 -519 q 251 -562 349 -562 z"},"മ":{"ha":634,"x_min":59,"x_max":575,"o":"m 317 -562 l 317 -562 q 378 -562 423 -546 q 468 -531 499 -501 l 499 -501 q 525 -477 542 -444 q 559 -411 567 -367 q 575 -323 575 -265 l 575 -265 l 575 0 l 59 0 l 59 -265 q 59 -320 67 -362 q 75 -405 91 -438 q 106 -471 131 -495 l 131 -495 q 163 -527 209 -544 q 254 -562 317 -562 z m 273 -511 l 273 -511 q 238 -511 210 -495 q 181 -479 161 -449 l 161 -449 q 139 -419 127 -373 q 114 -327 114 -254 l 114 -254 l 114 -46 l 122 -46 q 189 -102 242 -162 q 295 -223 326 -284 q 357 -346 357 -405 l 357 -405 q 357 -434 349 -458 q 341 -482 323 -496 q 305 -511 273 -511 z m 413 -400 l 413 -400 q 413 -337 383 -275 q 353 -213 300 -151 q 247 -90 178 -27 l 178 -27 l 177 -43 q 204 -45 240 -46 q 276 -47 307 -47 l 307 -47 l 521 -47 l 521 -259 q 521 -337 504 -391 q 487 -446 450 -477 q 412 -509 349 -516 l 349 -516 l 348 -521 q 383 -503 398 -472 q 413 -441 413 -400 z"},"യ":{"ha":915,"x_min":40,"x_max":871,"o":"m 590 12 l 590 12 q 551 12 515 3 q 478 -6 445 -26 l 445 -26 q 441 -29 436 -32 q 430 -35 427 -38 l 427 -38 q 379 -72 348 -119 q 317 -167 302 -223 q 287 -280 287 -340 l 287 -340 q 287 -382 297 -419 q 306 -456 324 -485 l 324 -485 l 331 -495 q 347 -517 367 -531 q 387 -546 412 -554 q 436 -562 464 -562 l 464 -562 q 546 -562 593 -503 q 639 -444 639 -338 l 639 -338 q 639 -239 603 -161 q 567 -84 500 -39 l 500 -39 q 496 -36 491 -33 q 486 -30 480 -26 l 480 -26 q 447 -7 410 3 q 372 12 326 12 l 326 12 q 258 12 205 -13 q 152 -39 115 -84 q 78 -130 59 -193 q 40 -256 40 -330 l 40 -330 q 40 -405 65 -456 q 89 -508 132 -535 q 174 -562 228 -562 l 228 -562 q 278 -562 312 -542 q 345 -522 371 -493 l 371 -493 l 333 -457 q 315 -482 291 -498 q 266 -515 230 -515 l 230 -515 q 193 -515 163 -495 q 132 -475 114 -434 q 96 -393 96 -329 l 96 -329 q 96 -245 123 -178 q 150 -112 202 -73 q 253 -34 329 -34 l 329 -34 q 360 -34 384 -38 q 408 -43 430 -52 l 430 -52 q 436 -55 443 -58 q 449 -61 455 -63 l 455 -63 q 496 -87 525 -128 q 553 -169 568 -223 q 583 -277 583 -337 l 583 -337 q 583 -401 568 -440 q 552 -479 525 -497 q 498 -515 464 -515 l 464 -515 q 427 -515 400 -494 q 372 -473 358 -433 q 343 -394 343 -337 l 343 -337 q 343 -284 358 -230 q 372 -177 401 -133 q 429 -90 470 -63 l 470 -63 q 476 -61 481 -59 q 486 -57 492 -55 l 492 -55 q 512 -45 537 -39 q 561 -34 589 -34 l 589 -34 q 669 -34 719 -69 q 768 -104 792 -164 q 815 -225 815 -304 l 815 -304 q 815 -370 794 -429 q 773 -489 739 -533 l 739 -533 l 785 -562 q 826 -508 849 -443 q 871 -378 871 -307 l 871 -307 q 871 -236 854 -177 q 836 -119 801 -76 q 766 -34 714 -11 q 661 12 590 12 z"},"ര":{"ha":645,"x_min":41,"x_max":604,"o":"m 318 -562 l 318 -562 q 389 -562 443 -538 q 496 -515 532 -472 q 568 -429 586 -370 q 604 -312 604 -241 l 604 -241 q 604 -149 581 -93 q 558 -37 518 -12 q 478 12 427 12 l 427 12 q 371 12 335 -15 q 298 -42 281 -88 q 263 -135 263 -192 l 263 -192 q 263 -289 308 -340 q 353 -392 426 -392 l 426 -392 q 470 -392 502 -372 q 533 -353 555 -321 q 576 -289 587 -249 l 587 -249 l 569 -238 q 560 -264 542 -288 q 524 -312 498 -328 q 471 -345 436 -345 l 436 -345 q 376 -345 347 -304 q 318 -264 318 -193 l 318 -193 q 318 -146 329 -110 q 339 -75 364 -55 q 388 -35 428 -35 l 428 -35 q 466 -35 494 -56 q 521 -77 536 -123 q 551 -169 551 -245 l 551 -245 q 551 -252 550 -268 q 549 -284 547 -297 l 547 -297 q 546 -301 547 -307 q 547 -313 545 -317 l 545 -317 q 537 -369 511 -413 q 484 -458 437 -486 q 390 -514 319 -514 l 319 -514 q 253 -514 203 -485 q 153 -457 126 -404 q 98 -352 98 -279 l 98 -279 q 98 -220 112 -174 q 126 -129 153 -94 q 179 -60 214 -33 l 214 -33 l 180 7 q 144 -19 113 -58 q 81 -98 61 -153 q 41 -208 41 -281 l 41 -281 q 41 -337 58 -387 q 75 -438 109 -477 q 143 -517 196 -539 q 248 -562 318 -562 z"},"റ":{"ha":591,"x_min":41,"x_max":550,"o":"m 299 -562 l 299 -562 q 361 -562 408 -541 q 455 -520 487 -482 q 519 -444 535 -393 q 550 -342 550 -283 l 550 -283 q 550 -210 531 -155 q 512 -101 481 -61 q 449 -22 410 8 l 410 8 l 376 -32 q 407 -56 434 -89 q 461 -122 478 -169 q 494 -216 494 -278 l 494 -278 q 494 -347 472 -400 q 449 -453 406 -483 q 362 -514 297 -514 l 297 -514 q 232 -514 188 -482 q 144 -451 121 -398 q 98 -345 98 -279 l 98 -279 q 98 -221 112 -175 q 126 -130 153 -95 q 179 -60 214 -33 l 214 -33 l 180 7 q 144 -19 113 -58 q 81 -98 61 -153 q 41 -208 41 -281 l 41 -281 q 41 -341 58 -392 q 75 -444 108 -482 q 141 -520 189 -541 q 237 -562 299 -562 z"},"ല":{"ha":757,"x_min":64,"x_max":686,"o":"m 632 -550 l 686 -550 l 686 0 l 64 0 l 64 -323 q 64 -392 78 -434 q 91 -477 117 -504 l 117 -504 q 144 -534 183 -548 q 221 -562 269 -562 l 269 -562 q 319 -562 357 -548 q 394 -535 419 -509 l 419 -509 q 446 -480 459 -436 q 471 -393 471 -331 l 471 -331 l 471 -229 l 119 -229 l 119 -47 l 632 -47 l 632 -550 z m 269 -515 l 269 -515 q 193 -515 156 -470 q 119 -426 119 -325 l 119 -325 l 119 -277 l 417 -277 l 417 -324 q 417 -427 382 -471 q 346 -515 269 -515 z"},"ള":{"ha":634,"x_min":41,"x_max":596,"o":"m 353 -515 l 353 -515 q 292 -515 247 -501 q 202 -487 171 -463 q 139 -439 121 -410 q 102 -381 94 -351 l 94 -351 q 93 -347 94 -342 q 94 -338 94 -335 l 94 -335 q 93 -327 92 -319 q 91 -311 91 -303 l 91 -303 q 91 -234 113 -194 q 135 -155 185 -155 l 185 -155 q 228 -155 249 -184 q 269 -214 269 -258 l 269 -258 q 269 -285 261 -306 q 253 -328 235 -341 q 217 -355 186 -355 l 186 -355 q 148 -355 120 -335 q 92 -315 70 -288 l 70 -288 l 54 -326 q 70 -345 91 -362 q 111 -379 137 -390 q 163 -401 194 -401 l 194 -401 q 239 -401 268 -381 q 296 -361 310 -329 q 323 -297 323 -259 l 323 -259 q 323 -217 308 -183 q 293 -149 263 -129 q 232 -109 185 -109 l 185 -109 q 140 -109 108 -131 q 75 -153 58 -196 q 41 -240 41 -303 l 41 -303 q 41 -355 60 -402 q 79 -449 118 -485 q 157 -521 216 -541 q 275 -562 354 -562 l 354 -562 q 435 -562 486 -541 q 537 -521 562 -484 q 586 -448 586 -400 l 586 -400 q 586 -369 574 -340 q 562 -312 532 -291 q 502 -271 449 -265 l 449 -265 l 389 -274 l 389 -297 l 397 -297 q 430 -297 454 -302 q 478 -307 495 -320 l 495 -320 q 513 -333 522 -351 q 530 -370 530 -397 l 530 -397 q 530 -433 512 -459 q 493 -485 454 -500 q 415 -515 353 -515 z m 596 -144 l 596 -144 q 596 -111 586 -85 q 576 -59 556 -41 l 556 -41 q 540 -27 520 -17 q 500 -8 473 -4 q 445 0 405 0 l 405 0 l 243 0 q 197 0 172 4 q 146 8 131 21 l 131 21 q 119 30 113 44 q 106 57 106 74 l 106 74 q 106 93 113 107 q 119 121 132 131 l 132 131 q 147 142 173 148 q 198 153 241 153 l 241 153 l 575 153 l 575 201 l 235 201 q 187 201 155 194 q 122 186 98 170 l 98 170 q 75 155 63 132 q 51 108 51 77 l 51 77 q 51 48 61 25 q 70 2 91 -13 l 91 -13 q 105 -25 123 -32 q 141 -40 168 -43 q 194 -47 232 -47 l 232 -47 l 401 -47 q 446 -47 472 -53 q 498 -60 514 -76 l 514 -76 q 527 -88 534 -105 q 540 -123 540 -147 l 540 -147 q 540 -174 530 -194 q 519 -214 499 -227 l 499 -227 q 482 -238 460 -243 q 437 -249 403 -249 l 403 -249 l 389 -249 l 389 -281 l 453 -280 q 523 -274 560 -237 q 596 -200 596 -144 z"},"ഴ":{"ha":575,"x_min":38,"x_max":537,"o":"m 240 -412 l 240 -412 q 240 -476 279 -519 q 318 -562 388 -562 l 388 -562 q 441 -562 474 -538 q 506 -515 522 -477 q 537 -440 537 -397 l 537 -397 q 537 -330 509 -276 q 481 -222 429 -191 q 376 -160 304 -160 l 304 -160 l 291 -160 q 211 -160 155 -188 q 98 -216 68 -269 q 38 -323 38 -397 l 38 -397 q 38 -439 50 -480 q 62 -521 87 -561 l 87 -561 l 131 -537 q 110 -499 102 -466 q 94 -433 94 -399 l 94 -399 q 94 -332 119 -289 q 144 -246 188 -226 q 232 -207 291 -207 l 291 -207 l 304 -207 q 362 -207 402 -232 q 441 -258 461 -301 q 481 -345 481 -398 l 481 -398 q 481 -447 460 -481 q 438 -515 388 -515 l 388 -515 q 356 -515 335 -501 q 314 -487 304 -463 q 294 -439 294 -410 l 294 -410 q 294 -369 306 -332 q 318 -296 334 -261 q 350 -227 362 -192 q 374 -157 374 -119 l 374 -119 q 374 -87 362 -57 q 350 -27 320 -7 q 290 12 235 12 l 235 12 q 201 12 165 4 q 129 -4 96 -21 l 96 -21 l 117 -66 q 143 -52 172 -44 q 201 -36 234 -36 l 234 -36 q 283 -36 302 -59 q 321 -83 321 -120 l 321 -120 q 321 -158 309 -191 q 296 -225 280 -259 q 264 -293 252 -330 q 240 -367 240 -412 z"},"വ":{"ha":846,"x_min":41,"x_max":776,"o":"m 299 -562 l 299 -562 q 361 -562 408 -541 q 455 -520 487 -482 q 519 -444 535 -393 q 550 -342 550 -283 l 550 -283 q 550 -219 535 -171 q 519 -124 496 -90 q 473 -57 449 -33 l 449 -33 l 443 -47 l 721 -47 l 721 -550 l 776 -550 l 776 0 l 408 0 l 385 -39 q 412 -61 437 -93 q 461 -125 478 -170 q 494 -216 494 -278 l 494 -278 q 494 -347 472 -400 q 449 -453 406 -483 q 362 -514 297 -514 l 297 -514 q 232 -514 188 -482 q 144 -451 121 -398 q 98 -345 98 -279 l 98 -279 q 98 -221 112 -175 q 126 -130 153 -95 q 179 -60 214 -33 l 214 -33 l 180 7 q 144 -19 113 -58 q 81 -98 61 -153 q 41 -208 41 -281 l 41 -281 q 41 -341 58 -392 q 75 -444 108 -482 q 141 -520 189 -541 q 237 -562 299 -562 z"},"ശ":{"ha":909,"x_min":41,"x_max":868,"o":"m 597 -562 l 597 -562 q 662 -562 712 -539 q 762 -516 797 -473 q 832 -431 850 -372 q 868 -313 868 -241 l 868 -241 q 868 -149 845 -93 q 822 -37 783 -12 q 743 12 691 12 l 691 12 q 635 12 599 -15 q 563 -42 546 -88 q 528 -135 528 -192 l 528 -192 q 528 -289 573 -340 q 618 -392 691 -392 l 691 -392 q 734 -392 766 -372 q 798 -353 820 -321 q 841 -289 852 -249 l 852 -249 l 834 -238 q 824 -264 806 -288 q 788 -312 762 -328 q 735 -345 700 -345 l 700 -345 q 640 -345 611 -304 q 582 -264 582 -193 l 582 -193 q 582 -146 593 -110 q 604 -75 629 -55 q 653 -35 692 -35 l 692 -35 q 731 -35 759 -56 q 786 -77 801 -123 q 815 -169 815 -245 l 815 -245 q 815 -252 814 -268 q 813 -284 811 -297 l 811 -297 q 811 -301 812 -307 q 812 -313 811 -317 l 811 -317 q 802 -370 776 -415 q 749 -460 705 -487 q 660 -514 598 -514 l 598 -514 q 558 -514 529 -504 q 499 -494 478 -476 l 478 -476 q 445 -447 432 -399 q 419 -352 419 -273 l 419 -273 l 419 -230 q 419 -160 409 -115 q 398 -70 369 -38 l 369 -38 q 348 -15 317 -1 q 286 12 242 12 l 242 12 q 180 12 135 -20 q 89 -52 65 -112 q 41 -172 41 -255 l 41 -255 q 41 -329 58 -384 q 75 -439 106 -481 q 136 -524 175 -560 l 175 -560 l 212 -521 q 180 -492 154 -455 q 127 -418 112 -369 q 97 -321 97 -256 l 97 -256 q 97 -188 115 -138 q 132 -89 164 -62 q 196 -36 240 -36 l 240 -36 q 275 -36 296 -46 q 317 -57 330 -75 l 330 -75 q 350 -102 357 -145 q 363 -189 363 -252 l 363 -252 l 363 -296 q 363 -372 379 -421 q 395 -471 432 -506 l 432 -506 q 461 -533 503 -547 q 544 -562 597 -562 z"},"ഷ":{"ha":1009,"x_min":34,"x_max":938,"o":"m 199 -337 l 199 -337 q 252 -337 289 -314 q 326 -292 345 -254 q 364 -216 364 -169 l 364 -169 q 364 -125 349 -90 q 334 -55 311 -34 l 311 -34 l 303 -47 l 605 -47 l 612 0 l 282 0 l 261 -36 q 285 -62 298 -92 q 310 -123 310 -162 l 310 -162 q 310 -222 281 -255 q 251 -289 199 -289 l 199 -289 q 164 -289 140 -272 q 115 -256 102 -228 q 88 -201 88 -166 l 88 -166 q 88 -122 105 -89 q 121 -57 151 -29 l 151 -29 l 117 7 q 81 -26 58 -67 q 34 -109 34 -167 l 34 -167 q 34 -216 55 -254 q 75 -293 113 -315 q 150 -337 199 -337 z m 938 0 l 587 0 l 587 -387 q 587 -428 582 -455 q 576 -483 561 -497 l 561 -497 q 553 -505 542 -510 q 531 -515 516 -515 l 516 -515 q 481 -515 462 -489 q 442 -464 442 -418 l 442 -418 q 442 -380 456 -351 q 469 -322 500 -306 q 531 -291 582 -291 l 582 -291 l 604 -291 q 657 -291 699 -310 q 741 -329 775 -364 q 808 -399 835 -446 q 862 -493 886 -550 l 886 -550 l 938 -550 l 938 0 z m 517 -562 l 517 -562 q 542 -562 562 -555 q 582 -549 596 -536 l 596 -536 q 621 -515 632 -481 q 642 -448 642 -393 l 642 -393 l 642 -47 l 884 -47 l 884 -359 q 884 -377 885 -398 q 885 -420 886 -439 q 887 -458 888 -471 l 888 -471 l 891 -470 q 863 -397 821 -346 q 779 -296 726 -270 q 672 -244 609 -244 l 609 -244 l 588 -244 q 520 -244 476 -265 q 431 -287 409 -326 q 387 -365 387 -418 l 387 -418 q 387 -455 402 -488 q 417 -521 446 -541 q 475 -562 517 -562 z"},"സ":{"ha":1077,"x_min":41,"x_max":1036,"o":"m 548 -562 l 548 -562 q 585 -562 615 -549 q 644 -537 665 -514 l 665 -514 q 682 -496 693 -473 q 703 -450 709 -415 q 714 -380 714 -325 l 714 -325 l 714 -254 q 714 -187 720 -144 q 726 -102 746 -75 l 746 -75 q 760 -57 781 -46 q 801 -36 836 -36 l 836 -36 q 881 -36 913 -62 q 945 -89 962 -138 q 979 -188 979 -257 l 979 -257 q 979 -321 964 -369 q 949 -418 923 -455 q 897 -492 865 -521 l 865 -521 l 901 -560 q 941 -524 972 -481 q 1002 -439 1019 -384 q 1036 -329 1036 -255 l 1036 -255 q 1036 -172 1012 -112 q 987 -52 942 -20 q 897 12 835 12 l 835 12 q 791 12 760 -1 q 728 -15 707 -38 l 707 -38 q 688 -60 678 -86 q 667 -113 663 -148 q 659 -184 659 -231 l 659 -231 l 659 -313 q 659 -380 651 -418 q 643 -457 624 -480 l 624 -480 q 611 -496 591 -505 q 571 -514 542 -514 l 542 -514 q 517 -514 498 -505 q 478 -497 465 -482 l 465 -482 q 445 -460 436 -422 q 427 -385 427 -323 l 427 -323 l 427 0 l 373 0 l 373 -313 q 373 -374 365 -413 q 357 -452 335 -475 l 335 -475 q 320 -494 299 -504 q 278 -514 247 -514 l 247 -514 q 199 -514 166 -484 q 132 -454 115 -404 q 97 -355 97 -295 l 97 -295 q 97 -230 113 -181 q 128 -133 154 -97 q 180 -61 212 -32 l 212 -32 l 174 7 q 137 -28 107 -69 q 76 -110 59 -165 q 41 -220 41 -296 l 41 -296 q 41 -371 65 -431 q 89 -491 136 -526 q 182 -562 249 -562 l 249 -562 q 311 -562 348 -531 q 384 -500 404 -442 l 404 -442 l 397 -441 q 413 -501 451 -531 q 489 -562 548 -562 z"},"ഹ":{"ha":1047,"x_min":34,"x_max":1006,"o":"m 199 -337 l 199 -337 q 252 -337 289 -314 q 326 -292 345 -254 q 364 -216 364 -169 l 364 -169 q 364 -125 349 -90 q 334 -55 311 -34 l 311 -34 l 303 -47 l 612 -47 l 624 0 l 282 0 l 261 -36 q 285 -62 298 -92 q 310 -123 310 -162 l 310 -162 q 310 -222 281 -255 q 251 -289 199 -289 l 199 -289 q 164 -289 140 -272 q 115 -256 102 -228 q 88 -201 88 -166 l 88 -166 q 88 -122 105 -89 q 121 -57 151 -29 l 151 -29 l 117 7 q 81 -26 58 -67 q 34 -109 34 -167 l 34 -167 q 34 -216 55 -254 q 75 -293 113 -315 q 150 -337 199 -337 z m 754 -562 l 754 -562 q 817 -562 864 -541 q 911 -520 943 -482 q 974 -444 990 -393 q 1006 -342 1006 -283 l 1006 -283 q 1006 -210 987 -155 q 968 -101 937 -61 q 905 -22 866 8 l 866 8 l 832 -32 q 863 -56 890 -89 q 917 -122 934 -168 q 950 -215 950 -278 l 950 -278 q 950 -347 928 -400 q 905 -453 862 -483 q 818 -514 753 -514 l 753 -514 q 688 -514 644 -482 q 599 -451 577 -398 q 554 -345 554 -279 l 554 -279 q 554 -222 567 -178 q 580 -134 605 -100 q 629 -66 661 -39 l 661 -39 l 636 0 l 612 0 l 590 -41 q 569 -64 548 -96 q 526 -129 512 -174 q 497 -220 497 -281 l 497 -281 q 497 -341 514 -392 q 530 -444 564 -482 q 597 -520 645 -541 q 692 -562 754 -562 z"},"ഺ":{"ha":683,"x_min":22,"x_max":667,"o":"m 83 -47 l 667 -47 l 667 0 l 407 0 l 407 202 l 351 202 l 351 0 l 54 0 l 22 -38 l 219 -557 l 271 -541 l 83 -47 z"},"഻":{"ha":0,"x_min":-303,"x_max":-255,"o":"m -303 -583 l -303 -864 l -255 -864 l -255 -583 l -303 -583 z"},"഼":{"ha":0,"x_min":-217,"x_max":17,"o":"m -217 -723 l -217 -723 q -217 -779 -185 -814 q -153 -850 -100 -850 l -100 -850 q -47 -850 -15 -815 q 17 -780 17 -723 l 17 -723 q 17 -666 -15 -631 q -47 -596 -100 -596 l -100 -596 q -154 -596 -185 -631 q -217 -667 -217 -723 z m -169 -724 l -169 -724 q -169 -686 -151 -663 q -133 -641 -100 -641 l -100 -641 q -66 -641 -48 -663 q -31 -686 -31 -724 l -31 -724 q -31 -761 -48 -783 q -66 -805 -100 -805 l -100 -805 q -133 -805 -151 -783 q -169 -761 -169 -724 z"},"ഽ":{"ha":405,"x_min":-73,"x_max":478,"o":"m 330 -788 l 330 -788 q 372 -788 402 -769 q 431 -751 450 -719 q 469 -688 478 -647 l 478 -647 l 423 -636 q 416 -665 405 -688 q 393 -712 376 -726 q 358 -741 330 -741 l 330 -741 q 307 -741 291 -733 q 275 -726 263 -712 l 263 -712 q 244 -691 237 -654 q 230 -617 230 -556 l 230 -556 l 230 19 q 230 88 220 131 q 209 173 182 201 l 182 201 q 164 222 137 233 q 110 244 74 244 l 74 244 q 33 244 4 226 q -26 207 -44 175 q -63 143 -73 102 l -73 102 l -18 92 q -10 121 1 145 q 12 168 30 183 q 47 197 75 197 l 75 197 q 98 197 114 190 q 130 182 142 168 l 142 168 q 161 146 168 111 q 174 75 174 16 l 174 16 l 174 -559 q 174 -634 185 -675 q 196 -717 222 -744 l 222 -744 q 240 -765 268 -776 q 295 -788 330 -788 z"},"ാ":{"ha":440,"x_min":20,"x_max":397,"o":"m 397 -277 l 397 -277 q 397 -214 387 -161 q 376 -108 354 -69 q 331 -31 294 -9 q 257 12 204 12 l 204 12 q 161 12 130 -2 q 98 -17 77 -42 q 55 -67 42 -99 q 28 -131 20 -165 l 20 -165 l 76 -176 q 84 -140 99 -108 q 113 -76 138 -55 q 163 -35 202 -35 l 202 -35 q 253 -35 283 -64 q 313 -94 327 -148 q 341 -202 341 -277 l 341 -277 q 341 -350 327 -403 q 313 -457 283 -486 q 253 -515 206 -515 l 206 -515 q 169 -515 144 -495 q 118 -475 103 -443 q 87 -412 78 -376 l 78 -376 l 23 -387 q 32 -421 47 -452 q 61 -484 84 -508 q 106 -533 137 -547 q 168 -562 210 -562 l 210 -562 q 261 -562 297 -540 q 332 -518 355 -479 q 377 -440 387 -388 q 397 -337 397 -277 z"},"ി":{"ha":195,"x_min":-187,"x_max":125,"o":"m -38 -843 l -38 -843 q -7 -843 18 -834 q 43 -826 63 -810 l 63 -810 q 86 -790 100 -763 q 113 -736 119 -695 q 125 -654 125 -591 l 125 -591 l 125 0 l 70 0 l 70 -567 q 70 -616 68 -654 q 65 -693 57 -721 q 49 -750 32 -767 l 32 -767 q 20 -781 4 -788 q -13 -796 -37 -796 l -37 -796 q -63 -796 -84 -784 q -106 -773 -119 -750 q -132 -727 -132 -690 l -132 -690 q -132 -675 -130 -662 q -128 -649 -127 -638 l -127 -638 l -181 -629 q -183 -642 -185 -657 q -187 -672 -187 -689 l -187 -689 q -187 -738 -167 -772 q -148 -807 -114 -825 q -80 -843 -38 -843 z"},"ീ":{"ha":195,"x_min":-254,"x_max":125,"o":"m -97 -843 l -97 -843 q -58 -843 -23 -833 q 12 -824 40 -804 l 40 -804 q 88 -770 107 -713 q 125 -657 125 -566 l 125 -566 l 125 0 l 70 0 l 70 -546 q 70 -596 67 -633 q 64 -671 54 -699 q 44 -728 24 -749 l 24 -749 q 4 -777 -26 -788 q -56 -799 -103 -799 l -103 -799 q -129 -799 -152 -789 q -175 -780 -189 -760 q -204 -741 -204 -710 l -204 -710 q -204 -674 -186 -654 q -169 -634 -135 -634 l -135 -634 q -98 -634 -81 -656 q -65 -678 -65 -710 l -65 -710 q -65 -740 -77 -765 q -89 -791 -112 -808 l -112 -808 l -54 -801 q -39 -785 -28 -762 q -18 -740 -18 -708 l -18 -708 q -18 -676 -30 -648 q -42 -621 -68 -604 q -94 -588 -137 -588 l -137 -588 q -168 -588 -195 -602 q -222 -616 -238 -643 q -254 -671 -254 -711 l -254 -711 q -254 -751 -234 -780 q -215 -810 -179 -826 q -144 -843 -97 -843 z"},"ു":{"ha":287,"x_min":-19,"x_max":290,"o":"m 136 223 l 136 223 q 65 223 23 177 q -19 131 -19 54 l -19 54 q -19 2 1 -36 q 20 -74 55 -94 q 90 -115 135 -115 l 135 -115 q 182 -115 217 -95 q 252 -75 271 -37 q 290 1 290 53 l 290 53 q 290 106 271 144 q 251 182 217 203 q 182 223 136 223 z m 136 178 l 136 178 q 181 178 209 147 q 237 116 237 53 l 237 53 q 237 -7 210 -38 q 182 -70 135 -70 l 135 -70 q 89 -70 62 -38 q 34 -7 34 54 l 34 54 q 34 115 62 147 q 90 178 136 178 z m 89 -562 l 89 -562 q 139 -562 169 -541 q 198 -520 211 -485 q 223 -451 223 -409 l 223 -409 q 223 -345 207 -260 q 190 -175 164 -86 l 164 -86 l 113 -96 q 137 -185 152 -264 q 167 -343 167 -405 l 167 -405 q 167 -455 149 -484 q 130 -514 82 -514 l 82 -514 q 68 -514 53 -511 q 38 -509 25 -505 l 25 -505 l 14 -552 q 28 -556 48 -559 q 67 -562 89 -562 z"},"ൂ":{"ha":287,"x_min":-19,"x_max":290,"o":"m 135 223 l 135 223 q 64 223 23 177 q -19 131 -19 54 l -19 54 q -19 2 1 -36 q 20 -74 55 -94 q 89 -115 135 -115 l 135 -115 q 182 -115 217 -95 q 252 -75 271 -37 q 290 1 290 53 l 290 53 q 290 106 271 144 q 251 182 217 203 q 182 223 135 223 z m 134 -72 l 134 -72 q 86 -72 56 -42 q 26 -12 26 54 l 26 54 q 26 116 56 148 q 86 179 135 179 l 135 179 q 184 179 215 148 q 245 116 245 54 l 245 54 q 245 -12 215 -42 q 185 -72 134 -72 z m 135 91 l 135 91 q 82 91 58 62 q 34 32 34 -12 l 34 -12 q 34 -34 45 -53 q 55 -72 73 -93 l 73 -93 l 101 -75 q 83 -63 75 -47 q 67 -32 67 -16 l 67 -16 q 67 0 74 14 q 80 28 96 37 q 111 45 136 45 l 136 45 q 160 45 175 37 q 189 29 197 15 q 204 1 204 -16 l 204 -16 q 204 -32 196 -47 q 188 -62 171 -73 l 171 -73 l 199 -93 q 218 -71 228 -53 q 238 -35 238 -13 l 238 -13 q 238 14 228 38 q 218 62 196 77 q 174 91 135 91 z m 89 -562 l 89 -562 q 139 -562 169 -541 q 198 -520 211 -485 q 223 -451 223 -409 l 223 -409 q 223 -345 207 -260 q 190 -175 164 -86 l 164 -86 l 113 -96 q 137 -185 152 -264 q 167 -343 167 -405 l 167 -405 q 167 -455 149 -484 q 130 -514 82 -514 l 82 -514 q 68 -514 53 -511 q 38 -509 25 -505 l 25 -505 l 14 -552 q 28 -556 48 -559 q 68 -562 89 -562 z"},"ൃ":{"ha":205,"x_min":-128,"x_max":200,"o":"m 23 307 l 23 307 q -21 307 -55 291 q -89 275 -108 244 q -128 213 -128 169 l -128 169 q -128 109 -88 73 q -48 36 16 36 l 16 36 q 63 36 103 55 q 142 73 178 109 l 178 109 l 166 153 q 129 116 93 100 q 57 84 19 84 l 19 84 q -22 84 -48 106 q -74 127 -74 171 l -74 171 q -74 215 -47 238 q -21 260 23 260 l 23 260 q 59 260 87 246 q 115 232 131 202 q 147 172 147 124 l 147 124 q 147 91 141 59 q 134 27 122 -9 q 110 -46 92 -91 l 92 -91 q 72 -145 59 -194 q 45 -243 45 -299 l 45 -299 q 45 -365 64 -427 q 83 -490 114 -550 l 114 -550 l 173 -550 q 148 -502 132 -461 q 116 -421 109 -382 q 101 -344 101 -302 l 101 -302 q 101 -246 114 -201 q 126 -157 145 -105 l 145 -105 q 164 -56 176 -17 q 188 21 194 55 q 200 89 200 124 l 200 124 q 200 187 176 228 q 152 268 112 288 q 72 307 23 307 z"},"ൄ":{"ha":205,"x_min":-233,"x_max":200,"o":"m -25 307 l -25 307 q -87 307 -134 291 q -181 274 -207 240 q -233 205 -233 152 l -233 152 q -233 104 -206 73 q -179 42 -134 42 l -134 42 q -102 42 -83 59 q -64 75 -55 102 l -55 102 l -62 100 q -52 73 -32 58 q -12 42 17 42 l 17 42 q 44 42 62 53 q 79 63 89 79 q 98 95 102 114 q 106 133 106 151 l 106 151 l 106 175 l 61 175 l 61 160 q 61 126 51 107 q 40 87 14 87 l 14 87 q -14 87 -25 107 q -36 127 -36 160 l -36 160 l -36 175 l -81 175 l -81 160 q -81 127 -91 107 q -102 87 -130 87 l -130 87 q -154 87 -168 105 q -183 122 -183 153 l -183 153 q -183 208 -141 234 q -100 260 -24 260 l -24 260 q 56 260 101 229 q 145 197 145 124 l 145 124 q 145 91 139 59 q 133 27 122 -9 q 110 -46 92 -91 l 92 -91 q 72 -144 59 -193 q 45 -243 45 -299 l 45 -299 q 45 -365 64 -427 q 82 -489 112 -550 l 112 -550 l 171 -550 q 146 -502 131 -461 q 115 -420 108 -382 q 101 -344 101 -302 l 101 -302 q 101 -244 114 -199 q 127 -155 145 -106 l 145 -106 q 164 -56 176 -17 q 188 21 194 55 q 200 89 200 125 l 200 125 q 200 190 171 230 q 142 270 91 289 q 40 307 -25 307 z"},"െ":{"ha":627,"x_min":41,"x_max":586,"o":"m 208 12 l 208 12 q 163 12 125 -11 q 86 -35 64 -88 q 41 -142 41 -230 l 41 -230 q 41 -309 63 -370 q 85 -432 125 -475 q 164 -518 216 -540 q 268 -562 327 -562 l 327 -562 q 392 -562 441 -541 q 489 -520 522 -482 q 554 -445 570 -394 q 586 -343 586 -283 l 586 -283 q 586 -210 567 -155 q 548 -101 516 -61 q 484 -22 446 8 l 446 8 l 412 -32 q 443 -56 470 -89 q 496 -122 513 -168 q 529 -215 529 -278 l 529 -278 q 529 -348 507 -401 q 484 -454 439 -484 q 393 -514 325 -514 l 325 -514 q 260 -514 208 -478 q 155 -443 124 -379 q 93 -315 93 -228 l 93 -228 q 93 -160 108 -117 q 122 -75 148 -55 q 173 -35 208 -35 l 208 -35 q 233 -35 253 -47 q 273 -59 285 -85 q 296 -111 296 -154 l 296 -154 q 296 -207 272 -237 q 247 -267 201 -267 l 201 -267 q 162 -267 130 -248 q 97 -229 73 -200 l 73 -200 l 60 -241 q 91 -276 130 -295 q 168 -315 209 -315 l 209 -315 q 250 -315 282 -297 q 313 -280 332 -244 q 350 -209 350 -156 l 350 -156 q 350 -100 332 -62 q 313 -25 282 -6 q 250 12 208 12 z"},"േ":{"ha":519,"x_min":41,"x_max":484,"o":"m 317 12 l 317 12 q 262 12 212 -5 q 162 -22 124 -57 q 85 -93 63 -148 q 41 -203 41 -279 l 41 -279 q 41 -353 65 -406 q 88 -460 128 -494 q 168 -529 218 -545 q 268 -562 320 -562 l 320 -562 q 376 -562 413 -544 q 449 -527 467 -497 q 484 -467 484 -429 l 484 -429 q 484 -389 469 -361 q 453 -334 427 -320 q 401 -306 369 -306 l 369 -306 q 326 -306 299 -322 q 272 -339 260 -367 q 247 -395 247 -429 l 247 -429 q 247 -458 257 -482 q 267 -506 283 -524 l 283 -524 l 340 -530 q 320 -513 308 -486 q 295 -459 295 -431 l 295 -431 q 295 -398 312 -374 q 328 -351 367 -351 l 367 -351 q 400 -351 416 -372 q 432 -393 432 -429 l 432 -429 q 432 -473 404 -495 q 376 -518 334 -518 l 334 -518 q 325 -518 316 -518 q 306 -518 297 -517 l 297 -517 q 238 -513 193 -482 q 148 -452 123 -400 q 97 -348 97 -278 l 97 -278 q 97 -206 121 -153 q 144 -101 187 -70 q 230 -40 289 -33 l 289 -33 q 299 -33 309 -32 q 319 -32 328 -32 l 328 -32 q 357 -32 379 -42 q 401 -52 415 -72 q 428 -93 428 -123 l 428 -123 q 428 -157 412 -178 q 395 -199 361 -199 l 361 -199 q 323 -199 307 -175 q 290 -151 290 -121 l 290 -121 q 290 -92 302 -66 q 313 -40 333 -22 l 333 -22 l 275 -29 q 261 -46 252 -70 q 242 -95 242 -124 l 242 -124 q 242 -156 255 -183 q 267 -211 294 -227 q 320 -244 361 -244 l 361 -244 q 393 -244 420 -230 q 447 -217 463 -190 q 479 -163 479 -122 l 479 -122 q 479 -83 461 -53 q 443 -23 407 -5 q 371 12 317 12 z"},"ൈ":{"ha":1254,"x_min":41,"x_max":1213,"o":"m 208 12 l 208 12 q 163 12 125 -11 q 86 -35 64 -88 q 41 -142 41 -230 l 41 -230 q 41 -309 63 -370 q 85 -432 125 -475 q 164 -518 216 -540 q 268 -562 327 -562 l 327 -562 q 392 -562 441 -541 q 489 -520 522 -482 q 554 -445 570 -394 q 586 -343 586 -283 l 586 -283 q 586 -210 567 -155 q 548 -101 516 -61 q 484 -22 446 8 l 446 8 l 412 -32 q 443 -56 470 -89 q 496 -122 513 -168 q 529 -215 529 -278 l 529 -278 q 529 -348 507 -401 q 484 -454 439 -484 q 393 -514 325 -514 l 325 -514 q 260 -514 208 -478 q 155 -443 124 -379 q 93 -315 93 -228 l 93 -228 q 93 -160 108 -117 q 122 -75 148 -55 q 173 -35 208 -35 l 208 -35 q 233 -35 253 -47 q 273 -59 285 -85 q 296 -111 296 -154 l 296 -154 q 296 -207 272 -237 q 247 -267 201 -267 l 201 -267 q 162 -267 130 -248 q 97 -229 73 -200 l 73 -200 l 60 -241 q 91 -276 130 -295 q 168 -315 209 -315 l 209 -315 q 250 -315 282 -297 q 313 -280 332 -244 q 350 -209 350 -156 l 350 -156 q 350 -100 332 -62 q 313 -25 282 -6 q 250 12 208 12 z m 835 12 l 835 12 q 790 12 752 -11 q 713 -35 691 -88 q 668 -142 668 -230 l 668 -230 q 668 -309 690 -370 q 712 -432 752 -475 q 791 -518 843 -540 q 895 -562 954 -562 l 954 -562 q 1019 -562 1068 -541 q 1116 -520 1149 -482 q 1181 -445 1197 -394 q 1213 -343 1213 -283 l 1213 -283 q 1213 -210 1194 -155 q 1175 -101 1143 -61 q 1111 -22 1073 8 l 1073 8 l 1039 -32 q 1070 -56 1097 -89 q 1123 -122 1140 -168 q 1156 -215 1156 -278 l 1156 -278 q 1156 -348 1134 -401 q 1111 -454 1066 -484 q 1020 -514 952 -514 l 952 -514 q 887 -514 835 -478 q 782 -443 751 -379 q 720 -315 720 -228 l 720 -228 q 720 -160 735 -117 q 749 -75 775 -55 q 800 -35 835 -35 l 835 -35 q 860 -35 880 -47 q 900 -59 912 -85 q 923 -111 923 -154 l 923 -154 q 923 -207 899 -237 q 874 -267 828 -267 l 828 -267 q 789 -267 757 -248 q 724 -229 700 -200 l 700 -200 l 687 -241 q 718 -276 757 -295 q 795 -315 836 -315 l 836 -315 q 877 -315 909 -297 q 940 -280 959 -244 q 977 -209 977 -156 l 977 -156 q 977 -100 959 -62 q 940 -25 909 -6 q 877 12 835 12 z"},"ൊ":{"ha":1214,"x_min":41,"x_max":1171,"o":"m 208 12 l 208 12 q 163 12 125 -11 q 86 -35 64 -88 q 41 -142 41 -230 l 41 -230 q 41 -309 63 -370 q 85 -432 125 -475 q 164 -518 216 -540 q 268 -562 327 -562 l 327 -562 q 392 -562 441 -541 q 489 -520 522 -482 q 554 -445 570 -394 q 586 -343 586 -283 l 586 -283 q 586 -210 567 -155 q 548 -101 516 -61 q 484 -22 446 8 l 446 8 l 412 -32 q 443 -56 470 -89 q 496 -122 513 -168 q 529 -215 529 -278 l 529 -278 q 529 -348 507 -401 q 484 -454 439 -484 q 393 -514 325 -514 l 325 -514 q 260 -514 208 -478 q 155 -443 124 -379 q 93 -315 93 -228 l 93 -228 q 93 -160 108 -117 q 122 -75 148 -55 q 173 -35 208 -35 l 208 -35 q 233 -35 253 -47 q 273 -59 285 -85 q 296 -111 296 -154 l 296 -154 q 296 -207 272 -237 q 247 -267 201 -267 l 201 -267 q 162 -267 130 -248 q 97 -229 73 -200 l 73 -200 l 60 -241 q 91 -276 130 -295 q 168 -315 209 -315 l 209 -315 q 250 -315 282 -297 q 313 -280 332 -244 q 350 -209 350 -156 l 350 -156 q 350 -100 332 -62 q 313 -25 282 -6 q 250 12 208 12 z m 704 -250 l 704 -250 q 683 -250 673 -262 q 662 -275 662 -299 l 662 -299 q 662 -323 673 -335 q 683 -348 704 -348 l 704 -348 q 725 -348 736 -335 q 747 -323 747 -299 l 747 -299 q 747 -275 736 -262 q 725 -250 704 -250 z m 1171 -277 l 1171 -277 q 1171 -214 1161 -161 q 1150 -108 1128 -69 q 1105 -31 1068 -9 q 1031 12 978 12 l 978 12 q 935 12 904 -2 q 872 -17 851 -42 q 829 -67 816 -99 q 802 -131 794 -165 l 794 -165 l 850 -176 q 858 -140 873 -108 q 887 -76 912 -55 q 937 -35 976 -35 l 976 -35 q 1027 -35 1057 -64 q 1087 -94 1101 -148 q 1115 -202 1115 -277 l 1115 -277 q 1115 -350 1101 -403 q 1087 -457 1057 -486 q 1027 -515 980 -515 l 980 -515 q 943 -515 918 -495 q 892 -475 877 -443 q 861 -412 852 -376 l 852 -376 l 797 -387 q 806 -421 821 -452 q 835 -484 858 -508 q 880 -533 911 -547 q 942 -562 984 -562 l 984 -562 q 1035 -562 1071 -540 q 1106 -518 1129 -479 q 1151 -440 1161 -388 q 1171 -337 1171 -277 z"},"ോ":{"ha":1093,"x_min":41,"x_max":1050,"o":"m 317 12 l 317 12 q 262 12 212 -5 q 162 -22 124 -57 q 85 -93 63 -148 q 41 -203 41 -279 l 41 -279 q 41 -353 65 -406 q 88 -460 128 -494 q 168 -529 218 -545 q 268 -562 320 -562 l 320 -562 q 376 -562 413 -544 q 449 -527 467 -497 q 484 -467 484 -429 l 484 -429 q 484 -389 469 -361 q 453 -334 427 -320 q 401 -306 369 -306 l 369 -306 q 326 -306 299 -322 q 272 -339 260 -367 q 247 -395 247 -429 l 247 -429 q 247 -458 257 -482 q 267 -506 283 -524 l 283 -524 l 340 -530 q 320 -513 308 -486 q 295 -459 295 -431 l 295 -431 q 295 -398 312 -374 q 328 -351 367 -351 l 367 -351 q 400 -351 416 -372 q 432 -393 432 -429 l 432 -429 q 432 -473 404 -495 q 376 -518 334 -518 l 334 -518 q 325 -518 316 -518 q 306 -518 297 -517 l 297 -517 q 238 -513 193 -482 q 148 -452 123 -400 q 97 -348 97 -278 l 97 -278 q 97 -206 121 -153 q 144 -101 187 -70 q 230 -40 289 -33 l 289 -33 q 299 -33 309 -32 q 319 -32 328 -32 l 328 -32 q 357 -32 379 -42 q 401 -52 415 -72 q 428 -93 428 -123 l 428 -123 q 428 -157 412 -178 q 395 -199 361 -199 l 361 -199 q 323 -199 307 -175 q 290 -151 290 -121 l 290 -121 q 290 -92 302 -66 q 313 -40 333 -22 l 333 -22 l 275 -29 q 261 -46 252 -70 q 242 -95 242 -124 l 242 -124 q 242 -156 255 -183 q 267 -211 294 -227 q 320 -244 361 -244 l 361 -244 q 393 -244 420 -230 q 447 -217 463 -190 q 479 -163 479 -122 l 479 -122 q 479 -83 461 -53 q 443 -23 407 -5 q 371 12 317 12 z m 583 -250 l 583 -250 q 562 -250 552 -262 q 541 -275 541 -299 l 541 -299 q 541 -323 552 -335 q 562 -348 583 -348 l 583 -348 q 604 -348 615 -335 q 626 -323 626 -299 l 626 -299 q 626 -275 615 -262 q 604 -250 583 -250 z m 1050 -277 l 1050 -277 q 1050 -214 1040 -161 q 1029 -108 1007 -69 q 984 -31 947 -9 q 910 12 857 12 l 857 12 q 814 12 783 -2 q 751 -17 730 -42 q 708 -67 695 -99 q 681 -131 673 -165 l 673 -165 l 729 -176 q 737 -140 752 -108 q 766 -76 791 -55 q 816 -35 855 -35 l 855 -35 q 906 -35 936 -64 q 966 -94 980 -148 q 994 -202 994 -277 l 994 -277 q 994 -350 980 -403 q 966 -457 936 -486 q 906 -515 859 -515 l 859 -515 q 822 -515 797 -495 q 771 -475 756 -443 q 740 -412 731 -376 l 731 -376 l 676 -387 q 685 -421 700 -452 q 714 -484 737 -508 q 759 -533 790 -547 q 821 -562 863 -562 l 863 -562 q 914 -562 950 -540 q 985 -518 1008 -479 q 1030 -440 1040 -388 q 1050 -337 1050 -277 z"},"ൌ":{"ha":1447,"x_min":41,"x_max":1405,"o":"m 208 12 l 208 12 q 163 12 125 -11 q 86 -35 64 -88 q 41 -142 41 -230 l 41 -230 q 41 -309 63 -370 q 85 -432 125 -475 q 164 -518 216 -540 q 268 -562 327 -562 l 327 -562 q 392 -562 441 -541 q 489 -520 522 -482 q 554 -445 570 -394 q 586 -343 586 -283 l 586 -283 q 586 -210 567 -155 q 548 -101 516 -61 q 484 -22 446 8 l 446 8 l 412 -32 q 443 -56 470 -89 q 496 -122 513 -168 q 529 -215 529 -278 l 529 -278 q 529 -348 507 -401 q 484 -454 439 -484 q 393 -514 325 -514 l 325 -514 q 260 -514 208 -478 q 155 -443 124 -379 q 93 -315 93 -228 l 93 -228 q 93 -160 108 -117 q 122 -75 148 -55 q 173 -35 208 -35 l 208 -35 q 233 -35 253 -47 q 273 -59 285 -85 q 296 -111 296 -154 l 296 -154 q 296 -207 272 -237 q 247 -267 201 -267 l 201 -267 q 162 -267 130 -248 q 97 -229 73 -200 l 73 -200 l 60 -241 q 91 -276 130 -295 q 168 -315 209 -315 l 209 -315 q 250 -315 282 -297 q 313 -280 332 -244 q 350 -209 350 -156 l 350 -156 q 350 -100 332 -62 q 313 -25 282 -6 q 250 12 208 12 z m 704 -250 l 704 -250 q 683 -250 673 -262 q 662 -275 662 -299 l 662 -299 q 662 -323 673 -335 q 683 -348 704 -348 l 704 -348 q 725 -348 736 -335 q 747 -323 747 -299 l 747 -299 q 747 -275 736 -262 q 725 -250 704 -250 z m 1232 -562 l 1232 -562 q 1287 -562 1326 -531 q 1364 -500 1385 -442 q 1405 -384 1405 -303 l 1405 -303 q 1405 -198 1378 -128 q 1351 -58 1297 -23 q 1243 12 1161 12 l 1161 12 q 1107 12 1064 2 q 1020 -9 977 -31 l 977 -31 l 1004 -76 q 1041 -57 1077 -47 q 1112 -37 1159 -37 l 1159 -37 q 1231 -37 1273 -69 q 1314 -101 1331 -160 q 1348 -220 1348 -303 l 1348 -303 q 1348 -410 1316 -462 q 1284 -514 1230 -514 l 1230 -514 q 1204 -514 1187 -504 q 1169 -495 1158 -479 l 1158 -479 q 1142 -457 1137 -424 q 1132 -392 1132 -344 l 1132 -344 l 1132 -257 l 1077 -257 l 1077 -343 q 1077 -393 1071 -426 q 1064 -460 1049 -479 l 1049 -479 q 1037 -497 1019 -505 q 1001 -514 977 -514 l 977 -514 q 925 -514 899 -476 q 872 -438 872 -381 l 872 -381 q 872 -348 877 -320 q 881 -292 889 -264 l 889 -264 l 837 -253 q 828 -283 823 -317 q 817 -351 817 -384 l 817 -384 q 817 -434 835 -474 q 853 -514 888 -538 q 923 -562 975 -562 l 975 -562 q 1025 -562 1059 -536 q 1092 -511 1108 -454 l 1108 -454 l 1098 -453 q 1115 -511 1150 -536 q 1185 -562 1232 -562 z"},"്":{"ha":0,"x_min":-251,"x_max":53,"o":"m -100 -596 l -100 -596 q -148 -596 -182 -614 q -216 -632 -233 -666 q -251 -700 -251 -749 l -251 -749 q -251 -765 -249 -782 q -247 -799 -243 -812 l -243 -812 l -194 -803 q -198 -791 -199 -777 q -201 -764 -201 -750 l -201 -750 q -201 -709 -187 -685 q -174 -662 -151 -652 q -129 -642 -100 -642 l -100 -642 q -70 -642 -47 -652 q -24 -662 -10 -685 q 3 -709 3 -749 l 3 -749 q 3 -764 1 -777 q -1 -791 -4 -803 l -4 -803 l 44 -812 q 48 -800 51 -783 q 53 -766 53 -749 l 53 -749 q 53 -700 35 -666 q 16 -632 -18 -614 q -53 -596 -100 -596 z"},"ൎ":{"ha":0,"x_min":-314,"x_max":-248,"o":"m -314 -803 l -248 -803 l -255 -626 l -307 -626 l -314 -803 z"},"൏":{"ha":1098,"x_min":49,"x_max":1053,"o":"m 514 -562 l 514 -562 q 592 -562 636 -529 q 680 -496 703 -439 l 703 -439 l 693 -444 q 714 -503 752 -532 q 790 -562 850 -562 l 850 -562 q 916 -562 961 -523 q 1006 -485 1030 -412 q 1053 -340 1053 -236 l 1053 -236 q 1053 -85 1002 18 q 950 121 840 174 q 730 226 553 226 l 553 226 q 434 226 348 202 q 261 177 204 133 q 146 89 112 31 q 78 -28 64 -94 q 49 -161 49 -230 l 49 -230 q 49 -309 67 -381 q 84 -454 116 -531 l 116 -531 l 167 -511 q 135 -442 120 -371 q 104 -301 104 -232 l 104 -232 q 104 -173 115 -114 q 126 -56 154 -3 q 182 49 233 89 q 283 129 362 153 q 441 176 555 176 l 555 176 q 673 176 758 150 q 842 124 895 72 q 947 20 972 -57 q 997 -135 997 -237 l 997 -237 q 997 -322 981 -384 q 964 -446 932 -480 q 899 -514 851 -514 l 851 -514 q 819 -514 798 -504 q 777 -494 761 -475 l 761 -475 q 741 -452 733 -413 q 724 -375 724 -311 l 724 -311 l 724 0 l 669 0 l 669 -315 q 669 -381 657 -419 q 645 -457 619 -480 l 619 -480 q 600 -497 576 -505 q 551 -514 514 -514 l 514 -514 q 447 -514 398 -478 q 349 -442 323 -380 q 296 -318 296 -239 l 296 -239 l 296 -225 q 296 -159 311 -117 q 325 -75 351 -55 q 376 -35 411 -35 l 411 -35 q 436 -35 456 -47 q 475 -59 487 -85 q 498 -111 498 -153 l 498 -153 q 498 -207 474 -237 q 450 -267 403 -267 l 403 -267 q 365 -267 333 -248 q 300 -229 275 -199 l 275 -199 l 263 -241 q 293 -276 332 -295 q 371 -315 412 -315 l 412 -315 q 452 -315 484 -297 q 516 -280 534 -244 q 552 -209 552 -156 l 552 -156 q 552 -100 534 -62 q 516 -25 485 -6 q 453 12 411 12 l 411 12 q 365 12 327 -12 q 289 -36 267 -89 q 244 -143 244 -233 l 244 -233 q 244 -338 279 -411 q 314 -485 375 -523 q 436 -562 514 -562 z"},"ൔ":{"ha":562,"x_min":56,"x_max":552,"o":"m 144 -792 l 144 -792 q 174 -792 196 -784 q 218 -777 233 -765 l 233 -765 q 256 -746 266 -718 q 275 -690 275 -643 l 275 -643 l 275 -511 q 275 -457 281 -414 q 287 -371 305 -332 q 322 -293 355 -250 l 355 -250 l 369 -234 q 401 -196 446 -150 q 490 -105 552 -46 l 552 -46 l 529 0 l 59 0 l 59 -265 q 59 -315 66 -355 q 72 -396 86 -428 q 100 -461 122 -488 l 122 -488 q 150 -522 191 -541 q 231 -561 282 -561 l 282 -561 q 336 -561 372 -537 q 407 -513 425 -474 q 442 -436 442 -390 l 442 -390 q 442 -344 424 -299 q 406 -255 374 -214 l 374 -214 l 362 -200 q 338 -170 309 -141 q 279 -113 247 -85 q 214 -57 179 -29 l 179 -29 l 177 -43 q 203 -45 230 -46 q 256 -47 287 -47 l 287 -47 l 419 -47 q 435 -47 452 -47 q 469 -47 485 -46 q 501 -46 514 -44 l 514 -44 l 489 -42 q 442 -86 404 -124 q 366 -163 336 -198 l 336 -198 l 323 -213 q 283 -263 261 -307 q 239 -351 230 -398 q 221 -446 221 -506 l 221 -506 l 221 -635 q 221 -673 215 -694 q 208 -715 193 -727 l 193 -727 q 183 -735 170 -739 q 157 -743 138 -743 l 138 -743 q 119 -743 101 -740 q 83 -738 68 -733 l 68 -733 l 56 -780 q 73 -785 97 -788 q 120 -792 144 -792 z m 114 -250 l 114 -46 l 122 -46 q 165 -78 203 -110 q 240 -142 272 -174 q 304 -207 328 -239 l 328 -239 l 339 -253 q 362 -286 374 -320 q 386 -354 386 -389 l 386 -389 q 386 -425 374 -453 q 361 -481 336 -498 q 311 -515 271 -515 l 271 -515 q 231 -515 202 -495 q 173 -476 155 -445 l 155 -445 q 141 -423 132 -395 q 123 -367 119 -331 q 114 -296 114 -250 l 114 -250 z"},"ൕ":{"ha":907,"x_min":41,"x_max":865,"o":"m 603 12 l 603 12 q 571 12 544 8 q 517 4 494 -4 q 470 -13 448 -25 l 448 -25 q 444 -28 439 -31 q 433 -35 429 -37 l 429 -37 q 382 -72 351 -119 q 319 -166 304 -222 q 288 -279 288 -340 l 288 -340 q 288 -382 297 -419 q 306 -456 324 -485 l 324 -485 l 332 -495 q 347 -517 367 -531 q 387 -546 412 -554 q 436 -562 465 -562 l 465 -562 q 547 -562 594 -503 q 640 -444 640 -338 l 640 -338 q 640 -272 624 -215 q 608 -159 577 -114 q 546 -69 501 -39 l 501 -39 q 497 -36 492 -33 q 486 -30 481 -26 l 481 -26 q 448 -7 411 3 q 373 12 327 12 l 327 12 q 259 12 206 -13 q 153 -39 116 -84 q 79 -130 60 -193 q 41 -256 41 -330 l 41 -330 q 41 -405 66 -456 q 90 -508 133 -535 q 175 -562 228 -562 l 228 -562 q 279 -562 313 -542 q 346 -522 371 -493 l 371 -493 l 333 -457 q 316 -482 291 -498 q 266 -515 230 -515 l 230 -515 q 194 -515 164 -495 q 133 -475 115 -434 q 97 -393 97 -329 l 97 -329 q 97 -245 124 -178 q 150 -112 202 -73 q 254 -34 330 -34 l 330 -34 q 360 -34 385 -38 q 409 -43 431 -52 l 431 -52 q 437 -55 444 -58 q 450 -61 455 -63 l 455 -63 q 496 -87 525 -128 q 554 -169 569 -223 q 584 -277 584 -337 l 584 -337 q 584 -401 568 -440 q 552 -479 525 -497 q 498 -515 465 -515 l 465 -515 q 428 -515 401 -494 q 373 -473 359 -433 q 344 -394 344 -337 l 344 -337 q 344 -284 359 -230 q 373 -177 402 -133 q 431 -90 473 -63 l 473 -63 q 479 -61 484 -59 q 488 -57 494 -55 l 494 -55 q 514 -45 540 -39 q 565 -34 601 -34 l 601 -34 q 678 -34 724 -61 q 769 -89 789 -135 q 809 -182 809 -239 l 809 -239 q 809 -283 799 -320 q 789 -358 770 -394 q 751 -430 726 -468 l 726 -468 q 698 -511 680 -543 q 661 -576 652 -604 q 642 -633 642 -665 l 642 -665 q 642 -694 655 -723 q 668 -753 698 -772 q 727 -792 776 -792 l 776 -792 q 801 -792 825 -788 q 848 -784 865 -779 l 865 -779 l 852 -732 q 837 -737 820 -740 q 802 -743 782 -743 l 782 -743 q 737 -743 717 -718 q 697 -693 697 -660 l 697 -660 q 697 -637 706 -614 q 714 -592 731 -563 q 748 -535 774 -494 l 774 -494 q 802 -453 822 -412 q 842 -372 854 -330 q 865 -288 865 -243 l 865 -243 q 865 -198 855 -159 q 845 -120 825 -88 q 804 -57 773 -34 q 741 -12 699 0 q 657 12 603 12 z"},"ൖ":{"ha":621,"x_min":38,"x_max":582,"o":"m 163 -152 l 163 -152 q 163 -120 173 -94 q 183 -68 207 -52 q 231 -36 274 -36 l 274 -36 q 327 -36 347 -59 q 366 -83 366 -120 l 366 -120 q 366 -158 354 -191 q 342 -225 327 -259 q 311 -293 299 -330 q 287 -367 287 -412 l 287 -412 q 287 -452 304 -486 q 320 -521 353 -541 q 386 -562 434 -562 l 434 -562 q 487 -562 520 -538 q 552 -515 567 -477 q 582 -440 582 -397 l 582 -397 q 582 -330 553 -276 q 524 -222 467 -191 q 410 -160 326 -160 l 326 -160 l 312 -160 q 263 -160 224 -169 q 184 -178 151 -197 l 151 -197 l 132 -205 q 101 -226 81 -254 q 60 -282 49 -318 q 38 -354 38 -397 l 38 -397 q 38 -439 50 -480 q 62 -521 87 -562 l 87 -562 l 131 -537 q 110 -499 102 -466 q 94 -433 94 -398 l 94 -398 q 94 -349 107 -315 q 120 -281 144 -257 l 144 -257 l 161 -246 q 189 -226 228 -216 q 266 -207 311 -207 l 311 -207 l 327 -207 q 397 -207 441 -232 q 485 -258 506 -301 q 527 -345 527 -398 l 527 -398 q 527 -447 506 -481 q 484 -515 434 -515 l 434 -515 q 402 -515 381 -501 q 360 -487 350 -463 q 340 -439 340 -410 l 340 -410 q 340 -369 352 -332 q 364 -296 380 -261 q 396 -227 408 -192 q 420 -157 420 -119 l 420 -119 q 420 -95 413 -72 q 406 -49 390 -30 q 373 -11 345 1 q 317 12 273 12 l 273 12 q 221 12 185 -7 q 148 -27 129 -64 q 110 -102 110 -157 l 110 -157 q 110 -197 123 -238 q 135 -280 157 -328 q 179 -377 208 -438 l 208 -438 q 237 -495 253 -534 q 269 -573 276 -602 q 282 -631 282 -658 l 282 -658 q 282 -696 263 -719 q 244 -743 199 -743 l 199 -743 q 178 -743 160 -740 q 142 -737 127 -732 l 127 -732 l 115 -779 q 132 -784 156 -788 q 180 -792 206 -792 l 206 -792 q 256 -792 285 -773 q 313 -754 326 -725 q 338 -696 338 -666 l 338 -666 q 338 -642 334 -617 q 330 -593 321 -565 q 311 -537 295 -501 q 279 -466 254 -417 l 254 -417 q 231 -369 214 -332 q 196 -296 185 -265 q 174 -235 169 -208 q 163 -181 163 -152 z"},"ൗ":{"ha":668,"x_min":38,"x_max":626,"o":"m 453 -562 l 453 -562 q 508 -562 547 -531 q 585 -500 606 -442 q 626 -384 626 -303 l 626 -303 q 626 -198 599 -128 q 572 -58 518 -23 q 464 12 382 12 l 382 12 q 328 12 285 2 q 241 -9 198 -31 l 198 -31 l 225 -76 q 262 -57 298 -47 q 333 -37 380 -37 l 380 -37 q 452 -37 494 -69 q 535 -101 552 -160 q 569 -220 569 -303 l 569 -303 q 569 -410 537 -462 q 505 -514 451 -514 l 451 -514 q 425 -514 408 -504 q 390 -495 379 -479 l 379 -479 q 363 -457 358 -424 q 353 -392 353 -344 l 353 -344 l 353 -257 l 298 -257 l 298 -343 q 298 -393 292 -426 q 285 -460 270 -479 l 270 -479 q 258 -497 240 -505 q 222 -514 198 -514 l 198 -514 q 146 -514 120 -476 q 93 -438 93 -381 l 93 -381 q 93 -348 98 -320 q 102 -292 110 -264 l 110 -264 l 58 -253 q 49 -283 44 -317 q 38 -351 38 -384 l 38 -384 q 38 -434 56 -474 q 74 -514 109 -538 q 144 -562 196 -562 l 196 -562 q 246 -562 280 -536 q 313 -511 329 -454 l 329 -454 l 319 -453 q 336 -511 371 -536 q 406 -562 453 -562 z"},"൘":{"ha":1071,"x_min":41,"x_max":1024,"o":"m 534 12 l 534 12 q 476 12 438 -19 q 400 -51 382 -109 l 382 -109 l 390 -108 q 372 -50 336 -19 q 300 12 241 12 l 241 12 q 180 12 135 -21 q 90 -55 66 -115 q 41 -175 41 -256 l 41 -256 q 41 -331 59 -385 q 76 -440 106 -481 q 136 -522 173 -557 l 173 -557 l 211 -518 q 180 -489 154 -453 q 128 -418 113 -370 q 97 -322 97 -256 l 97 -256 q 97 -193 115 -143 q 132 -93 165 -64 q 197 -36 242 -36 l 242 -36 q 269 -36 289 -46 q 309 -56 323 -75 l 323 -75 q 344 -100 352 -139 q 359 -178 359 -236 l 359 -236 l 359 -550 l 414 -550 l 414 -230 q 414 -171 422 -134 q 430 -98 449 -74 l 449 -74 q 463 -57 485 -46 q 506 -36 533 -36 l 533 -36 q 563 -36 584 -46 q 605 -56 619 -73 l 619 -73 q 637 -96 645 -132 q 652 -168 652 -227 l 652 -227 l 652 -550 l 707 -550 l 707 -245 l 684 -109 q 669 -50 632 -19 q 594 12 534 12 z m 828 12 l 828 12 q 771 12 734 -17 q 696 -47 675 -108 l 675 -108 l 662 -227 l 662 -540 l 707 -540 l 707 -234 q 707 -175 715 -137 q 722 -100 742 -75 l 742 -75 q 757 -56 778 -46 q 798 -36 826 -36 l 826 -36 q 872 -36 904 -66 q 935 -97 952 -159 q 968 -221 968 -316 l 968 -316 q 968 -411 950 -487 q 932 -564 897 -621 q 862 -679 811 -717 q 760 -756 695 -775 q 630 -794 551 -794 l 551 -794 q 491 -794 437 -787 q 382 -781 335 -769 l 335 -769 l 327 -817 q 359 -826 395 -831 q 430 -837 469 -840 q 508 -843 552 -843 l 552 -843 q 641 -843 715 -821 q 789 -800 847 -757 q 904 -714 944 -650 q 983 -586 1004 -502 q 1024 -419 1024 -316 l 1024 -316 q 1024 -204 1001 -131 q 978 -59 935 -23 q 891 12 828 12 z"},"൙":{"ha":974,"x_min":41,"x_max":953,"o":"m 318 -562 l 318 -562 q 390 -562 444 -538 q 497 -514 533 -470 q 568 -426 586 -366 q 604 -307 604 -235 l 604 -235 q 604 -144 582 -89 q 559 -35 519 -11 q 478 12 426 12 l 426 12 q 373 12 339 -10 q 304 -32 288 -67 q 272 -103 272 -142 l 272 -142 q 272 -185 288 -216 q 303 -248 330 -268 l 330 -268 q 352 -285 379 -295 q 406 -306 444 -310 q 482 -315 534 -315 l 534 -315 l 578 -315 l 578 -268 l 535 -268 q 473 -268 433 -260 q 392 -253 365 -231 l 365 -231 q 347 -217 337 -195 q 327 -173 327 -143 l 327 -143 q 327 -93 353 -64 q 378 -35 425 -35 l 425 -35 q 467 -35 495 -55 q 522 -76 536 -120 q 550 -164 550 -237 l 550 -237 q 550 -254 549 -268 q 548 -282 546 -295 l 546 -295 l 545 -306 q 536 -369 508 -415 q 480 -462 433 -488 q 386 -514 319 -514 l 319 -514 q 253 -514 203 -485 q 153 -457 126 -404 q 98 -352 98 -279 l 98 -279 q 98 -220 112 -174 q 126 -129 153 -94 q 179 -60 214 -33 l 214 -33 l 180 7 q 144 -19 113 -58 q 81 -98 61 -153 q 41 -208 41 -281 l 41 -281 q 41 -337 58 -387 q 75 -438 109 -477 q 143 -517 196 -539 q 248 -562 318 -562 z m 817 -550 l 817 -550 q 864 -550 894 -531 q 924 -512 939 -481 q 953 -451 953 -415 l 953 -415 q 953 -379 942 -351 q 930 -324 908 -306 l 908 -306 q 890 -292 870 -283 q 849 -275 823 -271 q 797 -268 763 -268 l 763 -268 l 559 -268 l 560 -315 l 764 -315 q 806 -315 829 -321 q 852 -327 868 -339 l 868 -339 q 883 -351 891 -369 q 898 -388 898 -414 l 898 -414 q 898 -454 878 -478 q 857 -503 817 -503 l 817 -503 q 773 -503 750 -476 q 727 -449 727 -401 l 727 -401 q 727 -366 738 -338 q 748 -311 765 -286 l 765 -286 l 711 -281 q 696 -308 685 -339 q 674 -370 674 -408 l 674 -408 q 674 -453 693 -485 q 711 -517 744 -533 q 777 -550 817 -550 z"},"൚":{"ha":945,"x_min":41,"x_max":885,"o":"m 627 -562 l 627 -562 q 688 -562 733 -546 q 778 -531 809 -501 l 809 -501 q 835 -477 852 -444 q 869 -411 877 -367 q 885 -323 885 -265 l 885 -265 l 885 0 l 433 0 l 433 -46 q 499 -102 552 -162 q 605 -223 636 -284 q 667 -346 667 -405 l 667 -405 q 667 -434 659 -458 q 651 -482 633 -496 q 615 -511 584 -511 l 584 -511 q 548 -511 520 -494 q 492 -477 472 -449 l 472 -449 q 447 -414 438 -370 q 428 -326 428 -259 l 428 -259 l 428 -230 l 373 -230 l 373 -312 q 373 -375 365 -413 q 357 -451 336 -474 l 336 -474 q 321 -494 300 -504 q 279 -514 250 -514 l 250 -514 q 202 -514 168 -485 q 133 -456 115 -406 q 97 -356 97 -294 l 97 -294 q 97 -229 113 -180 q 128 -132 154 -96 q 180 -61 212 -32 l 212 -32 l 173 7 q 137 -28 107 -69 q 76 -110 59 -164 q 41 -219 41 -294 l 41 -294 q 41 -374 67 -434 q 92 -495 139 -528 q 186 -562 250 -562 l 250 -562 q 303 -562 336 -541 q 368 -520 387 -485 q 405 -451 416 -409 l 416 -409 l 395 -406 q 412 -462 446 -496 q 479 -530 525 -546 q 571 -562 627 -562 z m 723 -400 l 723 -400 q 723 -337 693 -275 q 663 -213 611 -151 q 558 -90 488 -27 l 488 -27 l 487 -43 q 514 -45 550 -46 q 586 -47 617 -47 l 617 -47 l 831 -47 l 831 -259 q 831 -337 814 -391 q 797 -446 760 -477 q 722 -509 659 -516 l 659 -516 l 658 -521 q 693 -503 708 -472 q 723 -441 723 -400 z"},"൛":{"ha":846,"x_min":70,"x_max":805,"o":"m 547 12 l 547 12 q 485 12 438 -9 q 391 -30 359 -68 q 327 -106 311 -157 q 295 -208 295 -267 l 295 -267 q 295 -332 311 -379 q 326 -426 350 -460 q 373 -494 397 -517 l 397 -517 l 403 -503 l 125 -503 l 125 0 l 70 0 l 70 -550 l 437 -550 l 461 -511 q 435 -490 410 -457 q 385 -425 369 -379 q 352 -334 352 -272 l 352 -272 q 352 -203 375 -150 q 397 -97 441 -66 q 485 -36 549 -36 l 549 -36 q 614 -36 659 -67 q 703 -99 726 -152 q 748 -205 748 -271 l 748 -271 q 748 -330 734 -375 q 720 -421 694 -455 q 668 -490 632 -517 l 632 -517 l 666 -557 q 702 -531 734 -491 q 765 -452 785 -397 q 805 -342 805 -269 l 805 -269 q 805 -209 788 -158 q 771 -107 738 -69 q 705 -31 657 -9 q 609 12 547 12 z"},"൜":{"ha":1335,"x_min":41,"x_max":1294,"o":"m 806 -562 l 806 -562 q 845 -562 875 -550 q 905 -538 926 -514 l 926 -514 q 942 -496 952 -471 q 962 -447 967 -411 q 972 -375 972 -320 l 972 -320 l 972 -254 q 972 -187 978 -144 q 984 -102 1004 -75 l 1004 -75 q 1018 -57 1039 -46 q 1059 -36 1094 -36 l 1094 -36 q 1139 -36 1171 -62 q 1203 -89 1220 -138 q 1237 -188 1237 -257 l 1237 -257 q 1237 -321 1222 -369 q 1207 -418 1181 -455 q 1155 -492 1123 -521 l 1123 -521 l 1159 -560 q 1199 -524 1230 -481 q 1260 -439 1277 -384 q 1294 -329 1294 -255 l 1294 -255 q 1294 -172 1270 -112 q 1245 -52 1200 -20 q 1155 12 1093 12 l 1093 12 q 1049 12 1018 -1 q 986 -15 965 -38 l 965 -38 q 946 -60 936 -86 q 925 -113 921 -148 q 916 -184 916 -230 l 916 -230 l 916 -316 q 916 -378 910 -417 q 904 -457 884 -481 l 884 -481 q 870 -497 851 -505 q 831 -514 806 -514 l 806 -514 q 781 -514 761 -506 q 741 -498 728 -482 l 728 -482 q 708 -457 702 -417 q 695 -377 695 -312 l 695 -312 l 695 -230 q 695 -177 690 -140 q 685 -103 675 -78 q 664 -53 647 -34 l 647 -34 q 627 -12 598 0 q 568 12 529 12 l 529 12 q 489 12 460 0 q 430 -12 409 -36 l 409 -36 q 393 -55 383 -79 q 373 -103 368 -139 q 363 -176 363 -230 l 363 -230 l 363 -296 q 363 -364 357 -406 q 351 -449 331 -475 l 331 -475 q 317 -493 297 -503 q 276 -514 240 -514 l 240 -514 q 197 -514 165 -487 q 132 -461 115 -411 q 97 -362 97 -294 l 97 -294 q 97 -229 112 -180 q 127 -132 154 -95 q 180 -59 212 -29 l 212 -29 l 175 9 q 136 -27 106 -69 q 75 -112 58 -167 q 41 -222 41 -295 l 41 -295 q 41 -378 65 -438 q 89 -498 135 -530 q 180 -562 243 -562 l 243 -562 q 286 -562 318 -549 q 349 -536 369 -512 l 369 -512 q 389 -490 400 -463 q 410 -436 414 -400 q 418 -365 418 -316 l 418 -316 l 418 -234 q 418 -172 425 -132 q 431 -93 451 -69 l 451 -69 q 464 -53 484 -44 q 504 -36 529 -36 l 529 -36 q 554 -36 574 -44 q 593 -52 607 -68 l 607 -68 q 627 -93 634 -133 q 640 -173 640 -234 l 640 -234 l 640 -319 q 640 -374 645 -411 q 650 -448 661 -472 q 671 -497 688 -516 l 688 -516 q 708 -539 738 -550 q 767 -562 806 -562 z"},"൝":{"ha":1786,"x_min":10,"x_max":1745,"o":"m 703 -562 l 703 -562 q 743 -562 773 -550 q 802 -538 823 -514 l 823 -514 q 839 -496 849 -471 q 859 -447 864 -411 q 869 -375 869 -320 l 869 -320 l 869 -234 q 869 -172 876 -132 q 882 -93 902 -69 l 902 -69 q 915 -53 935 -44 q 955 -36 980 -36 l 980 -36 q 1005 -36 1025 -44 q 1044 -52 1057 -68 l 1057 -68 q 1078 -93 1085 -133 q 1091 -173 1091 -234 l 1091 -234 l 1091 -319 q 1091 -374 1096 -411 q 1100 -448 1111 -472 q 1122 -497 1138 -516 l 1138 -516 q 1159 -539 1188 -550 q 1217 -562 1256 -562 l 1256 -562 q 1296 -562 1326 -550 q 1356 -538 1377 -514 l 1377 -514 q 1393 -496 1403 -471 q 1413 -447 1418 -411 q 1422 -375 1422 -320 l 1422 -320 l 1422 -254 q 1422 -187 1429 -144 q 1435 -102 1455 -75 l 1455 -75 q 1468 -57 1489 -46 q 1510 -36 1545 -36 l 1545 -36 q 1590 -36 1622 -62 q 1654 -89 1671 -138 q 1688 -188 1688 -257 l 1688 -257 q 1688 -321 1673 -369 q 1658 -418 1632 -455 q 1606 -492 1573 -521 l 1573 -521 l 1610 -560 q 1649 -524 1680 -481 q 1710 -439 1728 -384 q 1745 -329 1745 -255 l 1745 -255 q 1745 -172 1721 -112 q 1696 -52 1651 -20 q 1606 12 1544 12 l 1544 12 q 1500 12 1469 -1 q 1437 -15 1416 -38 l 1416 -38 q 1397 -60 1387 -86 q 1376 -113 1372 -148 q 1367 -184 1367 -230 l 1367 -230 l 1367 -316 q 1367 -378 1361 -417 q 1355 -457 1334 -481 l 1334 -481 q 1321 -497 1302 -505 q 1282 -514 1257 -514 l 1257 -514 q 1232 -514 1212 -506 q 1192 -498 1179 -482 l 1179 -482 q 1159 -457 1153 -417 q 1146 -377 1146 -312 l 1146 -312 l 1146 -230 q 1146 -177 1141 -140 q 1136 -103 1126 -78 q 1115 -53 1098 -34 l 1098 -34 q 1077 -12 1048 0 q 1019 12 980 12 l 980 12 q 940 12 911 0 q 881 -12 860 -36 l 860 -36 q 844 -55 834 -79 q 824 -103 819 -139 q 814 -176 814 -230 l 814 -230 l 814 -316 q 814 -378 808 -417 q 801 -457 781 -481 l 781 -481 q 768 -497 749 -505 q 729 -514 704 -514 l 704 -514 q 679 -514 659 -506 q 639 -498 626 -482 l 626 -482 q 605 -457 599 -417 q 592 -377 592 -312 l 592 -312 l 592 -222 q 592 -148 582 -107 q 571 -67 544 -38 l 544 -38 q 523 -14 492 -1 q 461 12 419 12 l 419 12 q 358 12 320 -21 q 282 -54 267 -116 l 267 -116 l 279 -109 q 267 -72 247 -44 q 226 -17 195 -2 q 163 12 118 12 l 118 12 q 90 12 63 6 q 36 -1 10 -14 l 10 -14 l 30 -59 q 48 -49 71 -42 q 93 -36 119 -36 l 119 -36 q 152 -36 174 -46 q 195 -57 210 -75 l 210 -75 q 231 -99 239 -137 q 247 -175 247 -237 l 247 -237 l 247 -550 l 302 -550 l 302 -224 q 302 -166 311 -128 q 319 -90 340 -67 l 340 -67 q 353 -52 373 -44 q 392 -36 418 -36 l 418 -36 q 448 -36 470 -46 q 491 -57 504 -74 l 504 -74 q 523 -99 530 -138 q 537 -177 537 -246 l 537 -246 l 537 -319 q 537 -374 542 -411 q 547 -448 558 -472 q 568 -497 585 -516 l 585 -516 q 606 -539 635 -550 q 664 -562 703 -562 z"},"൞":{"ha":1194,"x_min":41,"x_max":1164,"o":"m 318 -562 l 318 -562 q 390 -562 444 -538 q 497 -514 533 -470 q 568 -426 586 -366 q 604 -307 604 -235 l 604 -235 q 604 -144 582 -89 q 559 -35 519 -11 q 478 12 426 12 l 426 12 q 373 12 339 -10 q 304 -32 288 -67 q 272 -103 272 -142 l 272 -142 q 272 -185 288 -216 q 303 -248 330 -268 l 330 -268 q 352 -285 379 -295 q 406 -306 444 -310 q 482 -315 534 -315 l 534 -315 l 566 -315 l 566 -268 l 535 -268 q 473 -268 433 -260 q 392 -253 365 -231 l 365 -231 q 347 -217 337 -195 q 327 -173 327 -143 l 327 -143 q 327 -93 353 -64 q 378 -35 425 -35 l 425 -35 q 467 -35 495 -55 q 522 -76 536 -120 q 550 -164 550 -237 l 550 -237 q 550 -254 549 -268 q 548 -282 546 -295 l 546 -295 l 545 -306 q 536 -369 508 -415 q 480 -462 433 -488 q 386 -514 319 -514 l 319 -514 q 253 -514 203 -485 q 153 -457 126 -404 q 98 -352 98 -279 l 98 -279 q 98 -220 112 -174 q 126 -129 153 -94 q 179 -60 214 -33 l 214 -33 l 180 7 q 144 -19 113 -58 q 81 -98 61 -153 q 41 -208 41 -281 l 41 -281 q 41 -337 58 -387 q 75 -438 109 -477 q 143 -517 196 -539 q 248 -562 318 -562 z m 999 -214 l 999 -214 q 946 -214 909 -236 q 872 -259 853 -297 q 834 -335 834 -381 l 834 -381 q 834 -426 849 -461 q 864 -496 887 -517 l 887 -517 l 895 -503 l 697 -503 l 717 -514 q 737 -491 748 -463 q 759 -435 759 -406 l 759 -406 q 759 -350 734 -319 q 709 -289 668 -278 q 626 -268 578 -268 l 578 -268 l 554 -268 l 554 -315 l 576 -315 q 610 -315 640 -321 q 669 -327 688 -346 q 706 -366 706 -406 l 706 -406 q 706 -436 695 -459 q 684 -482 667 -504 l 667 -504 l 684 -550 l 916 -550 l 937 -514 q 914 -488 901 -457 q 888 -427 888 -388 l 888 -388 q 888 -328 918 -294 q 947 -261 999 -261 l 999 -261 q 1034 -261 1059 -277 q 1084 -294 1097 -322 q 1110 -350 1110 -384 l 1110 -384 q 1110 -428 1094 -461 q 1078 -494 1047 -521 l 1047 -521 l 1081 -558 q 1118 -524 1141 -482 q 1164 -441 1164 -383 l 1164 -383 q 1164 -334 1144 -295 q 1123 -257 1086 -235 q 1049 -214 999 -214 z"},"ൟ":{"ha":1173,"x_min":29,"x_max":1144,"o":"m 29 -266 l 29 -266 q 29 -322 61 -357 q 93 -393 146 -393 l 146 -393 q 199 -393 231 -358 q 263 -323 263 -266 l 263 -266 q 263 -209 231 -174 q 199 -139 146 -139 l 146 -139 q 92 -139 61 -174 q 29 -210 29 -266 z m 77 -267 l 77 -267 q 77 -229 95 -206 q 112 -184 146 -184 l 146 -184 q 180 -184 198 -206 q 215 -229 215 -267 l 215 -267 q 215 -304 198 -326 q 180 -348 146 -348 l 146 -348 q 113 -348 95 -326 q 77 -304 77 -267 z m 910 -266 l 910 -266 q 910 -322 942 -357 q 974 -393 1027 -393 l 1027 -393 q 1080 -393 1112 -358 q 1144 -323 1144 -266 l 1144 -266 q 1144 -209 1112 -174 q 1080 -139 1027 -139 l 1027 -139 q 973 -139 942 -174 q 910 -210 910 -266 z m 958 -267 l 958 -267 q 958 -229 976 -206 q 993 -184 1027 -184 l 1027 -184 q 1061 -184 1079 -206 q 1096 -229 1096 -267 l 1096 -267 q 1096 -304 1079 -326 q 1061 -348 1027 -348 l 1027 -348 q 994 -348 976 -326 q 958 -304 958 -267 z m 582 -562 l 582 -562 q 653 -562 707 -538 q 760 -515 796 -472 q 831 -429 850 -370 q 868 -312 868 -241 l 868 -241 q 868 -149 845 -93 q 822 -37 782 -12 q 742 12 691 12 l 691 12 q 635 12 599 -15 q 562 -42 545 -88 q 527 -135 527 -192 l 527 -192 q 527 -289 572 -340 q 617 -392 690 -392 l 690 -392 q 734 -392 766 -372 q 797 -353 819 -321 q 840 -289 851 -249 l 851 -249 l 833 -238 q 824 -264 806 -288 q 788 -312 762 -328 q 735 -345 700 -345 l 700 -345 q 639 -345 611 -304 q 582 -264 582 -193 l 582 -193 q 582 -146 593 -110 q 604 -75 628 -55 q 652 -35 692 -35 l 692 -35 q 730 -35 758 -56 q 785 -77 800 -123 q 814 -169 814 -245 l 814 -245 q 814 -252 813 -268 q 812 -284 810 -297 l 810 -297 q 810 -301 811 -307 q 811 -313 809 -317 l 809 -317 q 801 -369 775 -413 q 748 -458 701 -486 q 654 -514 583 -514 l 583 -514 q 517 -514 467 -485 q 417 -457 390 -404 q 362 -352 362 -279 l 362 -279 q 362 -220 376 -174 q 390 -129 417 -94 q 443 -60 478 -33 l 478 -33 l 444 7 q 408 -19 377 -58 q 345 -98 325 -153 q 305 -208 305 -281 l 305 -281 q 305 -337 322 -387 q 339 -438 373 -477 q 407 -517 460 -539 q 512 -562 582 -562 z"},"ൠ":{"ha":767,"x_min":38,"x_max":729,"o":"m 574 -562 l 574 -562 q 647 -562 688 -509 q 729 -456 729 -364 l 729 -364 q 729 -298 710 -251 q 691 -204 655 -171 l 655 -171 q 623 -140 578 -124 q 533 -108 474 -104 l 474 -104 l 403 -104 l 365 -105 l 304 -102 q 245 -105 199 -119 q 153 -134 119 -165 l 119 -165 q 81 -198 60 -247 q 38 -296 38 -362 l 38 -362 q 38 -423 58 -468 q 77 -513 114 -537 q 150 -562 200 -562 l 200 -562 q 246 -562 277 -541 q 308 -521 324 -487 q 339 -453 339 -411 l 339 -411 q 339 -368 324 -335 q 308 -302 277 -283 q 246 -264 200 -264 l 200 -264 q 166 -264 140 -274 q 113 -284 93 -300 q 72 -317 55 -335 l 55 -335 l 71 -376 q 85 -360 101 -345 q 117 -330 140 -320 q 162 -311 192 -311 l 192 -311 q 240 -311 263 -338 q 286 -365 286 -412 l 286 -412 q 286 -456 265 -485 q 243 -515 198 -515 l 198 -515 q 161 -515 137 -495 q 112 -476 101 -442 q 89 -408 89 -363 l 89 -363 q 89 -354 90 -344 q 91 -334 93 -324 l 93 -324 l 90 -312 q 100 -265 123 -231 q 146 -198 181 -178 q 216 -158 264 -148 q 312 -139 373 -139 l 373 -139 l 391 -139 q 454 -139 503 -148 q 552 -158 588 -178 q 623 -199 646 -232 q 668 -265 677 -312 l 677 -312 l 675 -325 q 676 -333 677 -343 q 678 -354 678 -361 l 678 -361 q 678 -409 667 -443 q 656 -477 633 -496 q 610 -515 573 -515 l 573 -515 q 527 -515 505 -485 q 482 -455 482 -409 l 482 -409 q 482 -364 505 -337 q 527 -311 574 -311 l 574 -311 q 605 -311 627 -320 q 649 -329 666 -343 q 683 -358 696 -374 l 696 -374 l 712 -334 q 696 -317 675 -300 q 654 -284 628 -274 q 601 -264 567 -264 l 567 -264 q 521 -264 490 -283 q 459 -302 444 -335 q 429 -369 429 -410 l 429 -410 q 429 -452 445 -486 q 461 -521 494 -541 q 526 -562 574 -562 z m 384 208 l 384 208 q 276 208 206 190 q 135 171 102 132 q 68 93 68 34 l 68 34 q 68 -10 89 -40 q 110 -71 147 -89 q 184 -108 233 -116 q 282 -124 337 -124 l 337 -124 l 429 -124 q 485 -124 534 -116 q 583 -108 620 -89 q 657 -71 679 -40 q 700 -10 700 35 l 700 35 q 700 91 668 130 q 635 168 566 188 q 496 208 384 208 z m 384 161 l 384 161 q 480 161 537 147 q 593 132 619 104 q 644 75 644 34 l 644 34 q 644 -1 627 -25 q 609 -50 576 -64 q 543 -79 496 -86 q 448 -93 387 -93 l 387 -93 l 378 -93 q 297 -93 241 -80 q 184 -68 154 -40 q 124 -12 124 34 l 124 34 q 124 76 149 105 q 174 133 232 147 q 289 161 384 161 z m 458 -40 l 458 -40 q 486 -40 503 -29 q 520 -19 530 -2 q 539 14 543 33 q 546 51 546 68 l 546 68 l 546 98 l 501 98 l 501 77 q 501 39 490 22 q 479 5 454 5 l 454 5 q 429 5 418 24 q 406 43 406 76 l 406 76 l 406 98 l 361 98 l 361 76 q 361 43 350 24 q 339 5 313 5 l 313 5 q 288 5 277 23 q 266 41 266 77 l 266 77 l 266 98 l 221 98 l 221 68 q 221 51 225 33 q 229 14 239 -2 q 248 -19 265 -29 q 282 -40 309 -40 l 309 -40 q 337 -40 355 -27 q 373 -14 384 10 l 384 10 q 394 -13 413 -26 q 431 -40 458 -40 z"},"ൡ":{"ha":1153,"x_min":44,"x_max":1125,"o":"m 314 -562 l 314 -562 q 392 -562 438 -528 q 483 -494 506 -431 l 506 -431 l 513 -384 l 524 -263 l 524 0 l 469 0 l 469 -315 q 469 -381 457 -419 q 444 -457 419 -480 l 419 -480 q 399 -497 375 -505 q 350 -514 313 -514 l 313 -514 q 247 -514 198 -478 q 149 -442 123 -380 q 96 -318 96 -239 l 96 -239 l 96 -225 q 96 -159 110 -117 q 124 -75 150 -55 q 176 -35 211 -35 l 211 -35 q 235 -35 255 -47 q 275 -59 287 -85 q 298 -111 298 -153 l 298 -153 q 298 -207 274 -237 q 249 -267 203 -267 l 203 -267 q 165 -267 133 -248 q 100 -229 75 -199 l 75 -199 l 63 -241 q 93 -276 132 -295 q 171 -315 211 -315 l 211 -315 q 252 -315 284 -297 q 315 -280 334 -244 q 352 -209 352 -156 l 352 -156 q 352 -100 334 -62 q 316 -25 284 -6 q 252 12 210 12 l 210 12 q 165 12 127 -12 q 89 -36 67 -89 q 44 -143 44 -233 l 44 -233 q 44 -338 79 -411 q 113 -485 174 -523 q 235 -562 314 -562 z m 694 -562 l 694 -562 q 771 -562 825 -532 q 878 -502 911 -450 q 943 -398 955 -331 l 955 -331 q 961 -306 963 -279 q 965 -252 965 -224 l 965 -224 q 965 -140 942 -88 q 919 -36 880 -12 q 840 12 788 12 l 788 12 q 731 12 697 -13 q 662 -39 646 -80 q 630 -121 630 -165 l 630 -165 q 630 -264 692 -316 q 753 -369 859 -369 l 859 -369 q 871 -369 884 -368 q 897 -367 909 -365 l 909 -365 l 928 -363 q 994 -349 1038 -309 q 1081 -269 1103 -211 q 1125 -153 1125 -86 l 1125 -86 q 1125 -18 1107 36 q 1089 89 1054 126 q 1019 162 969 182 q 918 201 852 201 l 852 201 q 809 201 774 194 q 738 187 710 177 l 710 177 l 727 131 q 753 141 785 147 q 816 152 853 152 l 853 152 q 910 152 952 135 q 993 117 1020 86 q 1046 54 1059 10 q 1071 -34 1071 -87 l 1071 -87 q 1071 -142 1057 -186 q 1043 -230 1015 -261 q 987 -293 945 -309 l 945 -309 l 923 -313 q 907 -318 891 -320 q 875 -322 860 -322 l 860 -322 q 807 -322 768 -306 q 729 -290 707 -255 q 685 -221 685 -166 l 685 -166 q 685 -133 695 -103 q 704 -74 727 -54 q 750 -35 789 -35 l 789 -35 q 850 -35 881 -83 q 911 -131 911 -226 l 911 -226 q 911 -252 909 -280 q 906 -308 900 -335 l 900 -335 l 897 -352 q 885 -396 861 -432 q 837 -469 797 -491 q 756 -514 695 -514 l 695 -514 q 660 -514 630 -504 q 600 -494 578 -474 l 578 -474 q 560 -458 548 -435 q 536 -413 530 -381 q 524 -349 524 -303 l 524 -303 l 524 -213 l 487 -408 q 501 -456 529 -490 q 556 -525 598 -543 q 640 -562 694 -562 z"},"ൢ":{"ha":0,"x_min":-699,"x_max":-37,"o":"m -507 -10 l -507 -10 q -449 -10 -416 15 q -383 40 -364 84 l -364 84 l -348 165 l -348 332 l -397 332 l -397 169 q -397 125 -405 99 q -413 72 -430 57 l -430 57 q -444 44 -463 38 q -483 32 -507 32 l -507 32 q -543 32 -573 46 q -604 59 -624 85 q -644 111 -651 148 l -651 148 q -652 156 -652 165 q -653 173 -653 182 l -653 182 q -653 241 -633 268 q -614 295 -582 295 l -582 295 q -548 295 -532 275 q -517 254 -517 220 l -517 220 q -517 182 -534 164 q -552 146 -581 146 l -581 146 q -607 146 -629 158 q -652 170 -672 192 l -672 192 l -682 159 q -661 136 -633 121 q -606 105 -575 105 l -575 105 q -526 105 -498 136 q -470 166 -470 220 l -470 220 q -470 271 -498 304 q -527 337 -582 337 l -582 337 q -638 337 -668 294 q -699 250 -699 179 l -699 179 q -699 122 -674 80 q -650 37 -606 14 q -563 -10 -507 -10 z m -227 -9 l -227 -9 q -162 -9 -120 17 q -78 43 -57 86 q -37 129 -37 182 l -37 182 q -37 266 -71 302 q -106 337 -158 337 l -158 337 q -197 337 -223 321 q -249 304 -261 276 q -274 248 -274 214 l -274 214 q -274 175 -259 148 q -245 121 -220 107 q -195 93 -162 93 l -162 93 q -129 93 -107 107 q -85 121 -71 143 q -58 165 -52 189 l -52 189 l -66 198 q -76 172 -97 153 q -119 134 -152 134 l -152 134 q -190 134 -208 156 q -227 178 -227 215 l -227 215 q -227 249 -211 272 q -195 295 -158 295 l -158 295 q -122 295 -102 268 q -83 241 -83 183 l -83 183 q -83 175 -84 165 q -85 155 -86 146 l -86 146 l -87 135 q -91 110 -107 87 q -123 63 -152 48 q -182 32 -226 32 l -226 32 q -254 32 -274 39 q -295 46 -309 59 l -309 59 q -330 80 -339 110 q -348 140 -348 186 l -348 186 l -388 142 q -385 100 -367 66 q -349 32 -314 12 q -279 -9 -227 -9 z"},"ൣ":{"ha":0,"x_min":-699,"x_max":68,"o":"m -507 -10 l -507 -10 q -449 -10 -416 15 q -383 40 -364 84 l -364 84 l -348 165 l -348 332 l -397 332 l -397 169 q -397 125 -405 99 q -413 72 -430 57 l -430 57 q -444 44 -463 38 q -483 32 -507 32 l -507 32 q -543 32 -573 46 q -604 59 -624 85 q -644 111 -651 148 l -651 148 q -652 156 -652 165 q -653 173 -653 182 l -653 182 q -653 241 -633 268 q -614 295 -582 295 l -582 295 q -548 295 -532 275 q -517 254 -517 220 l -517 220 q -517 182 -534 164 q -552 146 -581 146 l -581 146 q -607 146 -629 158 q -652 170 -672 192 l -672 192 l -682 159 q -661 136 -633 121 q -606 105 -575 105 l -575 105 q -526 105 -498 136 q -470 166 -470 220 l -470 220 q -470 271 -498 304 q -527 337 -582 337 l -582 337 q -638 337 -668 294 q -699 250 -699 179 l -699 179 q -699 122 -674 80 q -650 37 -606 14 q -563 -10 -507 -10 z m -227 -9 l -227 -9 q -166 -9 -124 16 q -83 40 -61 83 q -40 126 -40 183 l -40 183 q -40 238 -55 272 q -70 306 -97 322 q -124 337 -159 337 l -159 337 q -197 337 -222 322 q -248 306 -261 280 q -274 254 -274 223 l -274 223 q -274 161 -233 127 q -192 92 -119 92 l -119 92 q -109 92 -98 93 q -88 93 -77 95 l -77 95 q -36 102 -3 124 q 29 145 49 181 q 68 216 68 268 l 68 268 q 68 293 62 320 q 56 347 44 366 l 44 366 l 1 347 q 11 330 16 310 q 20 289 20 269 l 20 269 q 20 217 -2 185 q -24 153 -60 140 l -60 140 l -75 137 q -85 135 -96 134 q -107 133 -117 133 l -117 133 q -171 133 -199 157 q -227 181 -227 224 l -227 224 q -227 253 -211 274 q -196 295 -160 295 l -160 295 q -124 295 -105 269 q -86 242 -86 182 l -86 182 q -86 165 -88 149 q -90 132 -95 118 l -95 118 l -100 104 q -110 82 -128 66 q -147 49 -171 41 q -196 32 -226 32 l -226 32 q -254 32 -274 39 q -295 46 -309 59 l -309 59 q -330 80 -339 110 q -348 140 -348 186 l -348 186 l -388 142 q -386 111 -375 84 q -365 56 -345 35 q -325 14 -295 3 q -266 -9 -227 -9 z"},"൦":{"ha":509,"x_min":41,"x_max":468,"o":"m 254 -46 l 254 -46 q 189 -46 141 -74 q 93 -103 67 -156 q 41 -209 41 -283 l 41 -283 q 41 -355 68 -408 q 94 -461 142 -489 q 190 -518 254 -518 l 254 -518 q 319 -518 367 -489 q 415 -461 442 -409 q 468 -357 468 -283 l 468 -283 q 468 -209 442 -156 q 415 -103 367 -74 q 319 -46 254 -46 z m 254 -94 l 254 -94 q 301 -94 336 -114 q 371 -135 392 -177 q 412 -219 412 -283 l 412 -283 q 412 -377 368 -423 q 324 -469 254 -469 l 254 -469 q 185 -469 142 -423 q 98 -377 98 -281 l 98 -281 q 98 -188 142 -141 q 185 -94 254 -94 z"},"൧":{"ha":791,"x_min":12,"x_max":728,"o":"m 343 153 l 343 201 l 199 201 q 149 201 117 194 q 84 186 59 170 l 59 170 q 37 155 25 132 q 12 108 12 77 l 12 77 q 12 48 22 26 q 32 3 52 -13 l 52 -13 q 66 -25 85 -32 q 103 -40 129 -43 q 155 -47 193 -47 l 193 -47 l 365 -47 l 369 0 l 204 0 q 159 0 134 4 q 108 8 93 21 l 93 21 q 80 30 74 44 q 67 57 67 74 l 67 74 q 67 111 93 131 l 93 131 q 109 142 134 148 q 159 153 202 153 l 202 153 l 343 153 z m 518 -562 l 518 -562 q 569 -562 607 -547 q 644 -532 669 -505 l 669 -505 q 702 -472 715 -424 q 728 -376 728 -305 l 728 -305 l 728 0 l 310 0 l 310 -310 q 310 -356 316 -392 q 322 -428 335 -456 q 348 -484 370 -506 l 370 -506 q 395 -532 432 -547 q 469 -562 518 -562 z m 519 -514 l 519 -514 q 483 -514 456 -502 q 428 -491 409 -471 l 409 -471 q 386 -445 376 -404 q 365 -364 365 -294 l 365 -294 l 365 -47 l 674 -47 l 674 -292 q 674 -359 664 -401 q 653 -444 629 -470 l 629 -470 q 610 -491 583 -502 q 556 -514 519 -514 z"},"൨":{"ha":763,"x_min":41,"x_max":747,"o":"m 299 -562 l 299 -562 q 361 -562 408 -541 q 455 -520 487 -482 q 519 -444 535 -393 q 550 -342 550 -283 l 550 -283 q 550 -219 535 -171 q 519 -124 496 -90 q 473 -57 449 -33 l 449 -33 l 443 -47 l 747 -47 l 747 0 l 408 0 l 385 -39 q 412 -61 437 -93 q 461 -125 478 -170 q 494 -216 494 -278 l 494 -278 q 494 -347 472 -400 q 449 -453 406 -483 q 362 -514 297 -514 l 297 -514 q 232 -514 188 -482 q 144 -451 121 -398 q 98 -345 98 -279 l 98 -279 q 98 -221 112 -175 q 126 -130 153 -95 q 179 -60 214 -33 l 214 -33 l 180 7 q 144 -19 113 -58 q 81 -98 61 -153 q 41 -208 41 -281 l 41 -281 q 41 -341 58 -392 q 75 -444 108 -482 q 141 -520 189 -541 q 237 -562 299 -562 z"},"൩":{"ha":960,"x_min":41,"x_max":944,"o":"m 250 -562 l 250 -562 q 292 -562 323 -547 q 353 -532 374 -505 q 394 -478 405 -439 l 405 -439 l 395 -440 q 416 -501 454 -531 q 492 -562 554 -562 l 554 -562 q 620 -562 666 -526 q 712 -491 736 -431 q 760 -371 760 -296 l 760 -296 q 760 -232 747 -184 q 733 -137 712 -101 q 691 -66 665 -38 l 665 -38 l 648 0 l 622 0 l 599 -36 q 627 -67 651 -102 q 674 -137 689 -183 q 703 -230 703 -295 l 703 -295 q 703 -355 686 -404 q 669 -454 636 -484 q 602 -514 554 -514 l 554 -514 q 522 -514 501 -504 q 479 -494 464 -475 l 464 -475 q 443 -452 435 -413 q 427 -375 427 -313 l 427 -313 l 427 0 l 373 0 l 373 -312 q 373 -374 365 -412 q 357 -451 336 -474 l 336 -474 q 321 -494 300 -504 q 279 -514 250 -514 l 250 -514 q 202 -514 168 -485 q 133 -456 115 -406 q 97 -356 97 -294 l 97 -294 q 97 -229 113 -180 q 128 -132 154 -96 q 180 -61 212 -32 l 212 -32 l 173 7 q 137 -28 107 -69 q 76 -110 59 -164 q 41 -219 41 -294 l 41 -294 q 41 -374 67 -434 q 92 -495 139 -528 q 186 -562 250 -562 z m 635 0 l 659 -47 l 944 -47 l 944 0 l 635 0 z"},"൪":{"ha":694,"x_min":41,"x_max":689,"o":"m 317 -562 l 317 -562 q 382 -562 432 -539 q 481 -516 519 -476 l 519 -476 q 564 -429 590 -363 q 615 -297 615 -220 l 615 -220 q 615 -139 592 -87 q 569 -36 528 -12 q 487 12 433 12 l 433 12 q 375 12 337 -13 q 299 -38 281 -81 q 263 -124 263 -175 l 263 -175 q 263 -237 287 -286 q 311 -336 360 -380 q 409 -425 483 -471 l 483 -471 q 539 -505 572 -527 q 605 -550 619 -571 q 632 -592 632 -621 l 632 -621 q 632 -644 625 -662 q 617 -681 605 -699 l 605 -699 l 655 -723 q 671 -703 680 -677 q 689 -652 689 -624 l 689 -624 q 689 -583 671 -553 q 652 -524 614 -496 q 575 -469 513 -433 l 513 -433 q 446 -391 403 -352 q 360 -313 340 -270 q 319 -228 319 -176 l 319 -176 q 319 -107 349 -71 q 379 -35 434 -35 l 434 -35 q 472 -35 500 -53 q 527 -72 543 -112 q 558 -153 558 -219 l 558 -219 q 558 -283 539 -342 q 520 -402 480 -444 l 480 -444 q 451 -476 411 -495 q 370 -514 318 -514 l 318 -514 q 253 -514 203 -485 q 153 -457 126 -405 q 98 -353 98 -279 l 98 -279 q 98 -220 112 -174 q 126 -129 153 -94 q 179 -60 214 -33 l 214 -33 l 180 7 q 144 -19 113 -58 q 81 -98 61 -153 q 41 -208 41 -281 l 41 -281 q 41 -337 58 -388 q 75 -439 109 -478 q 143 -517 195 -539 q 247 -562 317 -562 z"},"൫":{"ha":855,"x_min":47,"x_max":808,"o":"m 438 -723 l 438 -723 q 534 -723 604 -689 q 673 -655 719 -595 q 764 -535 786 -456 q 808 -377 808 -287 l 808 -287 q 808 -207 793 -133 q 778 -60 744 11 l 744 11 l 693 -12 q 714 -54 727 -99 q 740 -145 746 -192 q 752 -240 752 -289 l 752 -289 q 752 -367 734 -436 q 715 -506 677 -559 q 639 -613 580 -643 q 521 -674 438 -674 l 438 -674 q 340 -674 265 -625 q 189 -577 146 -484 q 103 -391 103 -254 l 103 -254 q 103 -177 119 -107 q 134 -38 167 15 q 200 68 252 99 q 304 129 376 129 l 376 129 q 475 129 523 80 q 571 31 571 -56 l 571 -56 q 571 -107 553 -146 q 535 -185 500 -207 q 464 -229 412 -229 l 412 -229 l 402 -229 l 402 -276 l 420 -276 q 460 -276 488 -284 q 516 -292 533 -309 l 533 -309 q 546 -323 553 -341 q 559 -360 559 -384 l 559 -384 q 559 -437 528 -466 q 497 -495 441 -495 l 441 -495 q 387 -495 351 -466 q 315 -438 297 -389 q 278 -341 278 -279 l 278 -279 q 278 -208 300 -144 q 321 -80 361 -20 l 361 -20 l 313 8 q 270 -62 247 -130 q 223 -199 223 -279 l 223 -279 q 223 -357 250 -416 q 276 -476 325 -509 q 374 -543 442 -543 l 442 -543 q 499 -543 538 -522 q 576 -502 596 -467 q 615 -433 615 -389 l 615 -389 q 615 -355 604 -325 q 592 -296 564 -275 q 536 -255 487 -246 l 487 -246 l 485 -255 q 553 -236 590 -185 q 626 -135 626 -57 l 626 -57 q 626 19 596 72 q 566 124 510 151 q 453 178 374 178 l 374 178 q 275 178 201 126 q 127 74 87 -22 q 47 -119 47 -254 l 47 -254 q 47 -372 78 -460 q 108 -548 162 -606 q 216 -665 287 -694 q 358 -723 438 -723 z"},"൬":{"ha":1071,"x_min":41,"x_max":1025,"o":"m 534 -562 l 534 -562 q 594 -562 632 -531 q 669 -501 684 -441 l 684 -441 l 707 -305 l 707 0 l 652 0 l 652 -323 q 652 -382 645 -418 q 637 -454 619 -477 l 619 -477 q 605 -495 584 -504 q 563 -514 533 -514 l 533 -514 q 506 -514 485 -504 q 463 -494 449 -476 l 449 -476 q 430 -452 422 -415 q 414 -379 414 -320 l 414 -320 l 414 0 l 359 0 l 359 -314 q 359 -372 352 -411 q 344 -450 323 -475 l 323 -475 q 309 -494 289 -504 q 269 -514 242 -514 l 242 -514 q 197 -514 165 -485 q 132 -457 115 -407 q 97 -357 97 -294 l 97 -294 q 97 -228 113 -180 q 128 -132 154 -96 q 180 -61 211 -32 l 211 -32 l 173 7 q 136 -28 106 -69 q 76 -110 59 -164 q 41 -219 41 -294 l 41 -294 q 41 -376 66 -435 q 90 -495 135 -528 q 180 -562 241 -562 l 241 -562 q 300 -562 336 -531 q 372 -500 390 -442 l 390 -442 l 382 -441 q 400 -500 438 -531 q 476 -562 534 -562 z m 828 -562 l 828 -562 q 922 -562 974 -478 q 1025 -394 1025 -226 l 1025 -226 q 1025 -89 993 7 q 961 102 892 152 q 823 201 710 201 l 710 201 q 687 201 660 199 q 633 197 609 192 l 609 192 l 615 144 q 637 148 662 150 q 686 152 708 152 l 708 152 q 784 152 835 126 q 885 99 914 49 q 943 -1 956 -70 q 968 -140 968 -226 l 968 -226 q 968 -321 952 -385 q 935 -449 904 -481 q 872 -514 826 -514 l 826 -514 q 798 -514 778 -504 q 757 -494 742 -475 l 742 -475 q 722 -450 715 -412 q 707 -375 707 -316 l 707 -316 l 707 -10 l 662 -10 l 662 -323 l 675 -442 q 696 -503 734 -532 q 771 -562 828 -562 z"},"൭":{"ha":656,"x_min":41,"x_max":610,"o":"m 331 -562 l 331 -562 q 401 -562 454 -537 q 506 -513 541 -466 q 575 -419 593 -353 q 610 -287 610 -204 l 610 -204 q 610 -115 592 -40 q 574 34 535 88 q 496 142 434 172 q 371 201 282 201 l 282 201 q 256 201 229 199 q 201 197 174 192 l 174 192 l 180 144 q 202 147 228 150 q 253 152 281 152 l 281 152 q 361 152 414 125 q 466 97 497 48 q 527 -1 540 -66 q 553 -131 553 -205 l 553 -205 q 553 -355 496 -434 q 439 -514 329 -514 l 329 -514 q 258 -514 205 -478 q 152 -442 123 -379 q 94 -316 94 -235 l 94 -235 l 94 -221 q 94 -157 108 -115 q 122 -74 148 -54 q 174 -35 209 -35 l 209 -35 q 234 -35 254 -47 q 273 -59 285 -85 q 296 -111 296 -154 l 296 -154 q 296 -207 272 -237 q 247 -267 201 -267 l 201 -267 q 165 -267 134 -249 q 102 -231 78 -204 l 78 -204 l 61 -241 q 91 -276 130 -295 q 168 -315 209 -315 l 209 -315 q 250 -315 282 -297 q 314 -280 332 -244 q 350 -209 350 -156 l 350 -156 q 350 -100 332 -62 q 314 -25 282 -6 q 250 12 208 12 l 208 12 q 163 12 125 -11 q 87 -35 64 -88 q 41 -142 41 -229 l 41 -229 q 41 -334 79 -408 q 116 -483 182 -522 q 247 -562 331 -562 z"},"൮":{"ha":846,"x_min":41,"x_max":776,"o":"m 299 -562 l 299 -562 q 361 -562 408 -541 q 455 -520 487 -482 q 519 -444 535 -393 q 550 -342 550 -283 l 550 -283 q 550 -219 535 -171 q 519 -124 496 -90 q 473 -57 449 -33 l 449 -33 l 443 -47 l 721 -47 l 721 -550 l 776 -550 l 776 -104 l 734 0 l 408 0 l 385 -39 q 412 -61 437 -93 q 461 -125 478 -170 q 494 -216 494 -278 l 494 -278 q 494 -347 472 -400 q 449 -453 406 -483 q 362 -514 297 -514 l 297 -514 q 232 -514 188 -482 q 144 -451 121 -398 q 98 -345 98 -279 l 98 -279 q 98 -221 112 -175 q 126 -130 153 -95 q 179 -60 214 -33 l 214 -33 l 180 7 q 144 -19 113 -58 q 81 -98 61 -153 q 41 -208 41 -281 l 41 -281 q 41 -341 58 -392 q 75 -444 108 -482 q 141 -520 189 -541 q 237 -562 299 -562 z m 488 201 l 488 201 q 462 201 436 199 q 410 196 386 191 l 386 191 l 392 143 q 412 147 436 150 q 460 152 487 152 l 487 152 q 558 152 603 136 q 647 120 672 93 q 697 66 708 32 q 719 -3 721 -38 l 721 -38 l 776 -131 l 776 -76 q 776 -22 767 20 q 758 61 740 92 q 722 122 693 145 l 693 145 q 658 172 607 187 q 556 201 488 201 z"},"൯":{"ha":980,"x_min":41,"x_max":975,"o":"m 250 -562 l 250 -562 q 293 -562 325 -546 q 357 -531 378 -501 q 399 -471 410 -428 l 410 -428 l 428 -252 l 428 0 l 373 0 l 373 -309 q 373 -374 365 -412 q 357 -451 336 -474 l 336 -474 q 321 -494 300 -504 q 279 -514 250 -514 l 250 -514 q 202 -514 168 -484 q 133 -455 115 -405 q 97 -356 97 -294 l 97 -294 q 97 -229 113 -180 q 128 -132 154 -96 q 180 -61 212 -32 l 212 -32 l 173 7 q 137 -28 107 -69 q 76 -110 59 -164 q 41 -219 41 -294 l 41 -294 q 41 -374 67 -434 q 92 -494 139 -528 q 186 -562 250 -562 z m 598 -562 l 598 -562 q 664 -562 716 -539 q 767 -516 805 -476 l 805 -476 q 850 -429 876 -363 q 901 -297 901 -220 l 901 -220 q 901 -139 878 -87 q 855 -36 815 -12 q 774 12 720 12 l 720 12 q 662 12 624 -13 q 586 -38 568 -81 q 550 -124 550 -175 l 550 -175 q 550 -237 574 -286 q 598 -336 647 -380 q 695 -425 770 -471 l 770 -471 q 826 -505 859 -527 q 891 -550 905 -571 q 919 -592 919 -621 l 919 -621 q 919 -644 911 -662 q 903 -681 891 -699 l 891 -699 l 942 -723 q 958 -703 967 -677 q 975 -652 975 -624 l 975 -624 q 975 -583 957 -553 q 939 -524 901 -496 q 862 -469 800 -433 l 800 -433 q 733 -391 690 -352 q 647 -313 627 -270 q 606 -228 606 -176 l 606 -176 q 606 -107 636 -71 q 666 -35 721 -35 l 721 -35 q 759 -35 787 -53 q 814 -72 830 -112 q 845 -153 845 -219 l 845 -219 q 845 -283 826 -342 q 806 -401 767 -443 l 767 -443 q 737 -476 695 -495 q 652 -514 600 -514 l 600 -514 q 556 -514 528 -504 q 500 -494 481 -476 l 481 -476 q 463 -459 451 -436 q 439 -413 434 -379 q 428 -345 428 -295 l 428 -295 l 428 -133 l 383 -133 l 383 -287 l 392 -416 q 407 -466 435 -498 q 463 -530 504 -546 q 545 -562 598 -562 z"},"൰":{"ha":961,"x_min":-30,"x_max":920,"o":"m 228 -550 l 282 -550 l 282 -126 l 280 -96 q 280 -19 269 37 q 258 92 227 131 l 227 131 q 200 164 157 183 q 113 201 50 201 l 50 201 q 31 201 11 200 q -9 198 -30 192 l -30 192 l -25 144 q -10 148 8 150 q 25 152 46 152 l 46 152 q 97 152 131 138 q 164 124 184 99 l 184 99 q 209 68 219 23 q 228 -23 228 -96 l 228 -96 l 228 -550 z m 711 12 l 711 12 q 650 12 613 -19 q 576 -50 557 -108 l 557 -108 l 564 -110 q 546 -51 507 -19 q 468 12 407 12 l 407 12 q 365 12 335 -3 q 304 -18 285 -46 q 265 -75 254 -116 l 254 -116 l 245 -252 l 245 -526 l 282 -526 l 282 -228 q 282 -167 290 -132 q 297 -97 317 -73 l 317 -73 q 331 -57 353 -46 q 375 -36 408 -36 l 408 -36 q 438 -36 460 -46 q 482 -57 497 -74 l 497 -74 q 518 -99 526 -135 q 533 -171 533 -231 l 533 -231 l 533 -550 l 588 -550 l 588 -237 q 588 -176 596 -137 q 604 -99 625 -75 l 625 -75 q 640 -56 662 -46 q 683 -36 713 -36 l 713 -36 q 761 -36 795 -66 q 828 -96 846 -146 q 863 -196 863 -255 l 863 -255 q 863 -321 848 -369 q 833 -418 807 -454 q 781 -490 749 -518 l 749 -518 l 787 -557 q 824 -522 854 -481 q 884 -441 902 -386 q 920 -331 920 -255 l 920 -255 q 920 -180 896 -119 q 871 -59 825 -23 q 779 12 711 12 z"},"൱":{"ha":795,"x_min":41,"x_max":748,"o":"m 250 -562 l 250 -562 q 294 -562 325 -546 q 356 -530 376 -500 q 396 -471 406 -430 l 406 -430 l 427 -252 l 427 0 l 373 0 l 373 -309 q 373 -374 365 -412 q 357 -451 336 -474 l 336 -474 q 321 -494 300 -504 q 279 -514 250 -514 l 250 -514 q 202 -514 168 -485 q 133 -456 115 -406 q 97 -356 97 -294 l 97 -294 q 97 -229 113 -180 q 128 -132 154 -96 q 180 -61 212 -32 l 212 -32 l 173 7 q 137 -28 107 -69 q 76 -110 59 -164 q 41 -219 41 -294 l 41 -294 q 41 -374 67 -434 q 92 -495 139 -528 q 186 -562 250 -562 z m 550 -562 l 550 -562 q 613 -562 658 -525 q 702 -488 725 -413 q 748 -339 748 -226 l 748 -226 q 748 -89 717 7 q 685 102 616 152 q 546 201 433 201 l 433 201 q 409 201 382 199 q 355 197 331 192 l 331 192 l 337 144 q 359 148 384 150 q 409 152 432 152 l 432 152 q 508 152 558 126 q 608 99 638 49 q 667 -1 680 -70 q 692 -140 692 -226 l 692 -226 q 692 -322 675 -386 q 658 -450 627 -482 q 595 -514 549 -514 l 549 -514 q 521 -514 500 -504 q 479 -495 463 -475 l 463 -475 q 443 -451 435 -414 q 427 -377 427 -316 l 427 -316 l 427 -10 l 383 -10 l 383 -319 l 396 -442 q 417 -503 455 -532 q 492 -562 550 -562 z"},"൲":{"ha":1222,"x_min":41,"x_max":1201,"o":"m 1065 -550 l 1065 -550 q 1112 -550 1142 -531 q 1172 -512 1187 -481 q 1201 -451 1201 -415 l 1201 -415 q 1201 -379 1190 -351 q 1178 -324 1156 -306 l 1156 -306 q 1139 -292 1118 -283 q 1097 -275 1071 -271 q 1045 -268 1011 -268 l 1011 -268 l 835 -268 l 836 -315 l 1012 -315 q 1054 -315 1077 -321 q 1100 -327 1116 -339 l 1116 -339 q 1131 -351 1139 -369 q 1146 -388 1146 -414 l 1146 -414 q 1146 -454 1126 -478 q 1105 -503 1065 -503 l 1065 -503 q 1022 -503 999 -476 q 975 -449 975 -401 l 975 -401 q 975 -366 986 -338 q 996 -311 1013 -286 l 1013 -286 l 959 -281 q 944 -308 933 -339 q 922 -370 922 -408 l 922 -408 q 922 -453 941 -485 q 960 -517 993 -533 q 1025 -550 1065 -550 z m 250 -562 l 250 -562 q 294 -562 325 -546 q 356 -531 377 -501 q 398 -471 410 -428 l 410 -428 l 427 -252 l 427 0 l 373 0 l 373 -309 q 373 -374 365 -412 q 357 -451 336 -474 l 336 -474 q 321 -494 300 -504 q 279 -514 250 -514 l 250 -514 q 202 -514 168 -485 q 133 -456 115 -406 q 97 -356 97 -294 l 97 -294 q 97 -229 113 -180 q 128 -132 154 -96 q 180 -61 212 -32 l 212 -32 l 173 7 q 137 -28 107 -69 q 76 -110 59 -164 q 41 -219 41 -294 l 41 -294 q 41 -374 67 -434 q 92 -495 139 -528 q 186 -562 250 -562 z m 591 -562 l 591 -562 q 651 -562 699 -539 q 747 -517 782 -474 q 816 -432 834 -372 q 852 -313 852 -239 l 852 -239 q 852 -145 830 -89 q 807 -34 767 -11 q 726 12 674 12 l 674 12 q 621 12 587 -10 q 552 -33 536 -68 q 520 -103 520 -142 l 520 -142 q 520 -185 536 -216 q 551 -248 578 -268 l 578 -268 q 600 -285 627 -295 q 654 -306 692 -310 q 730 -315 782 -315 l 782 -315 l 994 -315 l 994 -268 l 783 -268 q 720 -268 680 -260 q 640 -253 613 -231 l 613 -231 q 595 -217 585 -195 q 575 -173 575 -143 l 575 -143 q 575 -93 601 -64 q 626 -35 673 -35 l 673 -35 q 715 -35 743 -55 q 770 -75 784 -120 q 798 -166 798 -240 l 798 -240 q 798 -254 797 -268 q 796 -282 794 -295 l 794 -295 l 794 -306 q 785 -368 758 -414 q 731 -461 689 -487 q 646 -514 590 -514 l 590 -514 q 558 -514 532 -505 q 505 -497 485 -480 l 485 -480 q 466 -465 453 -441 q 440 -418 434 -385 q 427 -353 427 -308 l 427 -308 l 427 -201 l 392 -204 l 390 -406 q 404 -459 431 -493 q 458 -528 499 -545 q 539 -562 591 -562 z"},"൳":{"ha":699,"x_min":41,"x_max":677,"o":"m 207 12 l 207 12 q 161 12 124 -11 q 86 -35 64 -85 q 41 -135 41 -216 l 41 -216 q 41 -300 67 -356 q 92 -413 140 -449 l 140 -449 q 173 -473 213 -487 q 252 -502 305 -508 q 358 -515 428 -515 l 428 -515 l 677 -515 l 677 -465 l 445 -465 q 371 -465 320 -460 q 269 -455 234 -442 q 198 -430 170 -408 l 170 -408 q 137 -383 119 -345 q 100 -307 94 -254 l 94 -254 l 94 -241 q 93 -235 93 -228 q 93 -221 93 -213 l 93 -213 q 93 -152 107 -112 q 121 -73 147 -54 q 173 -35 208 -35 l 208 -35 q 233 -35 253 -47 q 273 -59 285 -85 q 296 -111 296 -154 l 296 -154 q 296 -206 272 -236 q 247 -267 201 -267 l 201 -267 q 164 -267 133 -249 q 102 -231 78 -204 l 78 -204 l 72 -252 q 102 -282 137 -298 q 172 -315 209 -315 l 209 -315 q 250 -315 282 -297 q 313 -280 332 -244 q 350 -209 350 -156 l 350 -156 q 350 -100 332 -62 q 314 -25 282 -6 q 250 12 207 12 z"},"൴":{"ha":811,"x_min":41,"x_max":770,"o":"m 442 -792 l 497 -792 l 497 -215 q 497 -178 499 -150 q 501 -122 508 -101 q 515 -81 527 -67 l 527 -67 q 540 -50 559 -42 q 577 -35 602 -35 l 602 -35 q 641 -35 666 -56 q 690 -77 702 -116 q 713 -155 713 -208 l 713 -208 q 713 -266 698 -316 q 682 -367 653 -407 q 623 -447 580 -473 q 536 -499 479 -509 l 479 -509 l 456 -511 q 444 -513 431 -513 q 418 -514 404 -514 l 404 -514 q 328 -514 270 -492 q 212 -470 173 -431 q 134 -392 114 -341 q 94 -291 94 -233 l 94 -233 l 94 -221 q 94 -157 108 -116 q 122 -75 148 -55 q 173 -35 208 -35 l 208 -35 q 233 -35 253 -47 q 273 -59 285 -85 q 296 -111 296 -154 l 296 -154 q 296 -207 272 -237 q 247 -267 201 -267 l 201 -267 q 164 -267 133 -249 q 102 -231 78 -204 l 78 -204 l 72 -252 q 102 -282 138 -298 q 173 -315 209 -315 l 209 -315 q 250 -315 282 -297 q 313 -280 332 -244 q 350 -209 350 -156 l 350 -156 q 350 -99 332 -62 q 314 -25 282 -6 q 250 12 208 12 l 208 12 q 163 12 125 -11 q 87 -35 64 -87 q 41 -140 41 -226 l 41 -226 q 41 -298 65 -359 q 88 -420 134 -466 q 180 -512 248 -537 q 315 -562 404 -562 l 404 -562 q 419 -562 432 -561 q 445 -561 458 -559 l 458 -559 l 483 -558 q 547 -547 600 -518 q 652 -490 690 -445 q 728 -400 749 -340 q 770 -281 770 -208 l 770 -208 q 770 -140 751 -90 q 731 -41 694 -14 q 656 12 602 12 l 602 12 q 566 12 539 2 q 511 -9 492 -27 l 492 -27 q 474 -45 463 -69 q 452 -93 447 -127 q 442 -162 442 -213 l 442 -213 l 442 -792 z"},"൵":{"ha":1077,"x_min":44,"x_max":1071,"o":"m 314 -562 l 314 -562 q 392 -562 439 -526 q 485 -491 507 -424 l 507 -424 l 512 -370 l 524 -238 l 524 0 l 469 0 l 469 -315 q 469 -381 457 -419 q 444 -457 419 -480 l 419 -480 q 399 -497 375 -505 q 350 -514 313 -514 l 313 -514 q 247 -514 198 -478 q 149 -442 123 -380 q 96 -318 96 -239 l 96 -239 l 96 -225 q 96 -159 110 -117 q 124 -75 150 -55 q 176 -35 211 -35 l 211 -35 q 235 -35 255 -47 q 275 -59 287 -85 q 298 -111 298 -153 l 298 -153 q 298 -207 274 -237 q 249 -267 203 -267 l 203 -267 q 165 -267 133 -248 q 100 -229 75 -199 l 75 -199 l 63 -241 q 93 -276 132 -295 q 171 -315 211 -315 l 211 -315 q 252 -315 284 -297 q 315 -280 334 -244 q 352 -209 352 -156 l 352 -156 q 352 -100 334 -62 q 316 -25 284 -6 q 252 12 210 12 l 210 12 q 165 12 127 -12 q 89 -36 67 -89 q 44 -143 44 -233 l 44 -233 q 44 -338 79 -411 q 113 -485 174 -523 q 235 -562 314 -562 z m 694 -562 l 694 -562 q 760 -562 812 -539 q 863 -516 901 -476 l 901 -476 q 946 -429 972 -363 q 997 -297 997 -220 l 997 -220 q 997 -139 975 -87 q 952 -36 911 -12 q 870 12 816 12 l 816 12 q 758 12 720 -13 q 682 -38 664 -81 q 646 -124 646 -175 l 646 -175 q 646 -237 670 -286 q 694 -336 743 -380 q 792 -425 866 -471 l 866 -471 q 922 -505 955 -527 q 987 -550 1001 -571 q 1015 -592 1015 -621 l 1015 -621 q 1015 -644 1008 -662 q 1000 -681 987 -699 l 987 -699 l 1038 -723 q 1054 -703 1063 -677 q 1071 -652 1071 -624 l 1071 -624 q 1071 -583 1053 -553 q 1035 -524 997 -496 q 958 -469 896 -433 l 896 -433 q 829 -391 786 -352 q 743 -313 723 -270 q 702 -228 702 -176 l 702 -176 q 702 -107 732 -71 q 762 -35 817 -35 l 817 -35 q 855 -35 883 -53 q 910 -72 926 -112 q 941 -153 941 -219 l 941 -219 q 941 -283 922 -342 q 902 -401 863 -443 l 863 -443 q 833 -476 791 -495 q 748 -514 696 -514 l 696 -514 q 652 -514 625 -504 q 597 -494 577 -476 l 577 -476 q 559 -459 547 -436 q 535 -413 530 -379 q 524 -345 524 -295 l 524 -295 l 524 -133 l 479 -133 l 479 -287 l 489 -416 q 503 -466 531 -498 q 559 -530 600 -546 q 641 -562 694 -562 z"},"൶":{"ha":1206,"x_min":34,"x_max":1147,"o":"m 199 -337 l 199 -337 q 252 -337 289 -314 q 326 -292 345 -254 q 364 -216 364 -169 l 364 -169 q 364 -125 349 -90 q 334 -55 311 -34 l 311 -34 l 304 -47 l 649 -47 l 649 0 l 282 0 l 261 -36 q 284 -62 297 -92 q 310 -123 310 -162 l 310 -162 q 310 -222 281 -255 q 251 -289 199 -289 l 199 -289 q 164 -289 140 -272 q 115 -256 102 -228 q 88 -201 88 -166 l 88 -166 q 88 -122 105 -89 q 121 -57 151 -29 l 151 -29 l 117 7 q 81 -26 58 -67 q 34 -109 34 -166 l 34 -166 q 34 -216 55 -254 q 75 -293 113 -315 q 150 -337 199 -337 z m 889 -562 l 889 -562 q 949 -562 994 -546 q 1039 -531 1070 -501 l 1070 -501 q 1096 -477 1113 -444 q 1130 -411 1139 -367 q 1147 -323 1147 -265 l 1147 -265 l 1147 0 l 631 0 l 631 -265 q 631 -320 639 -362 q 646 -405 662 -438 q 678 -471 702 -495 l 702 -495 q 734 -527 780 -544 q 826 -562 889 -562 z m 845 -511 l 845 -511 q 809 -511 781 -495 q 753 -479 733 -449 l 733 -449 q 710 -419 698 -373 q 685 -327 685 -254 l 685 -254 l 685 -46 l 694 -46 q 760 -102 814 -162 q 867 -223 898 -284 q 929 -346 929 -405 l 929 -405 q 929 -434 921 -458 q 912 -482 894 -496 q 876 -511 845 -511 z m 984 -400 l 984 -400 q 984 -337 954 -275 q 924 -213 872 -151 q 819 -90 749 -27 l 749 -27 l 748 -43 q 776 -45 812 -46 q 847 -47 878 -47 l 878 -47 l 1092 -47 l 1092 -259 q 1092 -337 1075 -391 q 1058 -446 1021 -477 q 983 -509 920 -516 l 920 -516 l 919 -521 q 955 -503 970 -472 q 984 -441 984 -400 z"},"൷":{"ha":1515,"x_min":34,"x_max":1494,"o":"m 199 -337 l 199 -337 q 252 -337 289 -314 q 326 -292 345 -254 q 364 -216 364 -169 l 364 -169 q 364 -125 349 -90 q 334 -55 311 -34 l 311 -34 l 303 -47 l 612 -47 l 631 0 l 282 0 l 261 -36 q 285 -62 298 -92 q 310 -123 310 -162 l 310 -162 q 310 -222 281 -255 q 251 -289 199 -289 l 199 -289 q 164 -289 140 -272 q 115 -256 102 -228 q 88 -201 88 -166 l 88 -166 q 88 -122 105 -89 q 121 -57 151 -29 l 151 -29 l 117 7 q 81 -26 58 -67 q 34 -109 34 -167 l 34 -167 q 34 -216 55 -254 q 75 -293 113 -315 q 150 -337 199 -337 z m 708 -562 l 708 -562 q 751 -562 782 -546 q 813 -531 834 -501 q 855 -471 868 -428 l 868 -428 l 885 -294 l 885 -230 l 830 -230 l 830 -309 q 830 -374 822 -412 q 814 -451 794 -474 l 794 -474 q 778 -494 758 -504 q 737 -514 707 -514 l 707 -514 q 659 -514 625 -485 q 591 -456 573 -407 q 555 -358 555 -298 l 555 -298 q 555 -208 585 -146 q 615 -84 661 -35 l 661 -35 l 637 0 l 608 0 l 594 -37 q 566 -70 545 -107 q 523 -145 511 -192 q 499 -239 499 -298 l 499 -298 q 499 -376 525 -435 q 550 -495 597 -528 q 644 -562 708 -562 z m 1049 -562 l 1049 -562 q 1109 -562 1157 -539 q 1205 -517 1239 -474 q 1273 -432 1292 -372 q 1310 -313 1310 -239 l 1310 -239 q 1310 -144 1288 -89 q 1265 -34 1225 -11 q 1184 12 1132 12 l 1132 12 q 1078 12 1044 -10 q 1010 -32 994 -67 q 977 -103 977 -142 l 977 -142 q 977 -185 993 -216 q 1009 -248 1035 -268 l 1035 -268 q 1057 -285 1085 -295 q 1112 -306 1150 -310 q 1187 -315 1239 -315 l 1239 -315 l 1275 -315 l 1275 -268 l 1241 -268 q 1178 -268 1138 -260 q 1098 -253 1071 -231 l 1071 -231 q 1053 -217 1043 -195 q 1032 -173 1032 -143 l 1032 -143 q 1032 -93 1058 -64 q 1084 -35 1131 -35 l 1131 -35 q 1173 -35 1201 -55 q 1228 -75 1242 -120 q 1256 -166 1256 -240 l 1256 -240 q 1256 -254 1255 -268 q 1254 -282 1252 -295 l 1252 -295 l 1251 -306 q 1243 -368 1216 -414 q 1189 -461 1147 -487 q 1104 -514 1048 -514 l 1048 -514 q 1015 -514 989 -505 q 963 -497 942 -480 l 942 -480 q 923 -465 911 -441 q 898 -418 892 -385 q 885 -353 885 -308 l 885 -308 l 885 -255 l 850 -255 l 848 -406 q 861 -459 889 -493 q 916 -528 957 -545 q 997 -562 1049 -562 z m 1431 -451 l 1485 -461 q 1490 -449 1492 -434 q 1494 -419 1494 -403 l 1494 -403 q 1494 -370 1483 -345 q 1472 -320 1451 -304 l 1451 -304 q 1425 -284 1391 -276 q 1357 -268 1305 -268 l 1305 -268 l 1281 -268 l 1281 -315 l 1301 -315 q 1342 -315 1367 -319 q 1391 -324 1408 -336 l 1408 -336 q 1423 -346 1431 -363 q 1439 -380 1439 -405 l 1439 -405 q 1439 -414 1437 -427 q 1435 -441 1431 -451 l 1431 -451 z"},"൸":{"ha":1939,"x_min":10,"x_max":1880,"o":"m 1254 -562 l 1254 -562 q 1293 -562 1320 -549 q 1347 -537 1365 -516 q 1382 -495 1393 -469 q 1403 -443 1408 -416 l 1408 -416 l 1390 -407 q 1407 -462 1440 -496 q 1473 -530 1520 -546 q 1566 -562 1622 -562 l 1622 -562 q 1683 -562 1728 -546 q 1773 -531 1803 -501 l 1803 -501 q 1830 -477 1847 -444 q 1864 -411 1872 -367 q 1880 -323 1880 -265 l 1880 -265 l 1880 0 l 1428 0 l 1428 -46 q 1494 -102 1547 -162 q 1600 -223 1631 -284 q 1662 -346 1662 -405 l 1662 -405 q 1662 -434 1654 -458 q 1646 -482 1628 -496 q 1609 -511 1577 -511 l 1577 -511 q 1542 -511 1515 -495 q 1487 -479 1468 -452 l 1468 -452 q 1442 -417 1432 -372 q 1422 -327 1422 -259 l 1422 -259 l 1422 -230 l 1367 -230 l 1367 -315 q 1367 -378 1361 -417 q 1355 -457 1334 -481 l 1334 -481 q 1321 -497 1302 -505 q 1282 -514 1257 -514 l 1257 -514 q 1232 -514 1212 -506 q 1192 -498 1179 -482 l 1179 -482 q 1159 -457 1153 -417 q 1146 -377 1146 -312 l 1146 -312 l 1146 -230 q 1146 -177 1141 -140 q 1136 -103 1126 -78 q 1115 -53 1098 -34 l 1098 -34 q 1077 -12 1048 0 q 1019 12 980 12 l 980 12 q 940 12 911 0 q 881 -12 860 -36 l 860 -36 q 844 -55 834 -79 q 824 -103 819 -139 q 814 -176 814 -230 l 814 -230 l 814 -316 q 814 -378 808 -417 q 801 -457 781 -481 l 781 -481 q 768 -497 749 -505 q 729 -514 704 -514 l 704 -514 q 679 -514 659 -506 q 639 -498 626 -482 l 626 -482 q 605 -457 599 -417 q 592 -377 592 -312 l 592 -312 l 592 -222 q 592 -148 582 -107 q 571 -67 544 -38 l 544 -38 q 523 -14 492 -1 q 461 12 419 12 l 419 12 q 358 12 320 -21 q 282 -54 267 -116 l 267 -116 l 279 -109 q 267 -72 247 -44 q 226 -17 195 -2 q 163 12 118 12 l 118 12 q 90 12 63 6 q 36 -1 10 -14 l 10 -14 l 30 -59 q 48 -49 71 -42 q 93 -36 119 -36 l 119 -36 q 152 -36 174 -46 q 195 -57 210 -75 l 210 -75 q 231 -99 239 -137 q 247 -175 247 -237 l 247 -237 l 247 -550 l 302 -550 l 302 -224 q 302 -166 311 -128 q 319 -90 340 -67 l 340 -67 q 353 -52 373 -44 q 392 -36 418 -36 l 418 -36 q 448 -36 470 -46 q 491 -57 504 -74 l 504 -74 q 523 -99 530 -138 q 537 -177 537 -247 l 537 -247 l 537 -319 q 537 -374 542 -411 q 547 -448 558 -472 q 568 -497 585 -516 l 585 -516 q 606 -539 635 -550 q 664 -562 703 -562 l 703 -562 q 743 -562 773 -550 q 802 -538 823 -514 l 823 -514 q 839 -496 849 -471 q 859 -447 864 -411 q 869 -375 869 -320 l 869 -320 l 869 -234 q 869 -172 876 -132 q 882 -93 902 -69 l 902 -69 q 915 -53 935 -44 q 955 -36 980 -36 l 980 -36 q 1005 -36 1025 -44 q 1044 -52 1057 -68 l 1057 -68 q 1078 -93 1085 -133 q 1091 -173 1091 -234 l 1091 -234 l 1091 -319 q 1091 -374 1096 -411 q 1100 -448 1111 -472 q 1122 -497 1138 -516 l 1138 -516 q 1159 -539 1188 -550 q 1217 -562 1254 -562 z m 1717 -400 l 1717 -400 q 1717 -337 1688 -275 q 1658 -213 1605 -151 q 1552 -90 1483 -27 l 1483 -27 l 1481 -43 q 1509 -45 1545 -46 q 1581 -47 1611 -47 l 1611 -47 l 1825 -47 l 1825 -259 q 1825 -337 1809 -391 q 1792 -446 1755 -477 q 1717 -509 1654 -516 l 1654 -516 l 1653 -521 q 1688 -503 1703 -472 q 1717 -441 1717 -400 z"},"൹":{"ha":1016,"x_min":41,"x_max":994,"o":"m 250 -562 l 250 -562 q 294 -562 325 -546 q 356 -531 377 -501 q 398 -471 410 -428 l 410 -428 l 427 -252 l 427 0 l 373 0 l 373 -309 q 373 -374 365 -412 q 357 -451 336 -474 l 336 -474 q 321 -494 300 -504 q 279 -514 250 -514 l 250 -514 q 202 -514 168 -485 q 133 -456 115 -406 q 97 -356 97 -294 l 97 -294 q 97 -229 113 -180 q 128 -132 154 -96 q 180 -61 212 -32 l 212 -32 l 173 7 q 137 -28 107 -69 q 76 -110 59 -164 q 41 -219 41 -294 l 41 -294 q 41 -374 67 -434 q 92 -495 139 -528 q 186 -562 250 -562 z m 591 -562 l 591 -562 q 651 -562 699 -539 q 747 -517 782 -474 q 816 -432 834 -372 q 852 -313 852 -239 l 852 -239 q 852 -145 830 -89 q 807 -34 767 -11 q 726 12 674 12 l 674 12 q 621 12 587 -10 q 552 -33 536 -68 q 520 -103 520 -142 l 520 -142 q 520 -185 536 -216 q 551 -248 578 -268 l 578 -268 q 600 -285 627 -295 q 654 -306 692 -310 q 730 -315 782 -315 l 782 -315 l 994 -315 l 994 -268 l 783 -268 q 720 -268 680 -260 q 640 -253 613 -231 l 613 -231 q 595 -217 585 -195 q 575 -173 575 -143 l 575 -143 q 575 -93 601 -64 q 626 -35 673 -35 l 673 -35 q 715 -35 743 -55 q 770 -75 784 -120 q 798 -166 798 -240 l 798 -240 q 798 -254 797 -268 q 796 -282 794 -295 l 794 -295 l 794 -306 q 785 -368 758 -414 q 731 -461 689 -487 q 646 -514 590 -514 l 590 -514 q 558 -514 532 -505 q 505 -497 485 -480 l 485 -480 q 466 -465 453 -441 q 440 -418 434 -385 q 427 -353 427 -308 l 427 -308 l 427 -201 l 392 -204 l 390 -406 q 404 -459 431 -493 q 458 -528 499 -545 q 539 -562 591 -562 z"},"ൺ":{"ha":1335,"x_min":44,"x_max":1295,"o":"m 314 -562 l 314 -562 q 392 -562 436 -529 q 480 -496 503 -438 l 503 -438 l 491 -439 q 511 -498 551 -530 q 590 -562 652 -562 l 652 -562 q 715 -562 755 -530 q 794 -499 811 -437 l 811 -437 l 808 -413 l 830 -312 l 830 0 l 775 0 l 775 -322 q 775 -383 768 -418 q 760 -453 740 -477 l 740 -477 q 726 -494 704 -504 q 682 -514 650 -514 l 650 -514 q 619 -514 598 -503 q 576 -493 561 -476 l 561 -476 q 540 -451 532 -415 q 524 -379 524 -319 l 524 -319 l 524 0 l 469 0 l 469 -313 q 469 -381 457 -419 q 444 -457 419 -480 l 419 -480 q 399 -497 374 -505 q 349 -514 313 -514 l 313 -514 q 247 -514 198 -478 q 149 -442 123 -380 q 96 -318 96 -239 l 96 -239 l 96 -225 q 96 -159 110 -117 q 124 -75 150 -55 q 176 -35 211 -35 l 211 -35 q 235 -35 255 -47 q 275 -59 287 -85 q 298 -111 298 -153 l 298 -153 q 298 -207 274 -237 q 249 -267 203 -267 l 203 -267 q 165 -267 133 -248 q 100 -229 75 -199 l 75 -199 l 63 -241 q 93 -276 132 -295 q 171 -315 211 -315 l 211 -315 q 252 -315 284 -297 q 315 -280 334 -244 q 352 -209 352 -156 l 352 -156 q 352 -100 334 -62 q 316 -25 284 -6 q 252 12 210 12 l 210 12 q 165 12 127 -12 q 89 -36 67 -89 q 44 -143 44 -233 l 44 -233 q 44 -338 79 -411 q 113 -485 174 -523 q 235 -562 314 -562 z m 1128 12 l 1128 12 q 1077 12 1039 -11 q 1001 -35 981 -84 q 960 -133 960 -208 l 960 -208 q 960 -275 979 -328 q 998 -382 1029 -426 q 1060 -471 1095 -510 l 1095 -510 l 1110 -529 q 1142 -564 1161 -596 q 1180 -629 1180 -664 l 1180 -664 q 1180 -697 1161 -720 q 1141 -743 1097 -743 l 1097 -743 q 1076 -743 1057 -740 q 1037 -737 1023 -732 l 1023 -732 l 1011 -779 q 1028 -784 1053 -788 q 1078 -792 1104 -792 l 1104 -792 q 1154 -792 1183 -773 q 1211 -754 1223 -726 q 1235 -698 1235 -672 l 1235 -672 q 1235 -626 1212 -586 q 1189 -547 1150 -502 l 1150 -502 l 1137 -485 q 1100 -444 1073 -401 q 1046 -359 1031 -311 q 1016 -263 1016 -207 l 1016 -207 q 1016 -140 1032 -102 q 1047 -65 1073 -50 q 1098 -35 1128 -35 l 1128 -35 q 1179 -35 1209 -76 q 1238 -118 1238 -210 l 1238 -210 q 1238 -268 1224 -322 q 1209 -377 1180 -421 q 1150 -465 1106 -489 l 1106 -489 q 1084 -502 1058 -508 q 1032 -514 1000 -514 l 1000 -514 q 958 -514 931 -504 q 903 -495 884 -477 l 884 -477 q 865 -460 853 -436 q 841 -412 836 -378 q 830 -344 830 -295 l 830 -295 l 830 -72 l 783 -72 l 785 -256 l 795 -417 q 809 -466 837 -498 q 865 -530 906 -546 q 946 -562 998 -562 l 998 -562 q 1037 -562 1070 -554 q 1103 -546 1131 -530 l 1131 -530 q 1135 -529 1138 -527 q 1141 -525 1144 -523 l 1144 -523 q 1194 -492 1228 -444 q 1261 -396 1278 -336 q 1295 -277 1295 -213 l 1295 -213 q 1295 -102 1251 -45 q 1206 12 1128 12 z"},"ൻ":{"ha":932,"x_min":41,"x_max":892,"o":"m 250 -562 l 250 -562 q 293 -562 325 -546 q 356 -531 377 -501 q 398 -471 409 -428 l 409 -428 l 427 -257 l 427 0 l 373 0 l 373 -309 q 373 -374 365 -412 q 357 -451 336 -474 l 336 -474 q 321 -494 300 -504 q 279 -514 250 -514 l 250 -514 q 202 -514 168 -485 q 133 -456 115 -406 q 97 -356 97 -294 l 97 -294 q 97 -229 113 -180 q 128 -132 154 -96 q 180 -61 212 -32 l 212 -32 l 173 7 q 137 -28 107 -69 q 76 -110 59 -164 q 41 -219 41 -294 l 41 -294 q 41 -374 67 -434 q 92 -495 139 -528 q 186 -562 250 -562 z m 725 12 l 725 12 q 674 12 636 -11 q 598 -35 578 -84 q 557 -133 557 -208 l 557 -208 q 557 -275 577 -328 q 596 -382 627 -426 q 657 -471 692 -510 l 692 -510 l 708 -529 q 739 -564 758 -596 q 777 -629 777 -664 l 777 -664 q 777 -697 758 -720 q 738 -743 694 -743 l 694 -743 q 674 -743 655 -740 q 636 -737 621 -732 l 621 -732 l 609 -779 q 625 -784 650 -788 q 675 -792 701 -792 l 701 -792 q 751 -792 780 -773 q 808 -754 821 -726 q 833 -698 833 -672 l 833 -672 q 833 -626 810 -586 q 786 -547 748 -502 l 748 -502 l 734 -485 q 698 -444 671 -401 q 643 -359 628 -311 q 613 -263 613 -207 l 613 -207 q 613 -140 629 -102 q 644 -65 670 -50 q 696 -35 725 -35 l 725 -35 q 777 -35 807 -76 q 836 -118 836 -210 l 836 -210 q 836 -268 821 -322 q 806 -377 777 -421 q 748 -465 704 -489 l 704 -489 q 681 -502 655 -508 q 629 -514 598 -514 l 598 -514 q 555 -514 528 -504 q 500 -495 481 -477 l 481 -477 q 462 -460 451 -436 q 439 -412 433 -378 q 427 -344 427 -295 l 427 -295 l 427 -72 l 381 -72 l 383 -256 l 392 -417 q 407 -466 435 -498 q 463 -530 504 -546 q 544 -562 595 -562 l 595 -562 q 635 -562 668 -554 q 700 -546 729 -530 l 729 -530 q 732 -529 736 -527 q 739 -525 742 -523 l 742 -523 q 792 -492 826 -444 q 859 -396 876 -336 q 892 -277 892 -213 l 892 -213 q 892 -102 848 -45 q 804 12 725 12 z"},"ർ":{"ha":644,"x_min":40,"x_max":604,"o":"m 436 12 l 436 12 q 386 12 348 -11 q 310 -35 290 -84 q 269 -133 269 -208 l 269 -208 q 269 -275 288 -328 q 307 -382 338 -426 q 369 -471 403 -510 l 403 -510 l 419 -529 q 450 -565 470 -597 q 489 -629 489 -664 l 489 -664 q 489 -697 470 -720 q 450 -743 406 -743 l 406 -743 q 385 -743 366 -740 q 346 -737 332 -732 l 332 -732 l 320 -779 q 337 -784 362 -788 q 387 -792 413 -792 l 413 -792 q 463 -792 492 -773 q 520 -754 532 -726 q 544 -698 544 -672 l 544 -672 q 544 -626 522 -586 q 499 -546 459 -502 l 459 -502 l 446 -485 q 409 -444 382 -401 q 354 -359 340 -311 q 325 -263 325 -207 l 325 -207 q 325 -140 341 -102 q 356 -65 382 -50 q 407 -35 437 -35 l 437 -35 q 488 -35 518 -76 q 547 -118 547 -210 l 547 -210 q 547 -253 539 -295 q 531 -337 514 -374 q 497 -412 473 -441 q 448 -471 415 -489 l 415 -489 q 392 -502 366 -508 q 340 -514 309 -514 l 309 -514 q 242 -514 195 -483 q 147 -453 122 -400 q 97 -347 97 -279 l 97 -279 q 97 -220 112 -174 q 126 -129 152 -94 q 178 -60 214 -33 l 214 -33 l 179 7 q 144 -19 112 -58 q 80 -98 60 -153 q 40 -208 40 -281 l 40 -281 q 40 -342 59 -393 q 77 -445 112 -482 q 147 -520 197 -541 q 247 -562 309 -562 l 309 -562 q 347 -562 380 -554 q 412 -546 440 -531 l 440 -531 q 444 -529 447 -527 q 450 -526 453 -523 l 453 -523 q 503 -493 537 -444 q 570 -396 587 -336 q 604 -277 604 -213 l 604 -213 q 604 -102 560 -45 q 515 12 436 12 z"},"ൽ":{"ha":1041,"x_min":41,"x_max":1000,"o":"m 639 -562 l 639 -562 q 676 -562 711 -557 q 745 -553 776 -543 q 807 -533 834 -517 l 834 -517 l 848 -510 q 924 -466 962 -389 q 1000 -312 1000 -213 l 1000 -213 q 1000 -102 956 -45 q 912 12 833 12 l 833 12 q 782 12 745 -11 q 707 -35 686 -84 q 665 -133 665 -208 l 665 -208 q 665 -273 684 -325 q 702 -378 732 -422 q 762 -467 796 -506 l 796 -506 l 810 -522 q 844 -559 865 -594 q 885 -629 885 -664 l 885 -664 q 885 -697 866 -720 q 847 -743 803 -743 l 803 -743 q 782 -743 763 -740 q 743 -737 729 -732 l 729 -732 l 717 -779 q 734 -784 759 -788 q 783 -792 810 -792 l 810 -792 q 860 -792 889 -773 q 917 -754 929 -726 q 941 -698 941 -672 l 941 -672 q 941 -626 918 -585 q 894 -545 854 -499 l 854 -499 l 839 -481 q 804 -441 778 -399 q 751 -357 736 -310 q 721 -263 721 -207 l 721 -207 q 721 -140 737 -102 q 752 -65 778 -50 q 804 -35 833 -35 l 833 -35 q 885 -35 915 -76 q 944 -118 944 -210 l 944 -210 q 944 -271 929 -322 q 914 -374 884 -413 q 854 -452 809 -477 l 809 -477 l 795 -484 q 762 -499 723 -506 q 683 -514 639 -514 l 639 -514 q 594 -514 554 -506 q 513 -498 478 -481 l 478 -481 l 464 -474 q 403 -439 368 -372 q 332 -306 332 -211 l 332 -211 q 332 -144 347 -105 q 362 -67 388 -51 q 414 -35 446 -35 l 446 -35 q 478 -35 504 -51 q 529 -68 544 -106 q 559 -145 559 -212 l 559 -212 q 559 -267 543 -319 q 527 -372 498 -414 q 468 -457 427 -482 l 427 -482 l 414 -490 q 391 -503 366 -509 q 340 -515 311 -515 l 311 -515 q 240 -515 193 -483 q 145 -452 122 -398 q 98 -345 98 -279 l 98 -279 q 98 -220 112 -174 q 126 -128 153 -93 q 179 -59 214 -32 l 214 -32 l 180 8 q 144 -19 113 -58 q 81 -97 61 -152 q 41 -207 41 -281 l 41 -281 q 41 -341 59 -392 q 76 -443 110 -481 q 143 -519 193 -540 q 243 -562 307 -562 l 307 -562 q 350 -562 387 -551 q 423 -541 457 -518 l 457 -518 l 474 -504 q 538 -460 577 -383 q 615 -307 615 -212 l 615 -212 q 615 -137 594 -87 q 573 -37 535 -12 q 497 12 446 12 l 446 12 q 394 12 356 -12 q 317 -37 297 -86 q 276 -136 276 -211 l 276 -211 q 276 -277 293 -331 q 310 -386 342 -428 q 374 -471 418 -501 l 418 -501 l 434 -512 q 476 -537 527 -549 q 578 -562 639 -562 z"},"ൾ":{"ha":914,"x_min":42,"x_max":874,"o":"m 683 -792 l 683 -792 q 733 -792 762 -773 q 790 -754 803 -726 q 815 -698 815 -672 l 815 -672 q 815 -626 792 -586 q 769 -546 729 -502 l 729 -502 l 716 -485 q 679 -444 652 -401 q 625 -359 610 -311 q 595 -263 595 -207 l 595 -207 q 595 -140 611 -102 q 626 -65 652 -50 q 677 -35 707 -35 l 707 -35 q 759 -35 789 -76 q 818 -118 818 -210 l 818 -210 q 818 -253 810 -295 q 801 -337 785 -374 q 768 -412 744 -441 q 720 -471 687 -490 l 687 -490 q 667 -502 642 -508 q 617 -514 590 -514 l 590 -514 q 555 -514 527 -505 q 499 -496 480 -480 l 480 -480 q 447 -452 434 -405 q 420 -359 420 -286 l 420 -286 l 420 -231 q 420 -184 416 -148 q 411 -113 401 -86 q 390 -60 371 -38 l 371 -38 q 350 -15 319 -1 q 287 12 243 12 l 243 12 q 181 12 136 -20 q 90 -52 66 -112 q 42 -172 42 -255 l 42 -255 q 42 -329 59 -384 q 76 -439 107 -481 q 138 -524 177 -560 l 177 -560 l 214 -521 q 181 -492 155 -455 q 129 -418 114 -369 q 99 -321 99 -256 l 99 -256 q 99 -188 116 -138 q 133 -89 166 -62 q 198 -36 241 -36 l 241 -36 q 276 -36 297 -46 q 318 -57 332 -75 l 332 -75 q 352 -102 358 -145 q 364 -189 364 -252 l 364 -252 l 364 -299 q 364 -376 381 -427 q 398 -478 437 -512 l 437 -512 q 465 -537 503 -549 q 540 -562 588 -562 l 588 -562 q 622 -562 652 -554 q 682 -546 711 -531 l 711 -531 l 724 -524 q 773 -494 807 -446 q 840 -398 857 -338 q 874 -279 874 -213 l 874 -213 q 874 -102 830 -45 q 786 12 707 12 l 707 12 q 656 12 618 -11 q 580 -35 560 -84 q 539 -133 539 -208 l 539 -208 q 539 -275 558 -328 q 577 -382 608 -426 q 639 -471 674 -510 l 674 -510 l 689 -529 q 721 -565 740 -597 q 759 -629 759 -664 l 759 -664 q 759 -697 740 -720 q 721 -743 676 -743 l 676 -743 q 655 -743 636 -740 q 617 -737 603 -732 l 603 -732 l 590 -779 q 607 -784 632 -788 q 657 -792 683 -792 z"},"ൿ":{"ha":1047,"x_min":34,"x_max":1013,"o":"m 462 -562 l 462 -562 q 529 -562 573 -527 q 616 -493 637 -429 q 658 -365 658 -277 l 658 -277 q 658 -177 634 -113 q 609 -49 565 -18 q 521 12 461 12 l 461 12 q 414 12 379 -5 q 344 -23 320 -55 l 320 -55 q 290 -94 277 -151 q 264 -209 264 -277 l 264 -277 q 264 -415 316 -488 q 368 -562 462 -562 z m 462 -515 l 462 -515 q 390 -515 354 -455 q 318 -396 318 -276 l 318 -276 q 318 -192 335 -139 q 351 -86 383 -60 q 415 -35 459 -35 l 459 -35 q 505 -35 537 -59 q 569 -84 586 -137 q 603 -191 603 -277 l 603 -277 q 603 -361 587 -413 q 571 -466 540 -490 q 508 -515 462 -515 z m 192 12 l 192 12 q 117 12 76 -29 q 34 -71 34 -147 l 34 -147 q 34 -190 51 -220 q 68 -250 96 -269 l 96 -269 q 120 -287 150 -296 q 179 -306 218 -310 q 257 -315 310 -315 l 310 -315 l 782 -315 q 842 -315 883 -305 q 924 -296 955 -273 l 955 -273 q 981 -253 997 -222 q 1013 -191 1013 -146 l 1013 -146 q 1013 -70 975 -29 q 937 12 868 12 l 868 12 q 798 12 759 -32 q 719 -77 719 -150 l 719 -150 q 719 -183 727 -216 q 735 -250 750 -285 l 750 -285 q 752 -288 753 -292 q 754 -296 755 -299 l 755 -299 q 767 -327 783 -360 q 799 -394 819 -435 l 819 -435 q 849 -494 866 -533 q 882 -573 889 -602 q 895 -631 895 -658 l 895 -658 q 895 -696 876 -719 q 856 -743 812 -743 l 812 -743 q 791 -743 772 -740 q 753 -737 738 -732 l 738 -732 l 726 -779 q 743 -784 768 -788 q 793 -792 819 -792 l 819 -792 q 869 -792 898 -773 q 926 -754 939 -725 q 951 -696 951 -666 l 951 -666 q 951 -642 947 -617 q 943 -593 933 -565 q 923 -537 907 -500 q 890 -463 864 -413 l 864 -413 q 848 -379 835 -351 q 821 -323 811 -300 l 811 -300 q 809 -295 808 -290 q 806 -286 804 -282 l 804 -282 q 789 -244 782 -212 q 774 -181 774 -152 l 774 -152 q 774 -109 787 -84 q 800 -59 822 -47 q 844 -36 868 -36 l 868 -36 q 913 -36 936 -63 q 958 -91 958 -144 l 958 -144 q 958 -176 947 -199 q 936 -222 918 -236 l 918 -236 q 895 -254 863 -260 q 831 -267 784 -267 l 784 -267 l 304 -267 q 239 -267 198 -260 q 156 -253 128 -231 l 128 -231 q 110 -218 100 -197 q 89 -176 89 -146 l 89 -146 q 89 -106 103 -81 q 117 -57 142 -46 q 166 -36 195 -36 l 195 -36 q 231 -36 261 -47 q 290 -58 326 -85 l 326 -85 l 357 -48 q 331 -28 306 -14 q 280 -1 253 6 q 225 12 192 12 z"},"!":{"ha":240,"x_min":77,"x_max":162,"o":"m 140 -188 l 99 -188 l 87 -714 l 153 -714 l 140 -188 z m 119 10 l 119 10 q 98 10 88 -3 q 77 -16 77 -39 l 77 -39 q 77 -61 87 -74 q 97 -88 119 -88 l 119 -88 q 142 -88 152 -74 q 162 -61 162 -39 l 162 -39 q 162 -16 152 -3 q 141 10 119 10 z"},"\"":{"ha":378,"x_min":77,"x_max":301,"o":"m 131 -542 l 90 -542 l 77 -800 l 144 -800 l 131 -542 z m 288 -542 l 247 -542 l 234 -800 l 301 -800 l 288 -542 z"},"#":{"ha":592,"x_min":26,"x_max":566,"o":"m 151 0 l 104 0 l 145 -218 l 26 -218 l 26 -264 l 154 -264 l 189 -450 l 64 -450 l 64 -496 l 198 -496 l 239 -714 l 287 -714 l 245 -496 l 399 -496 l 441 -714 l 489 -714 l 447 -496 l 566 -496 l 566 -450 l 438 -450 l 404 -264 l 529 -264 l 529 -218 l 395 -218 l 353 0 l 305 0 l 347 -218 l 193 -218 l 151 0 z m 236 -450 l 201 -264 l 356 -264 l 391 -450 l 236 -450 z"},"%":{"ha":746,"x_min":52,"x_max":694,"o":"m 229 0 l 179 0 l 517 -714 l 567 -714 l 229 0 z m 180 -276 l 180 -276 q 118 -276 85 -333 q 52 -390 52 -501 l 52 -501 q 52 -613 85 -668 q 118 -724 181 -724 l 181 -724 q 246 -724 279 -667 q 311 -611 311 -501 l 311 -501 q 311 -389 278 -332 q 244 -276 180 -276 z m 181 -320 l 181 -320 q 222 -320 242 -365 q 262 -411 262 -501 l 262 -501 q 262 -591 243 -636 q 223 -681 181 -681 l 181 -681 q 141 -681 121 -636 q 101 -592 101 -501 l 101 -501 q 101 -410 121 -365 q 141 -320 181 -320 z m 564 10 l 564 10 q 501 10 468 -47 q 435 -104 435 -214 l 435 -214 q 435 -326 468 -382 q 501 -438 565 -438 l 565 -438 q 629 -438 662 -381 q 694 -324 694 -215 l 694 -215 q 694 -102 661 -46 q 627 10 564 10 z m 564 -34 l 564 -34 q 605 -34 625 -79 q 645 -124 645 -214 l 645 -214 q 645 -304 626 -349 q 606 -394 564 -394 l 564 -394 q 525 -394 505 -349 q 484 -305 484 -214 l 484 -214 q 484 -123 504 -78 q 524 -34 564 -34 z"},"'":{"ha":220,"x_min":77,"x_max":144,"o":"m 131 -542 l 90 -542 l 77 -800 l 144 -800 l 131 -542 z"},"(":{"ha":289,"x_min":52,"x_max":259,"o":"m 52 -278 l 52 -278 q 52 -379 69 -472 q 86 -566 120 -649 q 153 -732 201 -800 l 201 -800 l 259 -800 q 209 -727 175 -643 q 141 -559 125 -467 q 108 -375 108 -278 l 108 -278 q 108 -181 125 -89 q 141 2 175 86 q 208 170 259 244 l 259 244 l 201 244 q 153 175 120 92 q 86 9 69 -84 q 52 -178 52 -278 z"},")":{"ha":289,"x_min":30,"x_max":237,"o":"m 237 -278 l 237 -278 q 237 -177 220 -83 q 203 10 170 93 q 136 175 87 244 l 87 244 l 30 244 q 81 171 114 87 q 147 3 164 -89 q 181 -181 181 -278 l 181 -278 q 181 -376 165 -467 q 148 -558 115 -642 q 81 -726 30 -800 l 30 -800 l 87 -800 q 136 -731 170 -648 q 203 -565 220 -472 q 237 -379 237 -278 z"},"*":{"ha":522,"x_min":43,"x_max":479,"o":"m 230 -800 l 291 -800 l 280 -607 l 467 -666 l 479 -607 l 292 -571 l 411 -415 l 358 -383 l 260 -553 l 165 -384 l 111 -415 l 229 -571 l 43 -607 l 54 -666 l 241 -607 l 230 -800 z"},"+":{"ha":514,"x_min":45,"x_max":468,"o":"m 281 -119 l 233 -119 l 233 -329 l 45 -329 l 45 -377 l 233 -377 l 233 -587 l 281 -587 l 281 -377 l 468 -377 l 468 -329 l 281 -329 l 281 -119 z"},",":{"ha":228,"x_min":37,"x_max":155,"o":"m 89 -116 l 148 -116 l 155 -106 q 147 -66 136 -25 q 124 15 110 55 q 96 94 80 130 l 80 130 l 37 130 q 49 92 59 49 q 69 6 77 -37 q 85 -80 89 -116 l 89 -116 z"},"-":{"ha":316,"x_min":39,"x_max":276,"o":"m 276 -243 l 39 -243 l 39 -295 l 276 -295 l 276 -243 z"},".":{"ha":234,"x_min":75,"x_max":160,"o":"m 117 10 l 117 10 q 96 10 86 -2 q 75 -15 75 -39 l 75 -39 q 75 -63 86 -75 q 96 -88 117 -88 l 117 -88 q 138 -88 149 -75 q 160 -63 160 -39 l 160 -39 q 160 -15 149 -2 q 138 10 117 10 z"},"/":{"ha":366,"x_min":23,"x_max":343,"o":"m 78 244 l 23 244 l 288 -800 l 343 -800 l 78 244 z"},":":{"ha":234,"x_min":75,"x_max":160,"o":"m 117 10 l 117 10 q 96 10 86 -2 q 75 -15 75 -39 l 75 -39 q 75 -63 86 -75 q 96 -88 117 -88 l 117 -88 q 138 -88 149 -75 q 160 -63 160 -39 l 160 -39 q 160 -15 149 -2 q 138 10 117 10 z m 117 -445 l 117 -445 q 96 -445 86 -458 q 75 -471 75 -494 l 75 -494 q 75 -518 86 -530 q 96 -543 117 -543 l 117 -543 q 139 -543 150 -530 q 160 -518 160 -494 l 160 -494 q 160 -470 149 -457 q 138 -445 117 -445 z"},";":{"ha":234,"x_min":37,"x_max":160,"o":"m 89 -116 l 148 -116 l 155 -106 q 148 -66 136 -25 q 124 15 110 55 q 96 94 80 130 l 80 130 l 37 130 q 49 92 60 49 q 70 5 78 -37 q 85 -80 89 -116 l 89 -116 z m 117 -445 l 117 -445 q 96 -445 86 -458 q 75 -471 75 -494 l 75 -494 q 75 -518 86 -530 q 96 -543 117 -543 l 117 -543 q 139 -543 150 -530 q 160 -518 160 -494 l 160 -494 q 160 -470 149 -457 q 138 -445 117 -445 z"},"<":{"ha":514,"x_min":45,"x_max":469,"o":"m 469 -182 l 469 -129 l 45 -336 l 45 -372 l 469 -584 l 469 -530 l 108 -355 l 469 -182 z"},"=":{"ha":514,"x_min":47,"x_max":466,"o":"m 466 -226 l 47 -226 l 47 -274 l 466 -274 l 466 -226 z m 466 -431 l 47 -431 l 47 -479 l 466 -479 l 466 -431 z"},">":{"ha":514,"x_min":45,"x_max":469,"o":"m 469 -336 l 45 -129 l 45 -182 l 406 -355 l 45 -530 l 45 -584 l 469 -372 l 469 -336 z"},"?":{"ha":391,"x_min":36,"x_max":355,"o":"m 182 -724 l 182 -724 q 261 -724 308 -680 q 355 -636 355 -554 l 355 -554 q 355 -508 343 -475 q 330 -442 307 -413 q 283 -385 250 -354 l 250 -354 q 223 -328 208 -306 q 193 -284 188 -259 q 182 -235 182 -201 l 182 -201 l 182 -187 l 136 -187 l 136 -206 q 136 -247 142 -276 q 148 -306 164 -331 q 180 -356 209 -383 l 209 -383 q 239 -411 259 -435 q 279 -459 290 -486 q 300 -514 300 -552 l 300 -552 q 300 -611 268 -642 q 236 -673 180 -673 l 180 -673 q 146 -673 116 -663 q 85 -654 56 -639 l 56 -639 l 36 -685 q 68 -702 105 -713 q 142 -724 182 -724 z m 160 10 l 160 10 q 140 10 129 -2 q 118 -15 118 -39 l 118 -39 q 118 -63 129 -75 q 140 -88 160 -88 l 160 -88 q 182 -88 193 -75 q 204 -63 204 -39 l 204 -39 q 204 -15 193 -2 q 182 10 160 10 z"},"[":{"ha":314,"x_min":85,"x_max":274,"o":"m 274 244 l 85 244 l 85 -800 l 274 -800 l 274 -753 l 140 -753 l 140 197 l 274 197 l 274 244 z"},"\\":{"ha":366,"x_min":23,"x_max":343,"o":"m 343 244 l 288 244 l 23 -800 l 78 -800 l 343 244 z"},"]":{"ha":318,"x_min":42,"x_max":231,"o":"m 231 244 l 42 244 l 42 197 l 176 197 l 176 -753 l 42 -753 l 42 -800 l 231 -800 l 231 244 z"},"^":{"ha":514,"x_min":33,"x_max":479,"o":"m 87 -305 l 33 -305 l 239 -718 l 276 -718 l 479 -305 l 425 -305 l 257 -655 l 87 -305 z"},"_":{"ha":412,"x_min":-2,"x_max":414,"o":"m 414 134 l -2 134 l -2 90 l 414 90 l 414 134 z"},"{":{"ha":355,"x_min":30,"x_max":316,"o":"m 316 196 l 316 244 q 262 243 224 228 q 186 213 167 180 q 148 147 148 93 l 148 93 l 148 -143 q 148 -204 120 -228 q 91 -253 30 -253 l 30 -253 l 30 -302 q 91 -302 120 -327 q 148 -353 148 -413 l 148 -413 l 148 -648 q 148 -699 168 -732 q 188 -766 226 -783 q 264 -800 316 -800 l 316 -800 l 316 -752 q 259 -751 231 -728 q 203 -705 203 -646 l 203 -646 l 203 -412 q 203 -357 181 -323 q 159 -290 109 -280 l 109 -280 l 109 -276 q 158 -265 181 -233 q 203 -202 203 -145 l 203 -145 l 203 92 q 203 132 215 155 q 226 178 251 187 q 276 195 316 196 l 316 196 z"},"|":{"ha":532,"x_min":241,"x_max":291,"o":"m 291 244 l 241 244 l 241 -800 l 291 -800 l 291 244 z"},"}":{"ha":355,"x_min":39,"x_max":325,"o":"m 39 -752 l 39 -800 q 94 -800 132 -784 q 169 -769 189 -736 q 208 -703 208 -649 l 208 -649 l 208 -412 q 208 -351 236 -326 q 264 -302 325 -302 l 325 -302 l 325 -253 q 264 -253 236 -228 q 208 -203 208 -142 l 208 -142 l 208 92 q 208 143 188 177 q 167 210 129 227 q 91 244 39 244 l 39 244 l 39 196 q 97 195 125 172 q 152 148 152 90 l 152 90 l 152 -143 q 152 -199 175 -232 q 197 -266 246 -276 l 246 -276 l 246 -280 q 197 -290 175 -321 q 152 -353 152 -411 l 152 -411 l 152 -648 q 152 -688 141 -710 q 130 -733 105 -742 q 80 -752 39 -752 l 39 -752 z"},"~":{"ha":514,"x_min":44,"x_max":470,"o":"m 248 -330 l 248 -330 q 220 -345 198 -352 q 176 -359 152 -359 l 152 -359 q 125 -359 98 -344 q 70 -330 44 -303 l 44 -303 l 44 -358 q 67 -381 94 -394 q 121 -407 154 -407 l 154 -407 q 183 -407 209 -399 q 235 -392 266 -377 l 266 -377 q 297 -362 319 -354 q 340 -347 366 -347 l 366 -347 q 393 -347 419 -361 q 445 -376 470 -403 l 470 -403 l 470 -347 q 449 -325 422 -312 q 394 -299 362 -299 l 362 -299 q 333 -299 307 -306 q 281 -314 248 -330 z"}," ":{"ha":277,"x_min":0,"x_max":0,"o":""},"­":{"ha":316,"x_min":39,"x_max":276,"o":"m 276 -243 l 39 -243 l 39 -295 l 276 -295 l 276 -243 z"},"–":{"ha":500,"x_min":40,"x_max":460,"o":"m 460 -243 l 40 -243 l 40 -295 l 460 -295 l 460 -243 z"},"—":{"ha":1000,"x_min":40,"x_max":960,"o":"m 960 -243 l 40 -243 l 40 -295 l 960 -295 l 960 -243 z"},"‘":{"ha":203,"x_min":41,"x_max":159,"o":"m 107 -555 l 47 -555 l 41 -565 q 49 -604 61 -644 q 72 -685 86 -725 q 100 -765 116 -800 l 116 -800 l 159 -800 q 147 -762 137 -718 q 126 -675 119 -633 q 111 -591 107 -555 l 107 -555 z"},"’":{"ha":203,"x_min":42,"x_max":159,"o":"m 94 -800 l 153 -800 l 159 -790 q 152 -751 141 -710 q 129 -670 115 -630 q 101 -591 85 -555 l 85 -555 l 42 -555 q 51 -583 59 -614 q 67 -646 74 -679 q 80 -712 86 -743 q 91 -774 94 -800 l 94 -800 z"},"“":{"ha":363,"x_min":42,"x_max":319,"o":"m 267 -555 l 208 -555 l 202 -565 q 209 -604 221 -644 q 232 -685 247 -725 q 261 -765 276 -800 l 276 -800 l 319 -800 q 307 -762 297 -719 q 286 -676 279 -633 q 271 -591 267 -555 l 267 -555 z m 107 -555 l 48 -555 l 42 -565 q 49 -604 61 -644 q 72 -685 87 -725 q 101 -765 116 -800 l 116 -800 l 159 -800 q 147 -762 137 -718 q 126 -675 119 -633 q 112 -591 107 -555 l 107 -555 z"},"”":{"ha":363,"x_min":42,"x_max":319,"o":"m 254 -800 l 313 -800 l 319 -790 q 312 -751 301 -710 q 289 -670 275 -630 q 261 -591 245 -555 l 245 -555 l 202 -555 q 214 -593 225 -636 q 235 -679 243 -721 q 250 -764 254 -800 l 254 -800 z m 94 -800 l 153 -800 l 159 -790 q 152 -751 141 -710 q 129 -670 115 -630 q 101 -591 85 -555 l 85 -555 l 42 -555 q 51 -583 59 -614 q 67 -646 74 -679 q 80 -712 86 -743 q 91 -774 94 -800 l 94 -800 z"},"…":{"ha":691,"x_min":75,"x_max":616,"o":"m 117 10 l 117 10 q 96 10 86 -2 q 75 -15 75 -39 l 75 -39 q 75 -63 86 -75 q 96 -88 117 -88 l 117 -88 q 138 -88 149 -75 q 160 -63 160 -39 l 160 -39 q 160 -15 149 -2 q 138 10 117 10 z m 344 10 l 344 10 q 324 10 313 -2 q 302 -15 302 -39 l 302 -39 q 302 -63 313 -75 q 324 -88 344 -88 l 344 -88 q 366 -88 377 -75 q 387 -63 387 -39 l 387 -39 q 387 -15 377 -2 q 366 10 344 10 z m 573 10 l 573 10 q 553 10 542 -2 q 531 -15 531 -39 l 531 -39 q 531 -63 542 -75 q 552 -88 573 -88 l 573 -88 q 595 -88 606 -75 q 616 -63 616 -39 l 616 -39 q 616 -15 606 -2 q 595 10 573 10 z"},"×":{"ha":514,"x_min":56,"x_max":458,"o":"m 257 -386 l 424 -554 l 458 -520 l 290 -353 l 457 -186 l 424 -152 l 257 -320 l 90 -152 l 56 -186 l 224 -353 l 56 -520 l 90 -554 l 257 -386 z"},"÷":{"ha":514,"x_min":45,"x_max":468,"o":"m 468 -329 l 45 -329 l 45 -377 l 468 -377 l 468 -329 z m 257 -130 l 257 -130 q 236 -130 227 -142 q 217 -155 217 -177 l 217 -177 q 217 -199 227 -211 q 236 -224 257 -224 l 257 -224 q 278 -224 287 -211 q 296 -199 296 -177 l 296 -177 q 296 -155 287 -142 q 277 -130 257 -130 z m 257 -481 l 257 -481 q 237 -481 227 -494 q 217 -507 217 -528 l 217 -528 q 217 -550 227 -562 q 236 -575 257 -575 l 257 -575 q 278 -575 287 -562 q 296 -550 296 -528 l 296 -528 q 296 -506 287 -493 q 277 -481 257 -481 z"},"−":{"ha":514,"x_min":45,"x_max":468,"o":"m 468 -329 l 45 -329 l 45 -377 l 468 -377 l 468 -329 z"},"₹":{"ha":514,"x_min":67,"x_max":457,"o":"m 344 0 l 276 0 l 70 -297 l 76 -344 l 100 -344 q 150 -344 178 -355 q 206 -366 224 -386 l 224 -386 q 240 -406 248 -435 q 256 -464 256 -504 l 256 -504 q 256 -547 249 -575 q 241 -604 224 -625 l 224 -625 q 208 -646 182 -657 q 155 -669 108 -669 l 108 -669 l 67 -669 l 67 -714 l 457 -714 l 457 -669 l 238 -669 q 272 -650 292 -611 q 312 -573 312 -505 l 312 -505 q 312 -441 292 -396 q 272 -352 230 -327 q 188 -302 123 -297 l 123 -297 l 127 -306 l 344 0 z m 457 -487 l 67 -487 l 67 -532 l 457 -532 l 457 -487 z"},"꠰":{"ha":208,"x_min":77,"x_max":131,"o":"m 77 0 l 77 -550 l 131 -550 l 131 0 l 77 0 z"},"꠱":{"ha":386,"x_min":77,"x_max":309,"o":"m 77 0 l 77 -550 l 131 -550 l 131 0 l 77 0 z m 255 0 l 255 -550 l 309 -550 l 309 0 l 255 0 z"},"꠲":{"ha":564,"x_min":77,"x_max":487,"o":"m 77 0 l 77 -550 l 131 -550 l 131 0 l 77 0 z m 255 0 l 255 -550 l 309 -550 l 309 0 l 255 0 z m 433 0 l 433 -550 l 487 -550 l 487 0 l 433 0 z"},"॑":{"ha":0,"x_min":-302,"x_max":-254,"o":"m -302 -653 l -302 -864 l -254 -864 l -254 -653 l -302 -653 z"},"॒":{"ha":0,"x_min":-471,"x_max":-86,"o":"m -86 122 l -86 169 l -471 169 l -471 122 l -86 122 z"},"।":{"ha":305,"x_min":167,"x_max":222,"o":"m 222 49 l 167 49 l 167 -599 l 222 -599 l 222 49 z"},"॥":{"ha":503,"x_min":167,"x_max":419,"o":"m 419 49 l 365 49 l 365 -599 l 419 -599 l 419 49 z m 222 49 l 167 49 l 167 -599 l 222 -599 l 222 49 z"},"᳚":{"ha":0,"x_min":-360,"x_max":-197,"o":"m -360 -653 l -360 -864 l -314 -864 l -314 -653 l -360 -653 z m -243 -653 l -243 -864 l -197 -864 l -197 -653 l -243 -653 z"},"̇":{"ha":0,"x_min":-317,"x_max":-240,"o":"m -317 -701 l -317 -701 q -317 -722 -307 -733 q -297 -745 -279 -745 l -279 -745 q -259 -745 -249 -733 q -240 -722 -240 -701 l -240 -701 q -240 -681 -249 -669 q -259 -657 -279 -657 l -279 -657 q -297 -657 -307 -669 q -317 -681 -317 -701 z"},"̣":{"ha":0,"x_min":-317,"x_max":-240,"o":"m -317 135 l -317 135 q -317 115 -307 104 q -297 92 -279 92 l -279 92 q -259 92 -249 104 q -240 115 -240 135 l -240 135 q -240 156 -249 168 q -259 179 -279 179 l -279 179 q -297 179 -307 168 q -317 156 -317 135 z"},"‐":{"ha":316,"x_min":39,"x_max":276,"o":"m 276 -243 l 39 -243 l 39 -295 l 276 -295 l 276 -243 z"},"​":{"ha":0,"x_min":0,"x_max":0,"o":""},"‌":{"ha":0,"x_min":0,"x_max":0,"o":""},"‍":{"ha":0,"x_min":-161,"x_max":161,"o":"m 29 244 l -29 244 l -29 -565 l -121 -474 l -161 -514 l -40 -631 l -161 -748 l -121 -788 l 0 -669 l 121 -788 l 161 -748 l 40 -631 l 161 -514 l 121 -474 l 29 -565 l 29 244 z"},"◌":{"ha":562,"x_min":57,"x_max":504,"o":"m 89 -231 l 89 -231 q 57 -231 57 -264 l 57 -264 q 57 -295 89 -295 l 89 -295 q 121 -295 121 -264 l 121 -264 q 121 -231 89 -231 z m 138 -95 l 138 -95 q 106 -95 106 -127 l 106 -127 q 106 -158 138 -158 l 138 -158 q 169 -158 169 -127 l 169 -127 q 169 -95 138 -95 z m 281 -40 l 281 -40 q 249 -40 249 -72 l 249 -72 q 249 -104 281 -104 l 281 -104 q 312 -104 312 -72 l 312 -72 q 312 -40 281 -40 z m 138 -369 l 138 -369 q 106 -369 106 -401 l 106 -401 q 106 -432 138 -432 l 138 -432 q 169 -432 169 -401 l 169 -401 q 169 -369 138 -369 z m 423 -95 l 423 -95 q 391 -95 391 -127 l 391 -127 q 391 -158 423 -158 l 423 -158 q 455 -158 455 -127 l 455 -127 q 455 -95 423 -95 z m 281 -424 l 281 -424 q 249 -424 249 -456 l 249 -456 q 249 -487 281 -487 l 281 -487 q 312 -487 312 -456 l 312 -456 q 312 -424 281 -424 z m 472 -231 l 472 -231 q 441 -231 441 -264 l 441 -264 q 441 -295 472 -295 l 472 -295 q 504 -295 504 -264 l 504 -264 q 504 -231 472 -231 z m 423 -369 l 423 -369 q 391 -369 391 -401 l 391 -401 q 391 -432 423 -432 l 423 -432 q 455 -432 455 -401 l 455 -401 q 455 -369 423 -369 z"},"«":{"ha":444,"x_min":35,"x_max":409,"o":"m 35 -264 l 35 -278 l 188 -468 l 227 -446 l 97 -271 l 227 -98 l 188 -75 l 35 -264 z m 217 -264 l 217 -278 l 371 -468 l 409 -446 l 280 -271 l 409 -98 l 371 -75 l 217 -264 z"},"»":{"ha":441,"x_min":35,"x_max":407,"o":"m 407 -278 l 407 -265 l 253 -75 l 215 -98 l 344 -272 l 215 -446 l 253 -468 l 407 -278 z m 227 -278 l 227 -265 l 73 -75 l 35 -98 l 164 -272 l 35 -446 l 73 -468 l 227 -278 z"},"̈":{"ha":0,"x_min":-122,"x_max":121,"o":"m -122 -674 l -122 -674 q -122 -694 -112 -704 q -103 -715 -87 -715 l -87 -715 q -71 -715 -62 -704 q -53 -694 -53 -674 l -53 -674 q -53 -655 -62 -644 q -71 -633 -87 -633 l -87 -633 q -103 -633 -112 -644 q -122 -655 -122 -674 z m 52 -674 l 52 -674 q 52 -694 62 -704 q 71 -715 86 -715 l 86 -715 q 103 -715 112 -704 q 121 -694 121 -675 l 121 -675 q 121 -655 112 -644 q 103 -633 86 -633 l 86 -633 q 70 -633 61 -644 q 52 -655 52 -674 z"},"̀":{"ha":0,"x_min":-443,"x_max":-265,"o":"m -443 -765 l -377 -765 q -363 -743 -344 -715 q -325 -688 -304 -662 q -283 -636 -265 -616 l -265 -616 l -265 -606 l -303 -606 q -320 -621 -340 -640 q -360 -659 -379 -680 q -399 -701 -415 -721 q -432 -741 -443 -757 l -443 -757 l -443 -765 z"},"́":{"ha":0,"x_min":-266,"x_max":-89,"o":"m -89 -765 l -89 -757 q -100 -741 -116 -721 q -133 -701 -152 -680 q -172 -659 -191 -640 q -211 -621 -229 -606 l -229 -606 l -266 -606 l -266 -616 q -246 -638 -226 -664 q -206 -690 -187 -716 q -168 -743 -155 -765 l -155 -765 l -89 -765 z"},"̋":{"ha":0,"x_min":-104,"x_max":205,"o":"m 204 -766 l 204 -758 q 196 -743 182 -723 q 167 -703 150 -681 q 133 -660 115 -640 q 97 -621 82 -606 l 82 -606 l 49 -606 l 49 -615 q 65 -635 83 -662 q 101 -690 118 -718 q 134 -746 144 -766 l 144 -766 l 204 -766 z m 52 -766 l 52 -758 q 43 -743 29 -723 q 15 -703 -2 -681 q -20 -660 -37 -640 q -55 -621 -71 -606 l -71 -606 l -104 -606 l -104 -615 q -88 -636 -70 -663 q -52 -691 -35 -718 q -19 -746 -9 -766 l -9 -766 l 52 -766 z"},"̄":{"ha":0,"x_min":-130,"x_max":126,"o":"m -130 -658 l 126 -658 l 126 -612 l -130 -612 l -130 -658 z"},"˙":{"ha":156,"x_min":40,"x_max":116,"o":"m 78 -730 l 78 -730 q 97 -730 107 -718 q 116 -706 116 -686 l 116 -686 q 116 -665 106 -653 q 96 -641 78 -641 l 78 -641 q 60 -641 50 -653 q 40 -665 40 -686 l 40 -686 q 40 -706 50 -718 q 59 -730 78 -730 z"},"°":{"ha":404,"x_min":59,"x_max":345,"o":"m 202 -443 l 202 -443 q 160 -443 128 -460 q 96 -478 78 -509 q 59 -541 59 -583 l 59 -583 q 59 -626 78 -657 q 96 -689 128 -706 q 160 -724 202 -724 l 202 -724 q 243 -724 276 -706 q 308 -689 327 -657 q 345 -626 345 -583 l 345 -583 q 345 -541 327 -509 q 308 -478 276 -460 q 243 -443 202 -443 z m 202 -483 l 202 -483 q 247 -483 274 -511 q 301 -539 301 -583 l 301 -583 q 301 -629 274 -656 q 247 -684 202 -684 l 202 -684 q 155 -684 129 -656 q 103 -628 103 -583 l 103 -583 q 103 -539 130 -511 q 156 -483 202 -483 z"},"A":{"ha":537,"x_min":0,"x_max":536,"o":"m 536 0 l 477 0 l 395 -248 l 142 -248 l 59 0 l 0 0 l 241 -716 l 300 -716 l 536 0 z m 379 -300 l 297 -562 q 293 -575 288 -591 q 283 -608 278 -625 q 273 -643 269 -658 l 269 -658 q 265 -642 261 -625 q 256 -608 251 -592 q 246 -577 242 -562 l 242 -562 l 158 -300 l 379 -300 z"},"Á":{"ha":537,"x_min":0,"x_max":536,"o":"m 536 0 l 477 0 l 395 -248 l 142 -248 l 59 0 l 0 0 l 241 -716 l 300 -716 l 536 0 z m 379 -300 l 297 -562 q 293 -575 288 -591 q 283 -608 278 -625 q 273 -643 269 -658 l 269 -658 q 265 -642 261 -625 q 256 -608 251 -592 q 246 -577 242 -562 l 242 -562 l 158 -300 l 379 -300 z m 397 -947 l 397 -939 q 386 -923 370 -903 q 353 -883 334 -862 q 314 -841 295 -822 q 275 -803 257 -788 l 257 -788 l 220 -788 l 220 -798 q 240 -820 260 -846 q 280 -872 299 -898 q 318 -925 331 -947 l 331 -947 l 397 -947 z"},"Ă":{"ha":537,"x_min":0,"x_max":536,"o":"m 536 0 l 477 0 l 395 -248 l 142 -248 l 59 0 l 0 0 l 241 -716 l 300 -716 l 536 0 z m 379 -300 l 297 -562 q 293 -575 288 -591 q 283 -608 278 -625 q 273 -643 269 -658 l 269 -658 q 265 -642 261 -625 q 256 -608 251 -592 q 246 -577 242 -562 l 242 -562 l 158 -300 l 379 -300 z m 357 -910 l 396 -910 q 394 -873 378 -846 q 361 -819 333 -804 q 305 -789 266 -789 l 266 -789 q 208 -789 176 -820 q 143 -852 139 -910 l 139 -910 l 178 -910 q 180 -885 191 -868 q 202 -851 222 -843 q 241 -835 267 -835 l 267 -835 q 294 -835 313 -843 q 332 -852 344 -868 q 355 -885 357 -910 l 357 -910 z"},"Â":{"ha":537,"x_min":0,"x_max":536,"o":"m 536 0 l 477 0 l 395 -248 l 142 -248 l 59 0 l 0 0 l 241 -716 l 300 -716 l 536 0 z m 379 -300 l 297 -562 q 293 -575 288 -591 q 283 -608 278 -625 q 273 -643 269 -658 l 269 -658 q 265 -642 261 -625 q 256 -608 251 -592 q 246 -577 242 -562 l 242 -562 l 158 -300 l 379 -300 z m 240 -947 l 295 -947 q 307 -925 327 -897 q 346 -869 367 -842 q 388 -815 404 -797 l 404 -797 l 404 -788 l 367 -788 q 342 -810 316 -839 q 290 -869 267 -897 l 267 -897 q 244 -869 218 -839 q 192 -810 168 -788 l 168 -788 l 131 -788 l 131 -797 q 148 -817 169 -844 q 189 -871 209 -898 q 228 -925 240 -947 l 240 -947 z"},"Ä":{"ha":537,"x_min":0,"x_max":536,"o":"m 536 0 l 477 0 l 395 -248 l 142 -248 l 59 0 l 0 0 l 241 -716 l 300 -716 l 536 0 z m 379 -300 l 297 -562 q 293 -575 288 -591 q 283 -608 278 -625 q 273 -643 269 -658 l 269 -658 q 265 -642 261 -625 q 256 -608 251 -592 q 246 -577 242 -562 l 242 -562 l 158 -300 l 379 -300 z m 147 -856 l 147 -856 q 147 -876 157 -886 q 166 -897 182 -897 l 182 -897 q 198 -897 207 -886 q 216 -876 216 -856 l 216 -856 q 216 -837 207 -826 q 198 -815 182 -815 l 182 -815 q 166 -815 157 -826 q 147 -837 147 -856 z m 321 -856 l 321 -856 q 321 -876 331 -886 q 340 -897 355 -897 l 355 -897 q 372 -897 381 -886 q 390 -876 390 -857 l 390 -857 q 390 -837 381 -826 q 372 -815 355 -815 l 355 -815 q 339 -815 330 -826 q 321 -837 321 -856 z"},"À":{"ha":537,"x_min":0,"x_max":536,"o":"m 536 0 l 477 0 l 395 -248 l 142 -248 l 59 0 l 0 0 l 241 -716 l 300 -716 l 536 0 z m 379 -300 l 297 -562 q 293 -575 288 -591 q 283 -608 278 -625 q 273 -643 269 -658 l 269 -658 q 265 -642 261 -625 q 256 -608 251 -592 q 246 -577 242 -562 l 242 -562 l 158 -300 l 379 -300 z m 166 -947 l 232 -947 q 246 -925 265 -897 q 284 -870 305 -844 q 326 -818 344 -798 l 344 -798 l 344 -788 l 306 -788 q 289 -803 269 -822 q 249 -841 230 -862 q 210 -883 194 -903 q 177 -923 166 -939 l 166 -939 l 166 -947 z"},"Ā":{"ha":537,"x_min":0,"x_max":536,"o":"m 536 0 l 477 0 l 395 -248 l 142 -248 l 59 0 l 0 0 l 241 -716 l 300 -716 l 536 0 z m 379 -300 l 297 -562 q 293 -575 288 -591 q 283 -608 278 -625 q 273 -643 269 -658 l 269 -658 q 265 -642 261 -625 q 256 -608 251 -592 q 246 -577 242 -562 l 242 -562 l 158 -300 l 379 -300 z m 140 -840 l 396 -840 l 396 -794 l 140 -794 l 140 -840 z"},"Ą":{"ha":537,"x_min":0,"x_max":536,"o":"m 536 0 l 477 0 l 395 -248 l 142 -248 l 59 0 l 0 0 l 241 -716 l 300 -716 l 536 0 z m 379 -300 l 297 -562 q 293 -575 288 -591 q 283 -608 278 -625 q 273 -643 269 -658 l 269 -658 q 265 -642 261 -625 q 256 -608 251 -592 q 246 -577 242 -562 l 242 -562 l 158 -300 l 379 -300 z m 443 125 l 443 125 q 443 150 456 164 q 468 178 492 178 l 492 178 q 506 178 517 176 q 528 173 535 171 l 535 171 l 535 211 q 525 215 513 217 q 500 219 484 219 l 484 219 q 442 219 419 197 q 395 174 395 132 l 395 132 q 395 106 407 81 q 418 55 439 32 q 459 8 486 -12 l 486 -12 l 519 0 q 484 32 464 62 q 443 91 443 125 z"}}}
